<?xml version="1.0" encoding="utf-8"?>
<!-- Generator: Adobe Illustrator 18.1.1, SVG Export Plug-In . SVG Version: 6.00 Build 0)  -->
<svg version="1.1" id="Warstwa_1" xmlns="http://www.w3.org/2000/svg" xmlns:xlink="http://www.w3.org/1999/xlink" x="0px" y="0px"
	 viewBox="-155 247 300 300" enable-background="new -155 247 300 300" xml:space="preserve">
<path fill="none" stroke="#808285" stroke-width="6" stroke-miterlimit="10" d="M100.7,500h-213.4c-4.6,0-8.3-3.7-8.3-8.3V308.3
	c0-4.6,3.7-8.3,8.3-8.3h213.4c4.6,0,8.3,3.7,8.3,8.3v183.4C109,496.3,105.3,500,100.7,500z"/>
<line fill="none" stroke="#808285" stroke-width="6" stroke-miterlimit="10" x1="-121" y1="345" x2="109" y2="345"/>
<circle fill="none" stroke="#808285" stroke-width="3" stroke-miterlimit="10" cx="-95" cy="382" r="5"/>
<circle fill="none" stroke="#808285" stroke-width="3" stroke-miterlimit="10" cx="-65" cy="382" r="5"/>
<circle fill="none" stroke="#808285" stroke-width="3" stroke-miterlimit="10" cx="-35" cy="382" r="5"/>
<circle fill="none" stroke="#808285" stroke-width="3" stroke-miterlimit="10" cx="85" cy="382" r="5"/>
<circle fill="none" stroke="#808285" stroke-width="3" stroke-miterlimit="10" cx="-95" cy="402" r="5"/>
<circle fill="none" stroke="#808285" stroke-width="3" stroke-miterlimit="10" cx="-65" cy="402" r="5"/>
<circle fill="none" stroke="#808285" stroke-width="3" stroke-miterlimit="10" cx="-35" cy="402" r="5"/>
<circle fill="none" stroke="#808285" stroke-width="3" stroke-miterlimit="10" cx="-5" cy="402" r="5"/>
<circle fill="none" stroke="#808285" stroke-width="3" stroke-miterlimit="10" cx="25" cy="402" r="5"/>
<circle fill="none" stroke="#808285" stroke-width="3" stroke-miterlimit="10" cx="55" cy="402" r="5"/>
<circle fill="none" stroke="#808285" stroke-width="3" stroke-miterlimit="10" cx="85" cy="402" r="5"/>
<circle fill="none" stroke="#808285" stroke-width="3" stroke-miterlimit="10" cx="-95" cy="422" r="5"/>
<circle fill="none" stroke="#808285" stroke-width="3" stroke-miterlimit="10" cx="-65" cy="422" r="5"/>
<circle fill="none" stroke="#808285" stroke-width="3" stroke-miterlimit="10" cx="-35" cy="422" r="5"/>
<circle fill="none" stroke="#808285" stroke-width="3" stroke-miterlimit="10" cx="-5" cy="422" r="5"/>
<circle fill="none" stroke="#808285" stroke-width="3" stroke-miterlimit="10" cx="25" cy="422" r="5"/>
<circle fill="none" stroke="#808285" stroke-width="3" stroke-miterlimit="10" cx="55" cy="422" r="5"/>
<circle fill="none" stroke="#808285" stroke-width="3" stroke-miterlimit="10" cx="85" cy="422" r="5"/>
<circle fill="none" stroke="#808285" stroke-width="3" stroke-miterlimit="10" cx="-95" cy="442" r="5"/>
<circle fill="none" stroke="#808285" stroke-width="3" stroke-miterlimit="10" cx="-65" cy="442" r="5"/>
<circle fill="none" stroke="#808285" stroke-width="3" stroke-miterlimit="10" cx="-35" cy="442" r="5"/>
<circle fill="none" stroke="#808285" stroke-width="3" stroke-miterlimit="10" cx="-5" cy="442" r="5"/>
<circle fill="none" stroke="#808285" stroke-width="3" stroke-miterlimit="10" cx="25" cy="442" r="5"/>
<circle fill="none" stroke="#808285" stroke-width="3" stroke-miterlimit="10" cx="55" cy="442" r="5"/>
<circle fill="none" stroke="#808285" stroke-width="3" stroke-miterlimit="10" cx="85" cy="442" r="5"/>
<circle fill="none" stroke="#808285" stroke-width="3" stroke-miterlimit="10" cx="-95" cy="462" r="5"/>
<circle fill="none" stroke="#808285" stroke-width="3" stroke-miterlimit="10" cx="-65" cy="462" r="5"/>
<circle fill="none" stroke="#808285" stroke-width="3" stroke-miterlimit="10" cx="-35" cy="462" r="5"/>
<circle fill="none" stroke="#808285" stroke-width="3" stroke-miterlimit="10" cx="-5" cy="462" r="5"/>
<circle fill="none" stroke="#808285" stroke-width="3" stroke-miterlimit="10" cx="25" cy="462" r="5"/>
<circle fill="none" stroke="#808285" stroke-width="3" stroke-miterlimit="10" cx="55" cy="462" r="5"/>
<circle fill="none" stroke="#808285" stroke-width="3" stroke-miterlimit="10" cx="85" cy="462" r="5"/>
<line fill="none" stroke="#808285" stroke-width="3" stroke-linecap="round" stroke-miterlimit="10" x1="-12.7" y1="372.9" x2="4.4" y2="390"/>
<line fill="none" stroke="#808285" stroke-width="3" stroke-linecap="round" stroke-miterlimit="10" x1="4.4" y1="372.9" x2="-12.7" y2="390"/>
<line fill="none" stroke="#808285" stroke-width="3" stroke-linecap="round" stroke-miterlimit="10" x1="17.3" y1="372.9" x2="34.4" y2="390"/>
<line fill="none" stroke="#808285" stroke-width="3" stroke-linecap="round" stroke-miterlimit="10" x1="34.4" y1="372.9" x2="17.3" y2="390"/>
<line fill="none" stroke="#808285" stroke-width="3" stroke-linecap="round" stroke-miterlimit="10" x1="47.3" y1="372.9" x2="64.4" y2="390"/>
<line fill="none" stroke="#808285" stroke-width="3" stroke-linecap="round" stroke-miterlimit="10" x1="64.4" y1="372.9" x2="47.3" y2="390"/>
</svg>
