<?xml version="1.0" encoding="utf-8"?>
<!-- Generator: Adobe Illustrator 18.1.1, SVG Export Plug-In . SVG Version: 6.00 Build 0)  -->
<svg version="1.1" id="Warstwa_1" xmlns="http://www.w3.org/2000/svg" xmlns:xlink="http://www.w3.org/1999/xlink" x="0px" y="0px"
	 viewBox="-155 247 300 300" enable-background="new -155 247 300 300" xml:space="preserve">
<path fill="none" stroke="#808285" stroke-width="5" stroke-miterlimit="10" d="M-123,486.1V323c0-7.4,6-13.5,13.5-13.5h213.1
	c7.4,0,13.5,6,13.5,13.5v163.1"/>
<path fill="none" stroke="#808285" stroke-width="5" stroke-miterlimit="10" d="M-108.9,483.7V328.6c0-2.6,2.1-4.7,4.7-4.7H97
	c3.2,0,5.9,2.6,5.9,5.9v153.9"/>
<path fill="none" stroke="#808285" stroke-width="5" stroke-miterlimit="10" d="M139,505h-284c-1.6,0-3-1.4-3-3v-14c0-1.6,1.4-3,3-3
	h284c1.6,0,3,1.4,3,3v14C142,503.6,140.6,505,139,505z"/>
<path fill="none" stroke="#808285" stroke-width="5" stroke-miterlimit="10" d="M18.3,485v5.5c0,0.8-0.7,1.5-1.5,1.5h-39.6
	c-0.8,0-1.5-0.7-1.5-1.5V485"/>
</svg>
