<?xml version="1.0" encoding="utf-8"?>
<!-- Generator: Adobe Illustrator 18.1.1, SVG Export Plug-In . SVG Version: 6.00 Build 0)  -->
<svg version="1.1" id="Warstwa_1" xmlns="http://www.w3.org/2000/svg" xmlns:xlink="http://www.w3.org/1999/xlink" x="0px" y="0px"
	 width="508.2px" height="508.2px" viewBox="0 0 508.2 508.2" enable-background="new 0 0 508.2 508.2" xml:space="preserve">
<path fill="#FFFFFF" d="M254.4,0.2C114,0.2,0.3,114,0.3,254.3c0,119,81.4,218.9,192.4,246.5V312.3c0-1-0.9-1.6-1.8-1.6h-49.1
	c-1,0-2.1-1-2.1-1.9v-68.1c0-1,1.1-2,2.1-2h49.1c1,0,1.8-0.6,1.8-1.5v-59.4c0-48.1,31-92.2,102.6-92.2c24.4,0,43.4,2,48.8,2.6
	c0.9,0.1,1.6,0.9,1.5,1.8l-1.6,63.6c0,1-0.8,1.7-1.8,1.7c-5.6,0-24.4-0.2-44.3-0.2c-25.8,0-30.3,11.9-30.3,31.6v50.5
	c0,1,1.4,1.5,2.4,1.5h74.1c1,0,1.8,0.9,1.7,1.9l-3.2,68.3c0,0.9-0.8,1.8-1.7,1.8h-70.9c-1,0-2.4,0.6-2.4,1.6v195.4
	c0,0.1,0.3,0.2,0.3,0.4c133.8-7.2,240.3-118,240.3-253.7C508.3,114,394.7,0.2,254.4,0.2z"/>
</svg>
