<?xml version="1.0" encoding="utf-8"?>
<!-- Generator: Adobe Illustrator 18.1.1, SVG Export Plug-In . SVG Version: 6.00 Build 0)  -->
<!DOCTYPE svg PUBLIC "-//W3C//DTD SVG 1.1//EN" "http://www.w3.org/Graphics/SVG/1.1/DTD/svg11.dtd">
<svg version="1.1" id="Warstwa_1" xmlns="http://www.w3.org/2000/svg" xmlns:xlink="http://www.w3.org/1999/xlink" x="0px" y="0px"
	 width="500px" height="500px" viewBox="100 -100 500 500" enable-background="new 100 -100 500 500" xml:space="preserve">
<path fill="none" stroke="#FFFFFF" stroke-width="12" stroke-linecap="round" stroke-linejoin="round" stroke-miterlimit="10" d="
	M298,338.9V161.8c0-1.6-1.3-2.8-2.8-2.8h-32.1c-1.6,0-2.8-1.3-2.8-2.8v-44.6c0-1.6,1.3-2.8,2.8-2.8h32.1c1.6,0,2.8-1.3,2.8-2.8V58.5
	c0-18.8,15.6-87.8,81.6-87.8h41.1c1.6,0,2.8,1.3,2.8,2.8v69.7c0,1.6-1.3,2.8-2.8,2.8h-17.3c-24.4,0-30.1,11.1-30.1,28.1l-0.1,31.8
	c0,1.6,1.3,2.8,2.8,2.8h44.5c1.6,0,2.8,1.3,2.8,2.8v44.6c0,1.6-1.3,2.8-2.8,2.8H376c-1.6,0-2.8,1.3-2.8,2.8v180.6
	C373.2,342.5,329.6,351.7,298,338.9z"/>
</svg>
