<?xml version="1.0" encoding="utf-8"?>
<!-- Generator: Adobe Illustrator 18.1.1, SVG Export Plug-In . SVG Version: 6.00 Build 0)  -->
<svg version="1.1" id="Warstwa_1" xmlns="http://www.w3.org/2000/svg" xmlns:xlink="http://www.w3.org/1999/xlink" x="0px" y="0px"
	 width="508.2px" height="508.2px" viewBox="0 0 508.2 508.2" enable-background="new 0 0 508.2 508.2" xml:space="preserve">
<path fill="#FFFFFF" d="M254.1,0C113.8,0,0,113.8,0,254.1s113.8,254.1,254.1,254.1s254.1-113.8,254.1-254.1S394.4,0,254.1,0z
	 M370.4,354L232.5,399c-31.5,10.3-34.7,8.7-48.9-35.5l-34.9-107.9c-8.3-25.6-33.7-94.5-37.9-107.7c-7.9-24.5-7.9-25.9,38.4-41
	c36.3-11.9,37.8-11.5,50.9,29.4c10.6,33,17.4,59.5,28.3,93.2l29.7,91.9l94.9-31c18.7-6.1,25-5.9,30.2,17.2L387,325
	C391.4,345.3,381.2,350.4,370.4,354z"/>
</svg>
