<?xml version="1.0" encoding="utf-8"?>
<!-- Generator: Adobe Illustrator 18.1.1, SVG Export Plug-In . SVG Version: 6.00 Build 0)  -->
<svg version="1.1" id="Warstwa_1" xmlns="http://www.w3.org/2000/svg" xmlns:xlink="http://www.w3.org/1999/xlink" x="0px" y="0px"
	 width="508.2px" height="508.2px" viewBox="0 0 508.2 508.2" enable-background="new 0 0 508.2 508.2" xml:space="preserve">
<path fill="#FFFFFF" d="M254.4,0.2C114,0.2,0.3,114,0.3,254.3S114,508.4,254.4,508.4s254.1-113.8,254.1-254.1S394.7,0.2,254.4,0.2z
	 M384.4,194.1c0.1,2.8,0.2,5.6,0.2,8.4c0,86.2-65.6,185.6-185.6,185.6c-36.8,0-71.1-10.8-100-29.3c5.1,0.6,10.3,0.9,15.6,0.9
	c30.6,0,58.7-10.4,81-27.9c-28.5-0.5-52.6-19.4-60.9-45.3c4,0.8,8.1,1.2,12.3,1.2c6,0,11.7-0.8,17.2-2.3c-29.8-6-52.3-32.4-52.3-64
	c0-0.3,0-0.5,0-0.8c8.8,4.9,18.9,7.8,29.6,8.2c-17.5-11.7-29-31.7-29-54.3c0-12,3.2-23.2,8.8-32.8c32.2,39.5,80.3,65.4,134.5,68.2
	c-1.1-4.8-1.7-9.8-1.7-14.9c0-36,29.2-65.2,65.2-65.2c18.8,0,35.7,7.9,47.6,20.6c14.9-2.9,28.8-8.4,41.4-15.8
	c-4.9,15.2-15.2,28-28.7,36.1c13.2-1.6,25.8-5.1,37.5-10.3C408.3,173.5,397.2,185,384.4,194.1z"/>
</svg>
