<?xml version="1.0" encoding="utf-8"?>
<!-- Generator: Adobe Illustrator 18.1.1, SVG Export Plug-In . SVG Version: 6.00 Build 0)  -->
<!DOCTYPE svg PUBLIC "-//W3C//DTD SVG 1.1//EN" "http://www.w3.org/Graphics/SVG/1.1/DTD/svg11.dtd">
<svg version="1.1" id="Warstwa_1" xmlns="http://www.w3.org/2000/svg" xmlns:xlink="http://www.w3.org/1999/xlink" x="0px" y="0px"
	 width="500px" height="500px" viewBox="100 -100 500 500" enable-background="new 100 -100 500 500" xml:space="preserve">
<path fill="none" stroke="#FFFFFF" stroke-width="12" stroke-linecap="round" stroke-linejoin="round" stroke-miterlimit="10" d="
	M491.5,61.3c-7.7,3-15.6,5.3-23.9,6.7c-1.4,0.2-2.2-1.6-1.1-2.5c9-6.6,16-15.7,20.1-26.2c0.5-1.2-0.8-2.4-1.9-1.7
	c-10.5,5.8-22,10.1-34.1,12.5c-0.5,0.1-0.9-0.1-1.3-0.4c-10.9-11.3-26.2-18.3-43.2-18.3c-33.1,0-59.9,26.8-59.9,59.9
	c0,4.1,0.4,8,1.2,11.9c0.2,0.9-0.5,1.8-1.4,1.7c-48.3-3-91.1-26.1-120.4-60.9c-0.6-0.8-1.8-0.6-2.3,0.2c-4.5,8.5-7.1,18-7.1,28.3
	c0,19.1,8.9,36,22.8,47c1.1,0.9,0.4,2.6-1,2.5c-8-0.9-15.5-3.4-22.2-7.1c0,0.2,0,0.5,0,0.7c0,27,17.8,49.8,42.4,57.3
	c1.4,0.4,1.3,2.4-0.1,2.7c-3.3,0.5-6.7,0.8-10.1,0.8c-3,0-6.1-0.3-9-0.7c-1-0.2-1.9,0.9-1.5,1.9c7.8,21.5,27.7,37.2,51.3,39.2
	c1.3,0.1,1.8,1.7,0.7,2.5c-20,14.6-44.6,23.3-71.3,23.3l-7.9,0c-1.4,0-1.9,1.9-0.7,2.6c25.3,14.8,54.7,23.4,86.1,23.4
	c110.2,0,170.4-91.3,170.4-170.4c0-2.4-0.1-4.7-0.2-7.1c0-0.5,0.2-0.9,0.6-1.2c10.2-7.2,19.3-16.2,26.6-26.3
	C494,62.3,492.8,60.8,491.5,61.3z"/>
</svg>
