<?xml version="1.0" encoding="utf-8"?>
<!-- Generator: Adobe Illustrator 18.1.1, SVG Export Plug-In . SVG Version: 6.00 Build 0)  -->
<svg version="1.1" id="Warstwa_1" xmlns="http://www.w3.org/2000/svg" xmlns:xlink="http://www.w3.org/1999/xlink" x="0px" y="0px"
	 width="508.2px" height="508.2px" viewBox="-145 46.8 508.2 508.2" enable-background="new -145 46.8 508.2 508.2"
	 xml:space="preserve">
<g>
	<polygon fill="#2E4E6B" points="77.1,339.8 154.6,299.6 77.1,259.2 	"/>
	<path fill="#2E4E6B" d="M109.4,47C-31,47-144.7,160.8-144.7,301.1S-31,555.2,109.4,555.2s254.1-113.8,254.1-254.1
		S249.7,47,109.4,47z M249.7,313.4c0,23.2-2.7,46.4-2.7,46.4s-2.7,19.8-11.3,28.5c-10.9,11.4-23.1,11.5-28.7,12.1
		c-40.1,2.9-100.3,3-100.3,3s-74.5-0.7-97.5-2.9c-6.4-1.2-20.7-0.8-31.6-12.3c-8.6-8.7-11.7-28.5-11.7-28.5s-3.2-23.2-3.2-46.4
		v-21.7c0-23.2,3.2-46.4,3.2-46.4s3-19.8,11.6-28.5c10.9-11.4,23.2-11.6,28.8-12.3c40.1-2.9,100.4-3,100.4-3h0.1
		c0,0,60.2,0.1,100.3,3c5.6,0.7,17.8,0.8,28.7,12.2c8.6,8.7,11.2,28.5,11.2,28.5s2.7,23.2,2.7,46.4L249.7,313.4L249.7,313.4z"/>
</g>
</svg>
