<?xml version="1.0" encoding="utf-8"?>
<!-- Generator: Adobe Illustrator 18.1.1, SVG Export Plug-In . SVG Version: 6.00 Build 0)  -->
<svg version="1.1" id="Warstwa_1" xmlns="http://www.w3.org/2000/svg" xmlns:xlink="http://www.w3.org/1999/xlink" x="0px" y="0px"
	 width="508.2px" height="508.2px" viewBox="0 0 508.2 508.2" enable-background="new 0 0 508.2 508.2" xml:space="preserve">
<g>
	<polygon fill="#FFFFFF" points="222.1,293 299.6,252.8 222.1,212.4 	"/>
	<path fill="#FFFFFF" d="M254.4,0.2C114,0.2,0.3,114,0.3,254.3S114,508.4,254.4,508.4s254.1-113.8,254.1-254.1S394.7,0.2,254.4,0.2z
		 M394.7,266.6c0,23.2-2.7,46.4-2.7,46.4s-2.7,19.8-11.3,28.5c-10.9,11.4-23.1,11.5-28.7,12.1c-40.1,2.9-100.3,3-100.3,3
		s-74.5-0.7-97.5-2.9c-6.4-1.2-20.7-0.8-31.6-12.3c-8.6-8.7-11.7-28.5-11.7-28.5s-3.2-23.2-3.2-46.4v-21.7c0-23.2,3.2-46.4,3.2-46.4
		s3-19.8,11.6-28.5c10.9-11.4,23.2-11.6,28.8-12.3c40.1-2.9,100.4-3,100.4-3h0.1c0,0,60.2,0.1,100.3,3c5.6,0.7,17.8,0.8,28.7,12.2
		c8.6,8.7,11.2,28.5,11.2,28.5s2.7,23.2,2.7,46.4V266.6z"/>
</g>
</svg>
