<?xml version="1.0" encoding="utf-8"?>
<!-- Generator: Adobe Illustrator 18.1.1, SVG Export Plug-In . SVG Version: 6.00 Build 0)  -->
<!DOCTYPE svg PUBLIC "-//W3C//DTD SVG 1.1//EN" "http://www.w3.org/Graphics/SVG/1.1/DTD/svg11.dtd">
<svg version="1.1" id="Warstwa_1" xmlns="http://www.w3.org/2000/svg" xmlns:xlink="http://www.w3.org/1999/xlink" x="0px" y="0px"
	 width="500px" height="500px" viewBox="100 -100 500 500" enable-background="new 100 -100 500 500" xml:space="preserve">
<path fill-rule="evenodd" clip-rule="evenodd" fill="none" stroke="#FFFFFF" stroke-width="12" stroke-linecap="round" stroke-linejoin="round" stroke-miterlimit="10" d="
	M499,89.3c-2.5-23.6-21.7-42-45.5-43.4c-70.7-4.1-141.5-4.2-212.2,0.3c-22.1,1.4-37.9,18.3-40.3,40.3c-4.5,42.3-4.5,84.7,0,127
	c2.3,22,18.2,39.1,40.3,40.3c85.5,4.6,155.1,4.2,213.3,0.3c23.4-1.6,42.1-19.9,44.4-43.3C503,169.6,503.2,129.1,499,89.3z
	 M392.3,150.4l-70.7,36.7c-1.4,0.7-3-0.3-3-1.8v-73.6c0-1.6,1.7-2.6,3-1.8l70.7,37C393.8,147.5,393.8,149.7,392.3,150.4z"/>
</svg>
