<?xml version="1.0" encoding="utf-8"?>
<!-- Generator: Adobe Illustrator 18.1.1, SVG Export Plug-In . SVG Version: 6.00 Build 0)  -->
<svg version="1.1" id="Warstwa_1" xmlns="http://www.w3.org/2000/svg" xmlns:xlink="http://www.w3.org/1999/xlink" x="0px" y="0px"
	 width="500px" height="300px" viewBox="0 0 500 300" enable-background="new 0 0 500 300" xml:space="preserve">
<rect x="75" y="75" fill="#D9D9D9" width="350" height="150"/>
<g>
	<path fill="#FFFFFF" d="M126.7,145.9h-4.3v-3.1h12.4v3.1h-4.4V159h-3.7V145.9z"/>
	<path fill="#FFFFFF" d="M140.4,142.8v6.2h6v-6.2h3.6V159h-3.6v-6.8h-6v6.8h-3.7v-16.2H140.4z"/>
	<path fill="#FFFFFF" d="M156.9,142.8V159h-3.7v-16.2H156.9z"/>
	<path fill="#FFFFFF" d="M160.2,155.2c1,0.5,2.5,1,4.1,1c1.7,0,2.6-0.7,2.6-1.8c0-1-0.8-1.6-2.7-2.3c-2.7-0.9-4.4-2.4-4.4-4.8
		c0-2.8,2.3-4.9,6.1-4.9c1.8,0,3.2,0.4,4.1,0.8l-0.8,3c-0.6-0.3-1.8-0.8-3.4-0.8s-2.4,0.7-2.4,1.6c0,1,0.9,1.5,3,2.3
		c2.9,1.1,4.2,2.5,4.2,4.8c0,2.7-2.1,5-6.5,5c-1.8,0-3.7-0.5-4.6-1L160.2,155.2z"/>
	<path fill="#FFFFFF" d="M181.6,142.8V159h-3.7v-16.2H181.6z"/>
	<path fill="#FFFFFF" d="M184.9,155.2c1,0.5,2.5,1,4.1,1c1.7,0,2.6-0.7,2.6-1.8c0-1-0.8-1.6-2.7-2.3c-2.7-0.9-4.4-2.4-4.4-4.8
		c0-2.8,2.3-4.9,6.1-4.9c1.8,0,3.2,0.4,4.1,0.8l-0.8,3c-0.6-0.3-1.8-0.8-3.4-0.8s-2.4,0.7-2.4,1.6c0,1,0.9,1.5,3,2.3
		c2.9,1.1,4.2,2.5,4.2,4.8c0,2.7-2.1,5-6.5,5c-1.8,0-3.7-0.5-4.6-1L184.9,155.2z"/>
	<path fill="#FFFFFF" d="M206.3,154.8l-1.2,4.2h-3.8l4.9-16.2h4.8l5,16.2h-3.9l-1.2-4.2H206.3z M210.4,152.1l-1-3.4
		c-0.3-1-0.6-2.2-0.8-3.1h0c-0.2,1-0.5,2.2-0.7,3.1l-1,3.4H210.4z"/>
	<path fill="#FFFFFF" d="M223.3,155.2c1,0.5,2.5,1,4.1,1c1.7,0,2.6-0.7,2.6-1.8c0-1-0.8-1.6-2.7-2.3c-2.7-0.9-4.4-2.4-4.4-4.8
		c0-2.8,2.3-4.9,6.1-4.9c1.8,0,3.2,0.4,4.1,0.8l-0.8,3c-0.6-0.3-1.8-0.8-3.4-0.8s-2.4,0.7-2.4,1.6c0,1,0.9,1.5,3,2.3
		c2.9,1.1,4.2,2.5,4.2,4.8c0,2.7-2.1,5-6.5,5c-1.8,0-3.7-0.5-4.6-1L223.3,155.2z"/>
	<path fill="#FFFFFF" d="M236.1,143c1.1-0.2,2.7-0.3,4.9-0.3c2.3,0,3.9,0.4,4.9,1.3c1,0.8,1.7,2.2,1.7,3.7c0,1.6-0.5,2.9-1.5,3.8
		c-1.2,1.2-3.1,1.7-5.3,1.7c-0.5,0-0.9,0-1.2-0.1v5.8h-3.6V143z M239.7,150.4c0.3,0.1,0.7,0.1,1.2,0.1c1.9,0,3.1-1,3.1-2.6
		c0-1.5-1-2.4-2.9-2.4c-0.7,0-1.2,0.1-1.5,0.1V150.4z"/>
	<path fill="#FFFFFF" d="M264.9,150.7c0,5.3-3.2,8.5-7.9,8.5c-4.8,0-7.6-3.6-7.6-8.2c0-4.8,3.1-8.5,7.9-8.5
		C262.2,142.6,264.9,146.3,264.9,150.7z M253.2,151c0,3.2,1.5,5.4,3.9,5.4c2.5,0,3.9-2.4,3.9-5.5c0-2.9-1.4-5.4-3.9-5.4
		C254.6,145.5,253.2,147.8,253.2,151z"/>
	<path fill="#FFFFFF" d="M269.7,145.9h-4.3v-3.1h12.4v3.1h-4.4V159h-3.7V145.9z"/>
	<path fill="#FFFFFF" d="M284.6,142.8h9.9v3h-6.2v3.7h5.8v3h-5.8v6.5h-3.7V142.8z"/>
	<path fill="#FFFFFF" d="M312.1,150.7c0,5.3-3.2,8.5-7.9,8.5c-4.8,0-7.6-3.6-7.6-8.2c0-4.8,3.1-8.5,7.9-8.5
		C309.3,142.6,312.1,146.3,312.1,150.7z M300.4,151c0,3.2,1.5,5.4,3.9,5.4c2.5,0,3.9-2.4,3.9-5.5c0-2.9-1.4-5.4-3.9-5.4
		C301.8,145.5,300.4,147.8,300.4,151z"/>
	<path fill="#FFFFFF" d="M314.5,143c1.2-0.2,2.9-0.3,4.9-0.3c2.4,0,4.1,0.4,5.2,1.3c1,0.8,1.5,1.9,1.5,3.4c0,2.1-1.5,3.5-2.9,4v0.1
		c1.1,0.5,1.8,1.5,2.2,3c0.5,1.8,1,3.9,1.3,4.6h-3.7c-0.3-0.5-0.6-1.8-1.1-3.8c-0.4-2-1.1-2.6-2.6-2.6h-1.1v6.4h-3.6V143z
		 M318.1,150h1.4c1.8,0,2.9-0.9,2.9-2.3c0-1.5-1-2.2-2.7-2.3c-0.9,0-1.4,0.1-1.7,0.1V150z"/>
	<path fill="#FFFFFF" d="M336.3,159v-6.6l-5.1-9.6h4.2l1.7,3.9c0.5,1.2,0.8,2,1.2,3.1h0c0.4-1,0.7-1.9,1.2-3.1l1.6-3.9h4.1l-5.3,9.4
		v6.7H336.3z"/>
	<path fill="#FFFFFF" d="M360.7,150.7c0,5.3-3.2,8.5-7.9,8.5c-4.8,0-7.6-3.6-7.6-8.2c0-4.8,3.1-8.5,7.9-8.5
		C358,142.6,360.7,146.3,360.7,150.7z M349,151c0,3.2,1.5,5.4,3.9,5.4c2.5,0,3.9-2.4,3.9-5.5c0-2.9-1.4-5.4-3.9-5.4
		C350.5,145.5,349,147.8,349,151z"/>
	<path fill="#FFFFFF" d="M366.8,142.8v9.3c0,2.8,1.1,4.2,2.9,4.2c1.9,0,3-1.3,3-4.2v-9.3h3.6v9.1c0,5-2.5,7.4-6.7,7.4
		c-4.1,0-6.5-2.3-6.5-7.4v-9H366.8z"/>
</g>
</svg>
