<?xml version="1.0" encoding="utf-8"?>
<!-- Generator: Adobe Illustrator 18.1.1, SVG Export Plug-In . SVG Version: 6.00 Build 0)  -->
<!DOCTYPE svg PUBLIC "-//W3C//DTD SVG 1.1//EN" "http://www.w3.org/Graphics/SVG/1.1/DTD/svg11.dtd">
<svg version="1.1" id="Warstwa_1" xmlns="http://www.w3.org/2000/svg" xmlns:xlink="http://www.w3.org/1999/xlink" x="0px" y="0px"
	 width="386.9px" height="651.5px" viewBox="0 0 386.9 651.5" enable-background="new 0 0 386.9 651.5" xml:space="preserve">
<path fill="#FFFFFF" d="M383.2,50.2L67.9,0c-0.2,0-0.3,0-0.5,0c-1.7,0-2.8,1-3.1,1.3L1.6,64c-1,1-1.6,2.3-1.6,3.6v441.2
	c0,1.9,1.2,3.6,3,4.1l0.3,0.1c0.2,0,0.5,0.1,0.9,0.1c1.4,0,2.8-0.7,3.5-1.9L133.1,323l251.6-125.8c1.3-0.7,2.1-2.1,2.1-3.7V54.4
	C386.7,52.2,385.2,50.5,383.2,50.2z M64.7,12.9L120,289.5L9.3,68.2L64.7,12.9z M8.5,494.9V85.3l117,234.1L8.5,494.9z M133.4,313.4
	L73.3,12.9l300.5,180.4L133.4,313.4z M378.3,186.1L88.1,11.9L378.3,58V186.1z"/>
<g>
	<path fill="#FFFFFF" d="M20.7,569.4H7.4v15.8c0,2-1.6,3.6-3.7,3.6c-2,0-3.6-1.6-3.6-3.6V544c0-2.7,2.1-4.8,4.8-4.8h15.8
		c10.1,0,15.7,6.9,15.7,15.1C36.4,562.5,30.7,569.4,20.7,569.4z M19.8,545.7H7.4v17.2h12.4c5.4,0,9.1-3.5,9.1-8.6
		C28.9,549.1,25.2,545.7,19.8,545.7z"/>
	<path fill="#FFFFFF" d="M66.7,589.2c-14.7,0-24.8-10.8-24.8-25.4s10.1-25.4,24.8-25.4c14.6,0,24.8,10.8,24.8,25.4
		S81.3,589.2,66.7,589.2z M66.7,544.9c-10.5,0-17.2,8-17.2,18.9c0,10.8,6.6,18.9,17.2,18.9c10.5,0,17.2-8.1,17.2-18.9
		C84,552.9,77.2,544.9,66.7,544.9z"/>
	<path fill="#FFFFFF" d="M127.3,588.4h-22c-2.7,0-4.8-2.1-4.8-4.8v-41.3c0-1.9,1.6-3.5,3.8-3.5c1.9,0,3.5,1.6,3.5,3.5v39.6h19.5
		c1.8,0,3.2,1.5,3.2,3.2C130.5,586.9,129.1,588.4,127.3,588.4z"/>
	<path fill="#FFFFFF" d="M166.4,544.1l-15.9,23.7v17.5c0,2-1.5,3.6-3.7,3.6c-2,0-3.5-1.6-3.5-3.6v-17.5l-16-23.7
		c-0.4-0.5-0.6-1.1-0.6-1.8c0-1.7,1.3-3.5,3.5-3.5c1.1,0,2.4,0.6,3,1.5l13.7,20.9l13.6-20.9c0.6-1,1.8-1.5,2.9-1.5
		c2,0,3.5,1.6,3.5,3.4C166.9,542.8,166.8,543.5,166.4,544.1z"/>
	<path fill="#FFFFFF" d="M234.8,545.7c0.6,0.7,0.9,1.5,0.9,2.4c0,1.8-1.5,3.4-3.5,3.4c-0.9,0-1.9-0.4-2.5-1.2
		c-2.9-3.3-7.4-5.4-11.7-5.4c-10.3,0-18,7.9-18,18.9c0,11,7.7,18.9,18,18.9c4.3,0,8.7-1.9,11.7-5.3c0.6-0.7,1.6-1.2,2.6-1.2
		c1.9,0,3.4,1.6,3.4,3.4c0,0.9-0.3,1.7-0.9,2.3c-3.8,4.1-9.1,7.3-16.8,7.3c-14.3,0-25.6-10.3-25.6-25.4s11.3-25.4,25.6-25.4
		C225.7,538.4,231,541.5,234.8,545.7z"/>
	<path fill="#FFFFFF" d="M267.2,589.2c-14.7,0-24.8-10.8-24.8-25.4s10.1-25.4,24.8-25.4c14.6,0,24.8,10.8,24.8,25.4
		S281.8,589.2,267.2,589.2z M267.2,544.9c-10.5,0-17.2,8-17.2,18.9c0,10.8,6.6,18.9,17.2,18.9c10.5,0,17.2-8.1,17.2-18.9
		C284.5,552.9,277.7,544.9,267.2,544.9z"/>
	<path fill="#FFFFFF" d="M338.1,588.8c-1.4,0-2.8-0.7-3.6-1.8l-26.2-35.9v34.1c0,2-1.6,3.6-3.7,3.6c-2,0-3.6-1.6-3.6-3.6v-41.9
		c0-2.4,2-4.5,4.7-4.5c1.5,0,3,0.7,3.9,2l25.6,34.9v-33.3c0-1.9,1.6-3.5,3.8-3.5c1.9,0,3.5,1.6,3.5,3.5v42.3
		C342.5,586.7,340.7,588.8,338.1,588.8z"/>
	<path fill="#FFFFFF" d="M383.7,545.7h-22.8v14.4h22.3c1.8,0,3.2,1.4,3.2,3.3c0,1.7-1.4,3.2-3.2,3.2h-22.3v18.6c0,2-1.6,3.6-3.7,3.6
		c-2,0-3.6-1.6-3.6-3.6V544c0-2.7,2.1-4.8,4.8-4.8h25.3c1.8,0,3.2,1.4,3.2,3.3C386.9,544.2,385.5,545.7,383.7,545.7z"/>
</g>
<g>
	<path fill="#2DB7EB" d="M282.8,650.7h-25.3c-1.5,0-2.9-1.3-2.9-3.1c0-1,0.4-1.9,1.2-2.5c15.2-11.6,22.7-18.4,22.7-24.9
		c0-5-4.2-7.2-8.4-7.2c-4,0-7.4,1.3-9.9,3.6c-0.5,0.5-1.2,0.7-1.8,0.7c-1.5,0-2.9-1.2-2.9-2.8c0-0.6,0.2-1.2,0.6-1.7
		c3.1-3.5,8.6-5.4,13.9-5.4c7.6,0,14.8,4.4,14.8,12.9c0,8.3-8.1,15.8-19.7,24.8h17.6c1.5,0,2.8,1.3,2.8,2.8
		C285.6,649.5,284.3,650.7,282.8,650.7z"/>
	<path fill="#2DB7EB" d="M309.2,651.5c-11.8,0-16.7-11.5-16.7-22.1s4.9-22,16.7-22c11.8,0,16.7,11.5,16.7,22S321,651.5,309.2,651.5z
		 M309.2,613c-7.6,0-10.2,8.1-10.2,16.4s2.6,16.4,10.2,16.4c7.6,0,10.2-8.1,10.2-16.4S316.8,613,309.2,613z"/>
	<path fill="#2DB7EB" d="M343.9,651.1c-1.7,0-3.1-1.4-3.1-3.1v-31.6l-5.4,5.6c-0.5,0.5-1.1,0.8-1.8,0.8c-1.3,0-2.7-1.2-2.7-2.7
		c0-0.7,0.3-1.3,0.8-1.9l9.3-9.4c0.6-0.7,1.5-1,2.6-1c1.9,0,3.6,1.5,3.6,3.5v36.7C347.1,649.7,345.6,651.1,343.9,651.1z"/>
	<path fill="#2DB7EB" d="M371.1,651.5c-6,0-11.1-1.9-14.1-5.3c-0.4-0.5-0.6-1.1-0.6-1.7c0-1.4,1.2-2.9,2.8-2.9
		c0.6,0,1.3,0.3,1.9,0.7c2.7,2.4,6,3.6,10,3.6c5.6,0,9.3-3.6,9.3-8.4c0-5.1-3.7-8.4-9.2-8.4c-3.1,0-6,0.9-8.4,2.8
		c-0.8,0.5-1.7,0.9-2.6,0.9c-1.8,0-3.3-1.3-3.3-3.1v-17.4c0-2.3,1.9-4.2,4.2-4.2h20.4c1.5,0,2.8,1.2,2.8,2.9c0,1.5-1.2,2.8-2.8,2.8
		h-18.3v13.6c2-2,5.6-3.8,9.9-3.8c7.1,0,13.6,5,13.6,13.7C386.8,646,380.2,651.5,371.1,651.5z"/>
</g>
</svg>
