<?xml version="1.0" encoding="utf-8"?>
<!-- Generator: Adobe Illustrator 18.1.1, SVG Export Plug-In . SVG Version: 6.00 Build 0)  -->
<!DOCTYPE svg PUBLIC "-//W3C//DTD SVG 1.1//EN" "http://www.w3.org/Graphics/SVG/1.1/DTD/svg11.dtd">
<svg version="1.1" id="Warstwa_1" xmlns="http://www.w3.org/2000/svg" xmlns:xlink="http://www.w3.org/1999/xlink" x="0px" y="0px"
	 width="1920px" height="600px" viewBox="0 0 1920 600" enable-background="new 0 0 1920 600" xml:space="preserve">
<line fill="none" stroke="#000000" stroke-miterlimit="10" x1="818" y1="130" x2="647" y2="260"/>
<line fill="none" stroke="#000000" stroke-miterlimit="10" x1="647" y1="260" x2="818" y2="415"/>
<line fill="none" stroke="#000000" stroke-miterlimit="10" x1="818" y1="415" x2="647" y2="445"/>
<line fill="none" stroke="#000000" stroke-miterlimit="10" x1="818" y1="415" x2="764" y2="556"/>
<line fill="none" stroke="#000000" stroke-miterlimit="10" x1="818" y1="415" x2="912" y2="562"/>
<line fill="none" stroke="#000000" stroke-miterlimit="10" x1="818" y1="415" x2="985" y2="391"/>
<line fill="none" stroke="#000000" stroke-miterlimit="10" x1="985" y1="391" x2="901.5" y2="292"/>
<line fill="none" stroke="#000000" stroke-miterlimit="10" x1="1062" y1="210" x2="985" y2="391"/>
<line fill="none" stroke="#000000" stroke-miterlimit="10" x1="818" y1="130" x2="622" y2="37"/>
<line fill="none" stroke="#000000" stroke-miterlimit="10" x1="622" y1="37" x2="647" y2="260"/>
<line fill="none" stroke="#000000" stroke-miterlimit="10" x1="647" y1="260" x2="647" y2="445"/>
<line fill="none" stroke="#000000" stroke-miterlimit="10" x1="647" y1="445" x2="497" y2="269"/>
<line fill="none" stroke="#000000" stroke-miterlimit="10" x1="497" y1="269" x2="647" y2="260"/>
<line fill="none" stroke="#000000" stroke-miterlimit="10" x1="647" y1="260" x2="465" y2="66"/>
<line fill="none" stroke="#000000" stroke-miterlimit="10" x1="465" y1="66" x2="307" y2="244"/>
<line fill="none" stroke="#000000" stroke-miterlimit="10" x1="307" y1="244" x2="497" y2="269"/>
<line fill="none" stroke="#000000" stroke-miterlimit="10" x1="497" y1="269" x2="465" y2="66"/>
<line fill="none" stroke="#000000" stroke-miterlimit="10" x1="465" y1="66" x2="622" y2="37"/>
<line fill="none" stroke="#000000" stroke-miterlimit="10" x1="622" y1="37" x2="507" y2="-101"/>
<line fill="none" stroke="#000000" stroke-miterlimit="10" x1="507" y1="-101" x2="465" y2="66"/>
<line fill="none" stroke="#000000" stroke-miterlimit="10" x1="622" y1="37" x2="725" y2="-25"/>
<line fill="none" stroke="#000000" stroke-miterlimit="10" x1="725" y1="-25" x2="818" y2="130"/>
<line fill="none" stroke="#000000" stroke-miterlimit="10" x1="725" y1="-25" x2="846" y2="-32"/>
<line fill="none" stroke="#000000" stroke-miterlimit="10" x1="846" y1="-32" x2="857" y2="89"/>
<line fill="none" stroke="#000000" stroke-miterlimit="10" x1="857" y1="89" x2="725" y2="-25"/>
<line fill="none" stroke="#000000" stroke-miterlimit="10" x1="846" y1="-32" x2="1062" y2="121"/>
<line fill="none" stroke="#000000" stroke-miterlimit="10" x1="1062" y1="121" x2="1080" y2="-39"/>
<line fill="none" stroke="#000000" stroke-miterlimit="10" x1="1080" y1="-39" x2="1219" y2="37"/>
<line fill="none" stroke="#000000" stroke-miterlimit="10" x1="1219" y1="37" x2="1062" y2="121"/>
<line fill="none" stroke="#000000" stroke-miterlimit="10" x1="1062" y1="121" x2="1241" y2="228"/>
<line fill="none" stroke="#000000" stroke-miterlimit="10" x1="1241" y1="228" x2="1062" y2="210"/>
<line fill="none" stroke="#000000" stroke-miterlimit="10" x1="1062" y1="210" x2="1140.5" y2="496"/>
<line fill="none" stroke="#000000" stroke-miterlimit="10" x1="1140.5" y1="496" x2="985" y2="391"/>
<line fill="none" stroke="#000000" stroke-miterlimit="10" x1="985" y1="397" x2="912" y2="562"/>
<line fill="none" stroke="#000000" stroke-miterlimit="10" x1="912" y1="562" x2="764" y2="556"/>
<line fill="none" stroke="#000000" stroke-miterlimit="10" x1="764" y1="556" x2="647" y2="445"/>
<line fill="none" stroke="#000000" stroke-miterlimit="10" x1="647" y1="445" x2="444" y2="459"/>
<line fill="none" stroke="#000000" stroke-miterlimit="10" x1="444" y1="459" x2="497" y2="269"/>
<line fill="none" stroke="#000000" stroke-miterlimit="10" x1="444" y1="459" x2="307" y2="244"/>
<line fill="none" stroke="#000000" stroke-miterlimit="10" x1="307" y1="244" x2="184" y2="364"/>
<line fill="none" stroke="#000000" stroke-miterlimit="10" x1="184" y1="364" x2="444" y2="459"/>
<line fill="none" stroke="#000000" stroke-miterlimit="10" x1="444" y1="459" x2="264" y2="526"/>
<line fill="none" stroke="#000000" stroke-miterlimit="10" x1="264" y1="526" x2="184" y2="364"/>
<line fill="none" stroke="#000000" stroke-miterlimit="10" x1="184" y1="364" x2="46" y2="195"/>
<line fill="none" stroke="#000000" stroke-miterlimit="10" x1="46" y1="195" x2="307" y2="244"/>
<line fill="none" stroke="#000000" stroke-miterlimit="10" x1="307" y1="244" x2="56" y2="19"/>
<line fill="none" stroke="#000000" stroke-miterlimit="10" x1="56" y1="19" x2="46" y2="195"/>
<line fill="none" stroke="#000000" stroke-miterlimit="10" x1="56" y1="19" x2="296" y2="121"/>
<line fill="none" stroke="#000000" stroke-miterlimit="10" x1="296" y1="121" x2="307" y2="244"/>
<line fill="none" stroke="#000000" stroke-miterlimit="10" x1="296" y1="121" x2="465" y2="66"/>
<line fill="none" stroke="#000000" stroke-miterlimit="10" x1="465" y1="66" x2="301.5" y2="32"/>
<line fill="none" stroke="#000000" stroke-miterlimit="10" x1="301.5" y1="32" x2="296" y2="121"/>
<line fill="none" stroke="#000000" stroke-miterlimit="10" x1="301.5" y1="32" x2="56" y2="19"/>
<line fill="none" stroke="#000000" stroke-miterlimit="10" x1="56" y1="19" x2="224" y2="-115"/>
<line fill="none" stroke="#000000" stroke-miterlimit="10" x1="224" y1="-115" x2="301.5" y2="32"/>
<line fill="none" stroke="#000000" stroke-miterlimit="10" x1="301.5" y1="32" x2="507" y2="-101"/>
<line fill="none" stroke="#000000" stroke-miterlimit="10" x1="184" y1="364" x2="-11" y2="459"/>
<line fill="none" stroke="#000000" stroke-miterlimit="10" x1="-11" y1="459" x2="140" y2="577"/>
<line fill="none" stroke="#000000" stroke-miterlimit="10" x1="140" y1="577" x2="264" y2="526"/>
<line fill="none" stroke="#000000" stroke-miterlimit="10" x1="264" y1="526" x2="-11" y2="459"/>
<line fill="none" stroke="#000000" stroke-miterlimit="10" x1="264" y1="526" x2="298.8" y2="617"/>
<line fill="none" stroke="#000000" stroke-miterlimit="10" x1="298.8" y1="617" x2="444" y2="459"/>
<line fill="none" stroke="#000000" stroke-miterlimit="10" x1="444" y1="459" x2="486" y2="637"/>
<line fill="none" stroke="#000000" stroke-miterlimit="10" x1="486" y1="637" x2="647" y2="445"/>
<line fill="none" stroke="#000000" stroke-miterlimit="10" x1="647" y1="445" x2="697" y2="617"/>
<line fill="none" stroke="#000000" stroke-miterlimit="10" x1="697" y1="617" x2="764" y2="556"/>
<line fill="none" stroke="#000000" stroke-miterlimit="10" x1="764" y1="556" x2="857" y2="609"/>
<line fill="none" stroke="#000000" stroke-miterlimit="10" x1="857" y1="609" x2="912" y2="562"/>
<line fill="none" stroke="#000000" stroke-miterlimit="10" x1="912" y1="562" x2="1071" y2="604"/>
<line fill="none" stroke="#000000" stroke-miterlimit="10" x1="1071" y1="604" x2="985" y2="391"/>
<line fill="none" stroke="#000000" stroke-miterlimit="10" x1="1071" y1="604" x2="1140.5" y2="496"/>
<line fill="none" stroke="#000000" stroke-miterlimit="10" x1="1140.5" y1="496" x2="1241" y2="228"/>
<line fill="none" stroke="#000000" stroke-miterlimit="10" x1="1241" y1="228" x2="1219" y2="37"/>
<line fill="none" stroke="#000000" stroke-miterlimit="10" x1="1219" y1="37" x2="1332" y2="-48"/>
<line fill="none" stroke="#000000" stroke-miterlimit="10" x1="1332" y1="-48" x2="1241" y2="228"/>
<line fill="none" stroke="#000000" stroke-miterlimit="10" x1="1241" y1="228" x2="1394" y2="132.5"/>
<line fill="none" stroke="#000000" stroke-miterlimit="10" x1="1394" y1="132.5" x2="1332" y2="-48"/>
<line fill="none" stroke="#000000" stroke-miterlimit="10" x1="1140.5" y1="496" x2="1358" y2="362"/>
<line fill="none" stroke="#000000" stroke-miterlimit="10" x1="1358" y1="362" x2="1241" y2="228"/>
<line fill="none" stroke="#000000" stroke-miterlimit="10" x1="1358" y1="362" x2="1394" y2="132.5"/>
<line fill="none" stroke="#000000" stroke-miterlimit="10" x1="1394" y1="132.5" x2="1589" y2="327.2"/>
<line fill="none" stroke="#000000" stroke-miterlimit="10" x1="1589" y1="327.2" x2="1358" y2="362"/>
<line fill="none" stroke="#000000" stroke-miterlimit="10" x1="1358" y1="362" x2="1569" y2="518"/>
<line fill="none" stroke="#000000" stroke-miterlimit="10" x1="1569" y1="518" x2="1140.5" y2="496"/>
<line fill="none" stroke="#000000" stroke-miterlimit="10" x1="1569" y1="518" x2="1589" y2="327.2"/>
<line fill="none" stroke="#000000" stroke-miterlimit="10" x1="1589" y1="327.2" x2="1561" y2="28.5"/>
<line fill="none" stroke="#000000" stroke-miterlimit="10" x1="1561" y1="28.5" x2="1394" y2="132.5"/>
<line fill="none" stroke="#000000" stroke-miterlimit="10" x1="1332" y1="-48" x2="1561" y2="28.5"/>
<line fill="none" stroke="#000000" stroke-miterlimit="10" x1="1561" y1="28.5" x2="1820" y2="341.5"/>
<line fill="none" stroke="#000000" stroke-miterlimit="10" x1="1820" y1="341.5" x2="1589" y2="327.2"/>
<line fill="none" stroke="#000000" stroke-miterlimit="10" x1="1820" y1="341.5" x2="1925" y2="116"/>
<line fill="none" stroke="#000000" stroke-miterlimit="10" x1="1925" y1="116" x2="1561" y2="28.5"/>
<line fill="none" stroke="#000000" stroke-miterlimit="10" x1="1561" y1="28.5" x2="1761" y2="-17.5"/>
<line fill="none" stroke="#000000" stroke-miterlimit="10" x1="1761" y1="-17.5" x2="1925" y2="116"/>
<line fill="none" stroke="#000000" stroke-miterlimit="10" x1="1569" y1="518" x2="1820" y2="341.5"/>
<line fill="none" stroke="#000000" stroke-miterlimit="10" x1="1820" y1="341.5" x2="1951" y2="509"/>
<line fill="none" stroke="#000000" stroke-miterlimit="10" x1="1951" y1="509" x2="1569" y2="518"/>
<line fill="none" stroke="#000000" stroke-miterlimit="10" x1="1569" y1="518" x2="1071" y2="604"/>
<line fill="none" stroke="#000000" stroke-miterlimit="10" x1="1569" y1="518" x2="1561" y2="617"/>
<line fill="none" stroke="#000000" stroke-miterlimit="10" x1="1569" y1="518" x2="1865" y2="617"/>
<line fill="none" stroke="#000000" stroke-miterlimit="10" x1="1865" y1="617" x2="1951" y2="509"/>
<line fill="none" stroke="#000000" stroke-miterlimit="10" x1="817.5" y1="130" x2="817.5" y2="415"/>
<line fill="none" stroke="#000000" stroke-miterlimit="10" x1="817.5" y1="415" x2="901.5" y2="292"/>
<line fill="none" stroke="#000000" stroke-miterlimit="10" x1="901.5" y1="292" x2="1062" y2="210"/>
<line fill="none" stroke="#000000" stroke-miterlimit="10" x1="1061.5" y1="210" x2="1061.5" y2="121"/>
<line fill="none" stroke="#000000" stroke-miterlimit="10" x1="857" y1="89" x2="1062" y2="121"/>
<line fill="none" stroke="#000000" stroke-miterlimit="10" x1="857" y1="89" x2="818" y2="130"/>
</svg>
