<?xml version="1.0" encoding="utf-8"?>
<!-- Generator: Adobe Illustrator 18.1.1, SVG Export Plug-In . SVG Version: 6.00 Build 0)  -->
<!DOCTYPE svg PUBLIC "-//W3C//DTD SVG 1.1//EN" "http://www.w3.org/Graphics/SVG/1.1/DTD/svg11.dtd">
<svg version="1.1" id="Warstwa_1" xmlns="http://www.w3.org/2000/svg" xmlns:xlink="http://www.w3.org/1999/xlink" x="0px" y="0px"
	 width="500px" height="500px" viewBox="0 0 500 500" enable-background="new 0 0 500 500" xml:space="preserve">
<path fill="#FFFFFF" d="M299.5,364.1c-3.8,0-7.7-1.5-10.6-4.4c-5.9-5.9-5.9-15.4,0-21.2L402.4,225L288.9,111.4
	c-5.9-5.9-5.9-15.4,0-21.2c5.9-5.9,15.4-5.9,21.2,0l124.2,124.2c2.8,2.8,4.4,6.6,4.4,10.6s-1.6,7.8-4.4,10.6L310.1,359.7
	C307.2,362.7,303.3,364.1,299.5,364.1z"/>
<path fill="#FFFFFF" d="M424,240H95c-8.3,0-15-6.7-15-15s6.7-15,15-15h329c8.3,0,15,6.7,15,15S432.3,240,424,240z"/>
</svg>
