<?xml version="1.0" encoding="utf-8"?>
<!-- Generator: Adobe Illustrator 18.1.1, SVG Export Plug-In . SVG Version: 6.00 Build 0)  -->
<!DOCTYPE svg PUBLIC "-//W3C//DTD SVG 1.1//EN" "http://www.w3.org/Graphics/SVG/1.1/DTD/svg11.dtd">
<svg version="1.1" id="Warstwa_1" xmlns="http://www.w3.org/2000/svg" xmlns:xlink="http://www.w3.org/1999/xlink" x="0px" y="0px"
	 width="1920px" height="600px" viewBox="0 0 1920 600" enable-background="new 0 0 1920 600" xml:space="preserve">
<g>
	<polygon fill="none" stroke="#0F73A2" stroke-width="2" stroke-linejoin="bevel" stroke-miterlimit="10" points="1067.8,26.2 
		1086.8,177.8 879.9,143.9 	"/>
	<polygon fill="none" stroke="#0F73A2" stroke-width="2" stroke-linejoin="bevel" stroke-miterlimit="10" points="1086.8,177.8 
		880.8,143.9 1086.8,270 	"/>
	<polygon fill="none" stroke="#0F73A2" stroke-width="2" stroke-linejoin="bevel" stroke-miterlimit="10" points="1220,273.3 
		1086.8,177.8 1086.8,270 	"/>
	<polygon fill="none" stroke="#0F73A2" stroke-width="2" stroke-linejoin="bevel" stroke-miterlimit="10" points="310.8,72.3 
		207.8,199 366.6,205 	"/>
	<polygon fill="none" stroke="#0F73A2" stroke-width="2" stroke-linejoin="bevel" stroke-miterlimit="10" points="757.5,3.8 
		663.5,59.8 762.5,-141.9 	"/>
	<polygon fill="none" stroke="#0F73A2" stroke-width="2" stroke-linejoin="bevel" stroke-miterlimit="10" points="1215.4,517.5 
		1368.1,597.5 1339.8,496.2 	"/>
	<polygon fill="none" stroke="#0F73A2" stroke-width="2" stroke-linejoin="bevel" stroke-miterlimit="10" points="794.2,135.4 
		837.4,186.1 879.9,143.9 	"/>
	<polygon fill="none" stroke="#0F73A2" stroke-width="2" stroke-linejoin="bevel" stroke-miterlimit="10" points="1006.3,398.8 
		922.1,351.5 1086.8,270 	"/>
	<polygon fill="none" stroke="#0F73A2" stroke-width="2" stroke-linejoin="bevel" stroke-miterlimit="10" points="1006.3,399.2 
		1182.6,399.2 1086.8,270.2 	"/>
	<polygon fill="none" stroke="#0F73A2" stroke-width="2" stroke-linejoin="bevel" stroke-miterlimit="10" points="1220,273.3 
		1182.6,398.8 1086.8,270 	"/>
	<polygon fill="none" stroke="#0F73A2" stroke-width="2" stroke-linejoin="bevel" stroke-miterlimit="10" points="1220,273.3 
		1182.6,398.8 1362.3,224.1 	"/>
	<polygon fill="none" stroke="#0F73A2" stroke-width="2" stroke-linejoin="bevel" stroke-miterlimit="10" points="1327.3,384.6 
		1182.6,398.8 1362.3,224.1 	"/>
	<polygon fill="none" stroke="#0F73A2" stroke-width="2" stroke-linejoin="bevel" stroke-miterlimit="10" points="1327.3,384.6 
		1182.6,398.8 1281.2,445.5 	"/>
	<polygon fill="none" stroke="#0F73A2" stroke-width="2" stroke-linejoin="bevel" stroke-miterlimit="10" points="1215.4,517.5 
		1182.6,398.8 1281.2,445.5 	"/>
	<polygon fill="none" stroke="#0F73A2" stroke-width="2" stroke-linejoin="bevel" stroke-miterlimit="10" points="1327.3,384.6 
		1416.4,483.2 1281.2,445.5 	"/>
	<polygon fill="none" stroke="#0F73A2" stroke-width="2" stroke-linejoin="bevel" stroke-miterlimit="10" points="1215.4,517.5 
		1416.4,483.2 1281.2,445.5 	"/>
	<polygon fill="none" stroke="#0F73A2" stroke-width="2" stroke-linejoin="bevel" stroke-miterlimit="10" points="1215.4,517.5 
		1368.1,597.5 1127.6,598.9 	"/>
	<polygon fill="none" stroke="#0F73A2" stroke-width="2" stroke-linejoin="bevel" stroke-miterlimit="10" points="1009.5,764.9 
		1368.1,597.5 1127.6,598.9 	"/>
	<polygon fill="none" stroke="#0F73A2" stroke-width="2" stroke-linejoin="bevel" stroke-miterlimit="10" points="1009.5,764.9 
		1368.1,597.5 1304,760.6 	"/>
	<polygon fill="none" stroke="#0F73A2" stroke-width="2" stroke-linejoin="bevel" stroke-miterlimit="10" points="1402.1,760.9 
		1368.1,597.5 1304,760.6 	"/>
	<polygon fill="none" stroke="#0F73A2" stroke-width="2" stroke-linejoin="bevel" stroke-miterlimit="10" points="1402.1,760.9 
		1368.1,597.5 1555.2,702.3 	"/>
	<polygon fill="none" stroke="#0F73A2" stroke-width="2" stroke-linejoin="bevel" stroke-miterlimit="10" points="1528.6,580.9 
		1368.1,597.5 1555.2,702.3 	"/>
	<polygon fill="none" stroke="#0F73A2" stroke-width="2" stroke-linejoin="bevel" stroke-miterlimit="10" points="1528.6,580.9 
		1616.7,567.5 1555.2,702.3 	"/>
	<polygon fill="none" stroke="#0F73A2" stroke-width="2" stroke-linejoin="bevel" stroke-miterlimit="10" points="1850.6,760.6 
		1616.7,567.5 1555.2,702.3 	"/>
	<polygon fill="none" stroke="#0F73A2" stroke-width="2" stroke-linejoin="bevel" stroke-miterlimit="10" points="1416.4,483.2 
		1368.1,597.5 1339.8,496.2 	"/>
	<polygon fill="none" stroke="#0F73A2" stroke-width="2" stroke-linejoin="bevel" stroke-miterlimit="10" points="1327.3,384.6 
		1416.4,483.2 1445.4,323.1 	"/>
	<polygon fill="none" stroke="#0F73A2" stroke-width="2" stroke-linejoin="bevel" stroke-miterlimit="10" points="1517,394.6 
		1416.4,483.2 1445.4,323.1 	"/>
	<polygon fill="none" stroke="#0F73A2" stroke-width="2" stroke-linejoin="bevel" stroke-miterlimit="10" points="1517,394.6 
		1603.4,205 1445.4,323.1 	"/>
	<polygon fill="none" stroke="#0F73A2" stroke-width="2" stroke-linejoin="bevel" stroke-miterlimit="10" points="1517,394.6 
		1603.4,205 1616.7,315.2 	"/>
	<polygon fill="none" stroke="#0F73A2" stroke-width="2" stroke-linejoin="bevel" stroke-miterlimit="10" points="1517,394.6 
		1612.6,459.5 1616.7,315.2 	"/>
	<polygon fill="none" stroke="#0F73A2" stroke-width="2" stroke-linejoin="bevel" stroke-miterlimit="10" points="1700,347.3 
		1612.6,459.5 1616.7,315.2 	"/>
	<polygon fill="none" stroke="#0F73A2" stroke-width="2" stroke-linejoin="bevel" stroke-miterlimit="10" points="1699.9,197.6 
		1699.9,347.3 1616.7,315.2 	"/>
	<polygon fill="none" stroke="#0F73A2" stroke-width="2" stroke-linejoin="bevel" stroke-miterlimit="10" points="1517,394.6 
		1612.6,459.5 1416.4,483.2 	"/>
	<polygon fill="none" stroke="#0F73A2" stroke-width="2" stroke-linejoin="bevel" stroke-miterlimit="10" points="1368.1,597.5 
		1612.6,459.5 1416.4,483.2 	"/>
	<polygon fill="none" stroke="#0F73A2" stroke-width="2" stroke-linejoin="bevel" stroke-miterlimit="10" points="1528.6,580.9 
		1612.6,459.5 1616.7,567.5 	"/>
	<polygon fill="none" stroke="#0F73A2" stroke-width="2" stroke-linejoin="bevel" stroke-miterlimit="10" points="1850.6,466.2 
		1612.6,459.5 1616.7,567.5 	"/>
	<polygon fill="none" stroke="#0F73A2" stroke-width="2" stroke-linejoin="bevel" stroke-miterlimit="10" points="1850.6,466.2 
		1612.6,459.5 1716.6,394.6 	"/>
	<polygon fill="none" stroke="#0F73A2" stroke-width="2" stroke-linejoin="bevel" stroke-miterlimit="10" points="1700,347.3 
		1612.6,459.5 1716.6,394.6 	"/>
	<polygon fill="none" stroke="#0F73A2" stroke-width="2" stroke-linejoin="bevel" stroke-miterlimit="10" points="1700,347.3 
		1850.6,387.4 1716.6,394.6 	"/>
	<polygon fill="none" stroke="#0F73A2" stroke-width="2" stroke-linejoin="bevel" stroke-miterlimit="10" points="1699.9,347.3 
		1850.5,387.4 1699.9,197.6 	"/>
	<polygon fill="none" stroke="#0F73A2" stroke-width="2" stroke-linejoin="bevel" stroke-miterlimit="10" points="1368.1,597.5 
		1612.6,459.5 1528.6,580.9 	"/>
	<polygon fill="none" stroke="#0F73A2" stroke-width="2" stroke-linejoin="bevel" stroke-miterlimit="10" points="1700,197.6 
		1603.4,205 1616.7,315.2 	"/>
	<polygon fill="none" stroke="#0F73A2" stroke-width="2" stroke-linejoin="bevel" stroke-miterlimit="10" points="1700,197.6 
		1603.4,205 1679,52.9 	"/>
	<polygon fill="none" stroke="#0F73A2" stroke-width="2" stroke-linejoin="bevel" stroke-miterlimit="10" points="1700,197.6 
		1850.6,91.2 1679,52.9 	"/>
	<polygon fill="none" stroke="#0F73A2" stroke-width="2" stroke-linejoin="bevel" stroke-miterlimit="10" points="1453.7,169.2 
		1603.4,205 1445.4,323.1 	"/>
	<polygon fill="none" stroke="#0F73A2" stroke-width="2" stroke-linejoin="bevel" stroke-miterlimit="10" points="1327.3,384.6 
		1362.3,224.1 1445.4,323.1 	"/>
	<polygon fill="none" stroke="#0F73A2" stroke-width="2" stroke-linejoin="bevel" stroke-miterlimit="10" points="1453.7,169.2 
		1362.3,224.1 1445.4,323.1 	"/>
	<polygon fill="none" stroke="#0F73A2" stroke-width="2" stroke-linejoin="bevel" stroke-miterlimit="10" points="1127.6,598.9 
		1182.6,398.8 1060.4,506.1 	"/>
	<polygon fill="none" stroke="#0F73A2" stroke-width="2" stroke-linejoin="bevel" stroke-miterlimit="10" points="1127.6,598.9 
		862.4,676.3 1060.4,506.1 	"/>
	<polygon fill="none" stroke="#0F73A2" stroke-width="2" stroke-linejoin="bevel" stroke-miterlimit="10" points="1127.6,598.9 
		862.4,676.3 1009.5,764.9 	"/>
	<polygon fill="none" stroke="#0F73A2" stroke-width="2" stroke-linejoin="bevel" stroke-miterlimit="10" points="892.3,825.2 
		862.4,676.3 1009.5,764.9 	"/>
	<polygon fill="none" stroke="#0F73A2" stroke-width="2" stroke-linejoin="bevel" stroke-miterlimit="10" points="892.3,825.2 
		862.4,676.3 737.5,723.2 	"/>
	<polygon fill="none" stroke="#0F73A2" stroke-width="2" stroke-linejoin="bevel" stroke-miterlimit="10" points="686.8,635 
		862.4,676.3 737.5,723.2 	"/>
	<polygon fill="none" stroke="#0F73A2" stroke-width="2" stroke-linejoin="bevel" stroke-miterlimit="10" points="686.8,635 
		622,673.7 737.5,723.2 	"/>
	<polygon fill="none" stroke="#0F73A2" stroke-width="2" stroke-linejoin="bevel" stroke-miterlimit="10" points="686.8,635 
		622,673.7 605,580.9 	"/>
	<polygon fill="none" stroke="#0F73A2" stroke-width="2" stroke-linejoin="bevel" stroke-miterlimit="10" points="737.5,723.2 
		622,673.7 555.4,793.9 	"/>
	<polygon fill="none" stroke="#0F73A2" stroke-width="2" stroke-linejoin="bevel" stroke-miterlimit="10" points="456,643.4 
		622,673.7 605,580.9 	"/>
	<polygon fill="none" stroke="#0F73A2" stroke-width="2" stroke-linejoin="bevel" stroke-miterlimit="10" points="456,643.4 
		622,673.7 555.4,793.9 	"/>
	<polygon fill="none" stroke="#0F73A2" stroke-width="2" stroke-linejoin="bevel" stroke-miterlimit="10" points="456,643.4 
		445.6,702.3 555.4,793.9 	"/>
	<polygon fill="none" stroke="#0F73A2" stroke-width="2" stroke-linejoin="bevel" stroke-miterlimit="10" points="686.8,635 
		862.4,676.3 735.5,546.8 	"/>
	<polygon fill="none" stroke="#0F73A2" stroke-width="2" stroke-linejoin="bevel" stroke-miterlimit="10" points="1220,273.3 
		1339.8,140.4 1362.3,224.1 	"/>
	<polygon fill="none" stroke="#0F73A2" stroke-width="2" stroke-linejoin="bevel" stroke-miterlimit="10" points="1453.7,169.2 
		1339.8,140.4 1362.3,224.1 	"/>
	<polygon fill="none" stroke="#0F73A2" stroke-width="2" stroke-linejoin="bevel" stroke-miterlimit="10" points="1453.7,169.2 
		1339.8,140.4 1471.2,86.4 	"/>
	<polygon fill="none" stroke="#0F73A2" stroke-width="2" stroke-linejoin="bevel" stroke-miterlimit="10" points="1453.7,169.2 
		1603.4,205 1471.2,86.4 	"/>
	<polygon fill="none" stroke="#0F73A2" stroke-width="2" stroke-linejoin="bevel" stroke-miterlimit="10" points="1679,52.9 
		1603.4,205 1471.2,86.4 	"/>
	<polygon fill="none" stroke="#0F73A2" stroke-width="2" stroke-linejoin="bevel" stroke-miterlimit="10" points="1679,52.9 
		1631.5,-7 1471.2,86.4 	"/>
	<polygon fill="none" stroke="#0F73A2" stroke-width="2" stroke-linejoin="bevel" stroke-miterlimit="10" points="1679,52.9 
		1631.5,-7 1850.6,-87.8 	"/>
	<polygon fill="none" stroke="#0F73A2" stroke-width="2" stroke-linejoin="bevel" stroke-miterlimit="10" points="1593.4,-115 
		1631.5,-7 1850.6,-87.8 	"/>
	<polygon fill="none" stroke="#0F73A2" stroke-width="2" stroke-linejoin="bevel" stroke-miterlimit="10" points="1593.4,-115 
		1631.5,-7 1528.6,-28.7 	"/>
	<polygon fill="none" stroke="#0F73A2" stroke-width="2" stroke-linejoin="bevel" stroke-miterlimit="10" points="1593.4,-115 
		1529.3,-112.8 1528.6,-28.7 	"/>
	<polygon fill="none" stroke="#0F73A2" stroke-width="2" stroke-linejoin="bevel" stroke-miterlimit="10" points="1528.6,-28.7 
		1631.5,-7 1471.2,86.4 	"/>
	<polygon fill="none" stroke="#0F73A2" stroke-width="2" stroke-linejoin="bevel" stroke-miterlimit="10" points="1528.6,-28.7 
		1356.4,-7 1471.2,86.4 	"/>
	<polygon fill="none" stroke="#0F73A2" stroke-width="2" stroke-linejoin="bevel" stroke-miterlimit="10" points="1528.6,-28.7 
		1356.4,-7 1529.3,-112.8 	"/>
	<polygon fill="none" stroke="#0F73A2" stroke-width="2" stroke-linejoin="bevel" stroke-miterlimit="10" points="1386.4,-204.2 
		1356.4,-7 1529.3,-112.8 	"/>
	<polygon fill="none" stroke="#0F73A2" stroke-width="2" stroke-linejoin="bevel" stroke-miterlimit="10" points="1386.4,-204.2 
		1356.4,-7 1315.8,-46.1 	"/>
	<polygon fill="none" stroke="#0F73A2" stroke-width="2" stroke-linejoin="bevel" stroke-miterlimit="10" points="1215.8,48.7 
		1356.4,-7 1315.8,-46.1 	"/>
	<polygon fill="none" stroke="#0F73A2" stroke-width="2" stroke-linejoin="bevel" stroke-miterlimit="10" points="1215.8,48.7 
		1179.3,-129.3 1315.8,-46.1 	"/>
	<polygon fill="none" stroke="#0F73A2" stroke-width="2" stroke-linejoin="bevel" stroke-miterlimit="10" points="1215.8,48.7 
		1179.3,-129.3 1067.8,26.2 	"/>
	<polygon fill="none" stroke="#0F73A2" stroke-width="2" stroke-linejoin="bevel" stroke-miterlimit="10" points="1061.9,-146 
		1179.3,-129.3 1067.8,26.2 	"/>
	<polygon fill="none" stroke="#0F73A2" stroke-width="2" stroke-linejoin="bevel" stroke-miterlimit="10" points="982.6,-22.5 
		1061.9,-146 1067.8,26.2 	"/>
	<polygon fill="none" stroke="#0F73A2" stroke-width="2" stroke-linejoin="bevel" stroke-miterlimit="10" points="982.6,-22.5 
		879.9,143.9 1067.8,26.2 	"/>
	<polygon fill="none" stroke="#0F73A2" stroke-width="2" stroke-linejoin="bevel" stroke-miterlimit="10" points="982.6,-21.4 
		879.9,143.9 892.3,-23.1 	"/>
	<polygon fill="none" stroke="#0F73A2" stroke-width="2" stroke-linejoin="bevel" stroke-miterlimit="10" points="982.6,-21.4 
		961.4,-173.2 892.3,-23.1 	"/>
	<polygon fill="none" stroke="#0F73A2" stroke-width="2" stroke-linejoin="bevel" stroke-miterlimit="10" points="982.6,-22 
		961.4,-173.2 1061.9,-146 	"/>
	<polygon fill="none" stroke="#0F73A2" stroke-width="2" stroke-linejoin="bevel" stroke-miterlimit="10" points="1046.1,-288.9 
		1179.3,-129.3 1061.9,-146 	"/>
	<polygon fill="none" stroke="#0F73A2" stroke-width="2" stroke-linejoin="bevel" stroke-miterlimit="10" points="1046.1,-288.9 
		1179.3,-129.3 1356.4,-393.9 	"/>
	<polygon fill="none" stroke="#0F73A2" stroke-width="2" stroke-linejoin="bevel" stroke-miterlimit="10" points="1289.5,-157.7 
		1179.3,-129.3 1356.4,-393.9 	"/>
	<polygon fill="none" stroke="#0F73A2" stroke-width="2" stroke-linejoin="bevel" stroke-miterlimit="10" points="1289.5,-157.7 
		1179.3,-129.3 1315.8,-46.1 	"/>
	<polygon fill="none" stroke="#0F73A2" stroke-width="2" stroke-linejoin="bevel" stroke-miterlimit="10" points="1289.5,-157.7 
		1386.4,-204.2 1315.8,-46.1 	"/>
	<polygon fill="none" stroke="#0F73A2" stroke-width="2" stroke-linejoin="bevel" stroke-miterlimit="10" points="1529.3,-112.8 
		1386.4,-204.2 1572.6,-275.8 	"/>
	<polygon fill="none" stroke="#0F73A2" stroke-width="2" stroke-linejoin="bevel" stroke-miterlimit="10" points="1529.3,-112.8 
		1593.4,-115 1572.6,-275.8 	"/>
	<polygon fill="none" stroke="#0F73A2" stroke-width="2" stroke-linejoin="bevel" stroke-miterlimit="10" points="1678.4,-170.4 
		1593.4,-115 1572.6,-275.8 	"/>
	<polygon fill="none" stroke="#0F73A2" stroke-width="2" stroke-linejoin="bevel" stroke-miterlimit="10" points="1678.4,-170.4 
		1593.4,-115 1850.6,-87.8 	"/>
	<polygon fill="none" stroke="#0F73A2" stroke-width="2" stroke-linejoin="bevel" stroke-miterlimit="10" points="1677.3,-170.4 
		1847.5,-253 1847.5,-90.2 	"/>
	<path fill="none" stroke="#0F73A2" stroke-width="2" stroke-linejoin="bevel" stroke-miterlimit="10" d="M1179.3-129.3"/>
	<polygon fill="none" stroke="#0F73A2" stroke-width="2" stroke-linejoin="bevel" stroke-miterlimit="10" points="878.2,-174.2 
		961.4,-173.2 892.3,-23.1 	"/>
	<polygon fill="none" stroke="#0F73A2" stroke-width="2" stroke-linejoin="bevel" stroke-miterlimit="10" points="757.5,3.8 
		879.9,143.9 892.3,-22.5 	"/>
	<polygon fill="none" stroke="#0F73A2" stroke-width="2" stroke-linejoin="bevel" stroke-miterlimit="10" points="757.5,3.8 
		762.5,-141.9 892.3,-22.5 	"/>
	<polygon fill="none" stroke="#0F73A2" stroke-width="2" stroke-linejoin="bevel" stroke-miterlimit="10" points="878.2,-174.2 
		762.5,-141.9 892.3,-22.5 	"/>
	<polygon fill="none" stroke="#0F73A2" stroke-width="2" stroke-linejoin="bevel" stroke-miterlimit="10" points="757.5,3.8 
		794.7,135.4 749.2,140.4 	"/>
	<polygon fill="none" stroke="#0F73A2" stroke-width="2" stroke-linejoin="bevel" stroke-miterlimit="10" points="757.5,3.8 
		794.7,135.4 879.9,143.9 	"/>
	<polygon fill="none" stroke="#0F73A2" stroke-width="2" stroke-linejoin="bevel" stroke-miterlimit="10" points="757.5,3.8 
		663.5,59.8 749.2,140.4 	"/>
	<polygon fill="none" stroke="#0F73A2" stroke-width="2" stroke-linejoin="bevel" stroke-miterlimit="10" points="564,-7 
		663.5,59.8 762.5,-141.9 	"/>
	<polygon fill="none" stroke="#0F73A2" stroke-width="2" stroke-linejoin="bevel" stroke-miterlimit="10" points="564,-7 
		512.6,-59.2 762.5,-141.9 	"/>
	<polygon fill="none" stroke="#0F73A2" stroke-width="2" stroke-linejoin="bevel" stroke-miterlimit="10" points="539.6,-245.7 
		512.6,-59.2 605,-137.2 	"/>
	<polygon fill="none" stroke="#0F73A2" stroke-width="2" stroke-linejoin="bevel" stroke-miterlimit="10" points="512.6,-59.2 
		762.5,-141.9 605,-137.2 	"/>
	<polygon fill="none" stroke="#0F73A2" stroke-width="2" stroke-linejoin="bevel" stroke-miterlimit="10" points="597,151.8 
		663.5,59.8 749.2,140.4 	"/>
	<polygon fill="none" stroke="#0F73A2" stroke-width="2" stroke-linejoin="bevel" stroke-miterlimit="10" points="597,151.8 
		663.5,59.8 564,-7 	"/>
	<polygon fill="none" stroke="#0F73A2" stroke-width="2" stroke-linejoin="bevel" stroke-miterlimit="10" points="597,151.8 
		498.8,109.5 564,-7 	"/>
	<polygon fill="none" stroke="#0F73A2" stroke-width="2" stroke-linejoin="bevel" stroke-miterlimit="10" points="512.6,-59.2 
		498.8,109.5 564,-7 	"/>
	<polygon fill="none" stroke="#0F73A2" stroke-width="2" stroke-linejoin="bevel" stroke-miterlimit="10" points="310.8,72.3 
		498.8,109.5 366.6,205 	"/>
	<polygon fill="none" stroke="#0F73A2" stroke-width="2" stroke-linejoin="bevel" stroke-miterlimit="10" points="310.8,72.3 
		498.8,109.5 512.6,-59.2 	"/>
	<polygon fill="none" stroke="#0F73A2" stroke-width="2" stroke-linejoin="bevel" stroke-miterlimit="10" points="310.8,72.3 
		423.1,-46.1 512.6,-59.2 	"/>
	<polygon fill="none" stroke="#0F73A2" stroke-width="2" stroke-linejoin="bevel" stroke-miterlimit="10" points="445.6,-228.3 
		423.1,-46.1 512.6,-59.2 	"/>
	<polygon fill="none" stroke="#0F73A2" stroke-width="2" stroke-linejoin="bevel" stroke-miterlimit="10" points="445.6,-228.3 
		539.6,-245.7 512.6,-59.2 	"/>
	<polygon fill="none" stroke="#0F73A2" stroke-width="2" stroke-linejoin="bevel" stroke-miterlimit="10" points="310.8,72.3 
		423.1,-46.1 335.8,-112.8 	"/>
	<polygon fill="none" stroke="#0F73A2" stroke-width="2" stroke-linejoin="bevel" stroke-miterlimit="10" points="445.6,-228.3 
		423.1,-46.1 335.8,-112.8 	"/>
	<polygon fill="none" stroke="#0F73A2" stroke-width="2" stroke-linejoin="bevel" stroke-miterlimit="10" points="445.6,-228.3 
		248.5,-192.5 335.8,-112.8 	"/>
	<polygon fill="none" stroke="#0F73A2" stroke-width="2" stroke-linejoin="bevel" stroke-miterlimit="10" points="222.7,-46.1 
		248.5,-192.5 335.8,-112.8 	"/>
	<polygon fill="none" stroke="#0F73A2" stroke-width="2" stroke-linejoin="bevel" stroke-miterlimit="10" points="222.7,-46.1 
		248.5,-192.5 62.4,-87.8 	"/>
	<polygon fill="none" stroke="#0F73A2" stroke-width="2" stroke-linejoin="bevel" stroke-miterlimit="10" points="61.6,-342.2 
		248.5,-192.5 62.4,-87.8 	"/>
	<polygon fill="none" stroke="#0F73A2" stroke-width="2" stroke-linejoin="bevel" stroke-miterlimit="10" points="310.8,72.3 
		222.7,-46.1 335.8,-112.8 	"/>
	<polygon fill="none" stroke="#0F73A2" stroke-width="2" stroke-linejoin="bevel" stroke-miterlimit="10" points="310.8,72.3 
		222.7,-46.1 177.7,31.7 	"/>
	<polygon fill="none" stroke="#0F73A2" stroke-width="2" stroke-linejoin="bevel" stroke-miterlimit="10" points="310.8,72.3 
		207.8,199 177.7,31.7 	"/>
	<polygon fill="none" stroke="#0F73A2" stroke-width="2" stroke-linejoin="bevel" stroke-miterlimit="10" points="62.4,-87.8 
		222.7,-46.1 177.7,31.7 	"/>
	<polygon fill="none" stroke="#0F73A2" stroke-width="2" stroke-linejoin="bevel" stroke-miterlimit="10" points="207.8,199 
		62.4,100.2 177.7,31.7 	"/>
	<polyline fill="none" stroke="#0F73A2" stroke-width="2" stroke-linejoin="bevel" stroke-miterlimit="10" points="63.3,182.3 
		208.6,199 63.3,100.2 	"/>
	<polygon fill="none" stroke="#0F73A2" stroke-width="2" stroke-linejoin="bevel" stroke-miterlimit="10" points="207.8,199 
		62.4,311.4 259.2,261.6 	"/>
	<polygon fill="none" stroke="#0F73A2" stroke-width="2" stroke-linejoin="bevel" stroke-miterlimit="10" points="207.8,199 
		366.6,205 259.2,261.6 	"/>
	<polygon fill="none" stroke="#0F73A2" stroke-width="2" stroke-linejoin="bevel" stroke-miterlimit="10" points="597,151.8 
		498.8,109.5 562.9,246.2 	"/>
	<polygon fill="none" stroke="#0F73A2" stroke-width="2" stroke-linejoin="bevel" stroke-miterlimit="10" points="366.6,205 
		498.8,109.5 562.9,246.2 	"/>
	<polygon fill="none" stroke="#0F73A2" stroke-width="2" stroke-linejoin="bevel" stroke-miterlimit="10" points="837.4,186.1 
		794.2,135.4 879.9,143.9 	"/>
	<polygon fill="none" stroke="#0F73A2" stroke-width="2" stroke-linejoin="bevel" stroke-miterlimit="10" points="837.4,186.1 
		794.2,135.4 749.2,140.4 	"/>
	<polygon fill="none" stroke="#0F73A2" stroke-width="2" stroke-linejoin="bevel" stroke-miterlimit="10" points="837.4,186.1 
		678.5,205 749.2,140.4 	"/>
	<polygon fill="none" stroke="#0F73A2" stroke-width="2" stroke-linejoin="bevel" stroke-miterlimit="10" points="597,151.8 
		678.5,205 749.2,140.4 	"/>
	<polygon fill="none" stroke="#0F73A2" stroke-width="2" stroke-linejoin="bevel" stroke-miterlimit="10" points="597,151.8 
		678.5,205 562.9,246.2 	"/>
	<polygon fill="none" stroke="#0F73A2" stroke-width="2" stroke-linejoin="bevel" stroke-miterlimit="10" points="836.9,186.1 
		838.9,474.9 678.2,205 	"/>
	<polygon fill="none" stroke="#0F73A2" stroke-width="2" stroke-linejoin="bevel" stroke-miterlimit="10" points="1356.4,-7 
		1339.8,140.4 1471.2,86.4 	"/>
	<path fill="none" stroke="#0F73A2" stroke-width="2" stroke-linejoin="bevel" stroke-miterlimit="10" d="M1182.6,398.8"/>
	<polygon fill="none" stroke="#0F73A2" stroke-width="2" stroke-linejoin="bevel" stroke-miterlimit="10" points="1220,273.3 
		1086.8,177.8 1212.1,208 	"/>
	<polygon fill="none" stroke="#0F73A2" stroke-width="2" stroke-linejoin="bevel" stroke-miterlimit="10" points="1220,273.3 
		1339.8,140.4 1212.1,208 	"/>
	<polygon fill="none" stroke="#0F73A2" stroke-width="2" stroke-linejoin="bevel" stroke-miterlimit="10" points="1356.4,-7 
		1339.8,140.4 1215.8,48.7 	"/>
	<polygon fill="none" stroke="#0F73A2" stroke-width="2" stroke-linejoin="bevel" stroke-miterlimit="10" points="1086.8,177.8 
		1212.1,208 1339.8,140.4 	"/>
	<polygon fill="none" stroke="#0F73A2" stroke-width="2" stroke-linejoin="bevel" stroke-miterlimit="10" points="1215.8,48.7 
		1086.8,177.8 1339.8,140.4 	"/>
	<polygon fill="none" stroke="#0F73A2" stroke-width="2" stroke-linejoin="bevel" stroke-miterlimit="10" points="1067.8,26.2 
		1086.8,177.8 1215.8,48.7 	"/>
	<polygon fill="none" stroke="#0F73A2" stroke-width="2" stroke-linejoin="bevel" stroke-miterlimit="10" points="1006.3,399.2 
		1182.6,399.2 1060.4,506.5 	"/>
	<polygon fill="none" stroke="#0F73A2" stroke-width="2" stroke-linejoin="bevel" stroke-miterlimit="10" points="1006.3,398.8 
		904.7,561.4 1060.4,506.1 	"/>
	<polygon fill="none" stroke="#0F73A2" stroke-width="2" stroke-linejoin="bevel" stroke-miterlimit="10" points="862.4,676.3 
		904.7,561.4 1060.4,506.1 	"/>
	<polygon fill="none" stroke="#0F73A2" stroke-width="2" stroke-linejoin="bevel" stroke-miterlimit="10" points="1006.3,398.8 
		922.1,351.5 839.3,474.9 	"/>
	<polygon fill="none" stroke="#0F73A2" stroke-width="2" stroke-linejoin="bevel" stroke-miterlimit="10" points="1006.3,398.8 
		904.7,561.4 839.2,474.9 	"/>
	<polygon fill="none" stroke="#0F73A2" stroke-width="2" stroke-linejoin="bevel" stroke-miterlimit="10" points="839.3,474.9 
		904.7,561.4 735.5,546.8 	"/>
	<polygon fill="none" stroke="#0F73A2" stroke-width="2" stroke-linejoin="bevel" stroke-miterlimit="10" points="862.4,676.3 
		904.7,561.4 735.5,546.8 	"/>
	<polygon fill="none" stroke="#0F73A2" stroke-width="2" stroke-linejoin="bevel" stroke-miterlimit="10" points="839.3,474.9 
		646.8,313.3 735.5,546.8 	"/>
	<polygon fill="none" stroke="#0F73A2" stroke-width="2" stroke-linejoin="bevel" stroke-miterlimit="10" points="839.3,474.9 
		646.8,313.3 678.5,205 	"/>
	<polygon fill="none" stroke="#0F73A2" stroke-width="2" stroke-linejoin="bevel" stroke-miterlimit="10" points="562.9,246.2 
		646.8,313.3 678.5,205 	"/>
	<polygon fill="none" stroke="#0F73A2" stroke-width="2" stroke-linejoin="bevel" stroke-miterlimit="10" points="562.9,246.2 
		471.4,271.6 366.6,205 	"/>
	<polygon fill="none" stroke="#0F73A2" stroke-width="2" stroke-linejoin="bevel" stroke-miterlimit="10" points="393.2,299.8 
		471.4,271.6 366.6,205 	"/>
	<polygon fill="none" stroke="#0F73A2" stroke-width="2" stroke-linejoin="bevel" stroke-miterlimit="10" points="393.2,299.8 
		259.2,261.6 366.6,205 	"/>
	<polygon fill="none" stroke="#0F73A2" stroke-width="2" stroke-linejoin="bevel" stroke-miterlimit="10" points="393.2,299.8 
		259.2,261.6 310.8,357.2 	"/>
	<polygon fill="none" stroke="#0F73A2" stroke-width="2" stroke-linejoin="bevel" stroke-miterlimit="10" points="62.4,311.4 
		259.2,261.6 310.8,357.2 	"/>
	<polygon fill="none" stroke="#0F73A2" stroke-width="2" stroke-linejoin="bevel" stroke-miterlimit="10" points="62.4,311.4 
		227.7,506.1 310.8,357.2 	"/>
	<polyline fill="none" stroke="#0F73A2" stroke-width="2" stroke-linejoin="bevel" stroke-miterlimit="10" points="63.3,311.4 
		228.5,506.1 63.3,439 	"/>
	<polyline fill="none" stroke="#0F73A2" stroke-width="2" stroke-linejoin="bevel" stroke-miterlimit="10" points="63.3,557.2 
		228.5,506.1 63.3,439 	"/>
	<polyline fill="none" stroke="#0F73A2" stroke-width="2" stroke-linejoin="bevel" stroke-miterlimit="10" points="63.3,557.2 
		228.5,506.1 63.3,702.3 	"/>
	<polygon fill="none" stroke="#0F73A2" stroke-width="2" stroke-linejoin="bevel" stroke-miterlimit="10" points="226.4,783.5 
		227.7,506.1 62.4,702.3 	"/>
	<polygon fill="none" stroke="#0F73A2" stroke-width="2" stroke-linejoin="bevel" stroke-miterlimit="10" points="226.4,783.5 
		227.7,506.1 297.6,692 	"/>
	<polygon fill="none" stroke="#0F73A2" stroke-width="2" stroke-linejoin="bevel" stroke-miterlimit="10" points="393.2,299.8 
		419,336.4 310.8,357.2 	"/>
	<polygon fill="none" stroke="#0F73A2" stroke-width="2" stroke-linejoin="bevel" stroke-miterlimit="10" points="562.9,246.2 
		471.4,271.6 579.1,449.1 	"/>
	<polygon fill="none" stroke="#0F73A2" stroke-width="2" stroke-linejoin="bevel" stroke-miterlimit="10" points="419,336.4 
		471.4,271.6 579.1,449.1 	"/>
	<polygon fill="none" stroke="#0F73A2" stroke-width="2" stroke-linejoin="bevel" stroke-miterlimit="10" points="419,336.4 
		310.8,357.2 579.1,449.1 	"/>
	<polygon fill="none" stroke="#0F73A2" stroke-width="2" stroke-linejoin="bevel" stroke-miterlimit="10" points="445.6,512.6 
		310.8,357.2 579.1,449.1 	"/>
	<polygon fill="none" stroke="#0F73A2" stroke-width="2" stroke-linejoin="bevel" stroke-miterlimit="10" points="445.6,512.6 
		516.3,542.5 579.1,449.1 	"/>
	<polygon fill="none" stroke="#0F73A2" stroke-width="2" stroke-linejoin="bevel" stroke-miterlimit="10" points="445.6,512.6 
		516.3,542.5 456,643.4 	"/>
	<polygon fill="none" stroke="#0F73A2" stroke-width="2" stroke-linejoin="bevel" stroke-miterlimit="10" points="445.6,512.6 
		355.7,614.2 456,643.4 	"/>
	<polygon fill="none" stroke="#0F73A2" stroke-width="2" stroke-linejoin="bevel" stroke-miterlimit="10" points="445.6,702.3 
		355.7,614.2 456,643.4 	"/>
	<polygon fill="none" stroke="#0F73A2" stroke-width="2" stroke-linejoin="bevel" stroke-miterlimit="10" points="445.6,702.3 
		355.7,614.2 298.5,690.9 	"/>
	<polygon fill="none" stroke="#0F73A2" stroke-width="2" stroke-linejoin="bevel" stroke-miterlimit="10" points="445.6,702.3 
		226.4,783.5 298.5,690.9 	"/>
	<polygon fill="none" stroke="#0F73A2" stroke-width="2" stroke-linejoin="bevel" stroke-miterlimit="10" points="445.6,702.3 
		226.4,783.5 399.1,882.4 	"/>
	<polygon fill="none" stroke="#0F73A2" stroke-width="2" stroke-linejoin="bevel" stroke-miterlimit="10" points="445.6,702.3 
		555.4,793.9 399.1,882.4 	"/>
	<polygon fill="none" stroke="#0F73A2" stroke-width="2" stroke-linejoin="bevel" stroke-miterlimit="10" points="686.8,863 
		555.4,793.8 737.5,723.2 	"/>
	<polygon fill="none" stroke="#0F73A2" stroke-width="2" stroke-linejoin="bevel" stroke-miterlimit="10" points="686.8,863 
		892.3,825.2 737.5,723.2 	"/>
	<polygon fill="none" stroke="#0F73A2" stroke-width="2" stroke-linejoin="bevel" stroke-miterlimit="10" points="1549,884.9 
		1555.2,702.3 1850.6,760.6 	"/>
	<polygon fill="none" stroke="#0F73A2" stroke-width="2" stroke-linejoin="bevel" stroke-miterlimit="10" points="1549,884.9 
		1555.2,702.3 1402.1,760.9 	"/>
	<polygon fill="none" stroke="#0F73A2" stroke-width="2" stroke-linejoin="bevel" stroke-miterlimit="10" points="61.6,702.3 
		226.4,783.5 62.4,981 	"/>
	<polygon fill="none" stroke="#0F73A2" stroke-width="2" stroke-linejoin="bevel" stroke-miterlimit="10" points="227.7,506.1 
		355.7,614.2 297.6,692 	"/>
	<polygon fill="none" stroke="#0F73A2" stroke-width="2" stroke-linejoin="bevel" stroke-miterlimit="10" points="227.7,506.1 
		355.7,614.2 310.8,357.2 	"/>
	<polygon fill="none" stroke="#0F73A2" stroke-width="2" stroke-linejoin="bevel" stroke-miterlimit="10" points="445.6,512.6 
		355.7,614.2 310.8,357.2 	"/>
	<polygon fill="none" stroke="#0F73A2" stroke-width="2" stroke-linejoin="bevel" stroke-miterlimit="10" points="605,580.9 
		516.3,542.5 579.1,449.1 	"/>
	<polygon fill="none" stroke="#0F73A2" stroke-width="2" stroke-linejoin="bevel" stroke-miterlimit="10" points="605,580.9 
		516.3,542.5 456,643.4 	"/>
	<polygon fill="none" stroke="#0F73A2" stroke-width="2" stroke-linejoin="bevel" stroke-miterlimit="10" points="605,580.9 
		686.8,635 579.1,449.1 	"/>
	<polygon fill="none" stroke="#0F73A2" stroke-width="2" stroke-linejoin="bevel" stroke-miterlimit="10" points="419,336.4 
		471.4,271.6 393.2,299.8 	"/>
	<polygon fill="none" stroke="#0F73A2" stroke-width="2" stroke-linejoin="bevel" stroke-miterlimit="10" points="562.9,246.2 
		646.8,313.3 579.1,449.1 	"/>
	<polygon fill="none" stroke="#0F73A2" stroke-width="2" stroke-linejoin="bevel" stroke-miterlimit="10" points="735.5,546.8 
		646.8,313.3 579.1,449.1 	"/>
	<polygon fill="none" stroke="#0F73A2" stroke-width="2" stroke-linejoin="bevel" stroke-miterlimit="10" points="735.5,546.8 
		686.8,635 579.1,449.1 	"/>
	<polygon fill="none" stroke="#0F73A2" stroke-width="2" stroke-linejoin="bevel" stroke-miterlimit="10" points="879.9,143.9 
		837.4,186.1 922.1,351.5 	"/>
	<polygon fill="none" stroke="#0F73A2" stroke-width="2" stroke-linejoin="bevel" stroke-miterlimit="10" points="836.9,186.1 
		838.9,474.9 921.6,351.5 	"/>
	<polygon fill="none" stroke="#0F73A2" stroke-width="2" stroke-linejoin="bevel" stroke-miterlimit="10" points="879.9,143.9 
		922.1,351.5 1086.8,270 	"/>
</g>
</svg>
