<?xml version="1.0" encoding="utf-8"?>
<!-- Generator: Adobe Illustrator 18.1.1, SVG Export Plug-In . SVG Version: 6.00 Build 0)  -->
<!DOCTYPE svg PUBLIC "-//W3C//DTD SVG 1.1//EN" "http://www.w3.org/Graphics/SVG/1.1/DTD/svg11.dtd">
<svg version="1.1" id="Warstwa_1" xmlns="http://www.w3.org/2000/svg" xmlns:xlink="http://www.w3.org/1999/xlink" x="0px" y="0px"
	 width="500px" height="500px" viewBox="0 0 500 500" enable-background="new 0 0 500 500" xml:space="preserve">
<path fill="#FFFFFF" d="M395.9,159.5c-10.8,4.8-22.3,8-34.4,9.4c12.4-7.4,21.9-19.1,26.4-33.1c-11.6,6.8-24.4,11.8-38.1,14.5
	c-10.9-11.6-26.5-18.9-43.7-18.9c-33.1,0-59.9,26.8-59.9,59.9c0,4.7,0.5,9.3,1.6,13.7c-49.8-2.6-93.9-26.4-123.5-62.6
	c-5.1,8.9-8.1,19.1-8.1,30.1c0,20.8,10.6,39.1,26.7,49.8c-9.8-0.3-19-3-27.1-7.5c0,0.2,0,0.5,0,0.7c0,29,20.6,53.2,48,58.7
	c-5,1.4-10.4,2.1-15.8,2.1c-3.8,0-7.6-0.4-11.3-1.1c7.6,23.8,29.8,41.1,55.9,41.6c-20.5,16-46.3,25.6-74.4,25.6
	c-4.8,0-9.6-0.3-14.3-0.9c26.5,17,58,26.9,91.8,26.9c110.2,0,170.4-91.3,170.4-170.4c0-2.6-0.1-5.2-0.2-7.8
	C377.7,182,387.9,171.5,395.9,159.5z"/>
</svg>
