<?xml version="1.0" encoding="utf-8"?>
<!-- Generator: Adobe Illustrator 18.1.1, SVG Export Plug-In . SVG Version: 6.00 Build 0)  -->
<!DOCTYPE svg PUBLIC "-//W3C//DTD SVG 1.1//EN" "http://www.w3.org/Graphics/SVG/1.1/DTD/svg11.dtd">
<svg version="1.1" id="Warstwa_1" xmlns="http://www.w3.org/2000/svg" xmlns:xlink="http://www.w3.org/1999/xlink" x="0px" y="0px"
	 width="500px" height="500px" viewBox="0 0 500 500" enable-background="new 0 0 500 500" xml:space="preserve">
<g>
	<path fill="#FFFFFF" d="M386.2,173.6l-46.3,162c-3.7,12.8-15.5,21.8-28.6,21.8h-0.6c-13.7,0-25.2-9-28.3-21.8l-31.4-122.5
		l-31.1,122.5c-3.1,12.8-15.2,21.8-28,21.8h-0.6c-13.4,0-25.2-9-28.9-21.8l-46.6-162.3c-0.6-1.9-0.9-4-0.9-5.9
		c0-11.8,9.6-23,23.6-23c10.6,0,20.2,7.2,23,18l33,135.6l35.5-135.6c2.5-9.3,11.2-16.2,21.8-16.2c9.6,0,18,6.8,20.5,16.2L307.5,298
		l32.3-135.3c2.5-10.9,12.4-18.3,23.6-18.3c14,0,23.6,10.9,23.6,23C387.1,169.5,386.8,171.7,386.2,173.6z"/>
</g>
</svg>
