<?xml version="1.0" encoding="utf-8"?>
<!-- Generator: Adobe Illustrator 18.1.1, SVG Export Plug-In . SVG Version: 6.00 Build 0)  -->
<svg version="1.1" id="Warstwa_1" xmlns="http://www.w3.org/2000/svg" xmlns:xlink="http://www.w3.org/1999/xlink" x="0px" y="0px"
	 viewBox="0 0 500 500" enable-background="new 0 0 500 500" xml:space="preserve">
<path fill="#00263D" d="M110,327.4c0.3-1.8,0.6-3.5,0.9-5.3c1.1-6.4,3.1-12.5,6-18.3c3.8-7.8,9-14.5,15.5-20.2
	c5.6-5.1,12-9,18.9-11.9c5.1-2.2,10.4-3.6,15.9-4.4c3.2-0.5,6.4-0.7,9.6-0.7c21.9-0.1,43.8,0,65.7,0c0.5,0,1.1,0,1.7,0
	c0,0.7,0,1.2,0,1.7c0,22.3,0.1,44.7-0.1,67c-0.1,10.2-2.7,19.9-7.3,29c-3.8,7.5-8.9,14-15.2,19.6c-8.3,7.4-18,12.4-28.8,15.1
	c-6.9,1.7-13.9,2.1-20.9,1.6c-11.8-0.8-22.6-4.7-32.4-11.3c-9.8-6.6-17.3-15.3-22.6-25.8c-3.2-6.4-5.4-13.2-6.3-20.4
	c-0.1-1.1-0.4-2.2-0.5-3.3C110,335.7,110,331.6,110,327.4z M215.3,294.1c-0.5,0-0.9-0.1-1.3-0.1c-12.2,0-24.3-0.1-36.5,0
	c-3.2,0-6.4,0.4-9.5,1.1c-11.3,2.7-19.6,9.4-25.1,19.5c-4.3,8-5.7,16.5-4.2,25.5c1.4,8.4,5,15.7,11,21.7c6.6,6.6,14.6,10.5,24,11.3
	c4.4,0.4,8.6-0.1,12.8-1.2c8.5-2.2,15.3-7,20.6-13.9c5.1-6.6,8-14.2,8.1-22.6c0.1-13.3,0.1-26.6,0.1-39.9
	C215.4,295.2,215.4,294.7,215.3,294.1z"/>
<path fill="#FFA70C" d="M110,181.7c0.3-1.7,0.6-3.4,0.9-5.1c1.7-10.6,5.8-20.2,12.2-28.7c9.1-12.1,20.9-20.5,35.5-24.6
	c4.3-1.2,8.7-1.9,13.1-2.3c16.7-1.5,31.8,3,45.3,12.9c12.9,9.5,21.2,22.1,25.2,37.6c1.5,5.8,2.1,11.7,2.1,17.7c0,21.2,0,42.4,0,63.6
	c0,0.6,0,1.2,0,1.9c-0.6,0-1.2,0-1.7,0c-23.2,0-46.4,0.1-69.6-0.1c-7.3-0.1-14.3-2-21.1-4.7c-8.5-3.5-16.1-8.5-22.5-15.1
	c-9.3-9.6-15.5-20.9-18-34.2c-0.4-2.3-0.8-4.7-1.2-7C110,189.7,110,185.7,110,181.7z M215.5,227.5c0-0.7,0.1-1.2,0.1-1.7
	c0-12.4,0-24.8,0-37.2c0-2.5-0.1-4.9-0.5-7.4c-1.8-9.9-6.4-18.2-14.2-24.5c-9.4-7.6-20.2-10.1-31.9-7.7c-9.2,1.9-16.8,6.8-22.5,14.4
	c-7.2,9.5-9.6,20.3-7.5,32c1.8,9.5,6.5,17.4,14,23.6c6.7,5.4,14.3,8.4,22.9,8.5c12.6,0.2,25.2,0.1,37.8,0.1
	C214.2,227.5,214.8,227.5,215.5,227.5z"/>
<path fill="#00263D" d="M390.4,253.8c-0.6,0-1.2,0.1-1.8,0.1c-8.3,0-16.5,0-24.8,0c-0.5,0-1,0-1.6,0c0-0.6-0.1-1-0.1-1.4
	c0-3.7,0.1-7.3,0-11c-0.4-8.9-2.2-17.5-7.7-24.9c-3.6-4.8-8.3-8.5-13.7-10.9c-4.3-1.9-8.8-3.3-13.3-4.5c-2-0.6-4.3-0.3-6.5-0.3
	c-11.9,0.1-23.7,0.2-35.6,0.3c-0.2,0-0.5,0-0.9,0.1c0,9,0,17.9,0,26.9c-5.5,0.6-11.1,0.7-15.7,3.8c-4.5,3-8.6,6.7-12.8,10
	c0-0.1-0.1-0.4-0.1-0.8c0-50.6,0-101.3,0-151.9c0-0.4,0-0.8,0-1.2c1.9,0,3.8,0,5.6,0c0.9,0.2,1.8,0.4,2.7,0.6c5.8,1.3,10.5,4.1,14,9
	c4.5,6.4,6,13.7,6.1,21.3c0.2,17.9,0.1,35.8,0.1,53.7c0,0.6,0,1.2,0,1.9c0.6,0,1.1,0,1.6,0c13,0,25.9,0,38.9,0
	c1.9,0,3.8-0.2,5.7-0.4c9.6-1.2,17-6.1,22.4-14c6.5-9.6,8.6-20.5,9.1-31.8c0.1-2.2,0-4.4,0-6.6c9.5,0,18.9,0,28.2,0
	c0,4.8,0,9.7,0,14.5c-0.1,0.2-0.2,0.4-0.3,0.6c-0.8,5.3-1.3,10.7-2.5,15.9c-2.2,9.9-6.5,18.8-13.6,26.1c-3.2,3.3-6.9,6.1-10.3,9.1
	c0,0,0.3,0.2,0.6,0.4c5.7,3.7,10.6,8.3,14.4,13.9c6.8,9.8,9.9,20.9,11.1,32.7c0.1,1.5,0.4,3,0.6,4.5
	C390.4,244.3,390.4,249.1,390.4,253.8z"/>
<path fill="#00263D" d="M257.5,402.2c0-19.4,0-38.9,0-58.3c0-14.1,0-28.3,0-42.4c0-0.6,0-1.2,0-1.9c11.3-0.4,20.6-4.5,27.5-13.7
	c0.1,0.4,0.2,0.7,0.2,1c0,29.9,0.1,59.7-0.1,89.6c0,7.5-3.5,13.8-9.1,18.8c-4,3.6-8.7,5.9-14.1,6.6c-0.1,0-0.1,0.1-0.2,0.2
	C260.3,402.2,258.9,402.2,257.5,402.2z"/>
<path fill="#00263D" d="M362,347.9c0-26.8,0-53.5,0-80.3c9.2,0,18.4,0,27.8,0c0,0.6,0,1.2,0,1.8c0,17.4-0.1,34.8-0.1,52.2
	c0,10.7-7.6,21.1-18.1,24.8C368.4,347.5,365.4,348.2,362,347.9z"/>
<path fill="#FFA70C" d="M257.2,290.4c0-0.8,0-1.2,0-1.7c0-8.3,0-16.5,0-24.8c0-11.4,7.9-21.6,18.4-25.2c4.3-1.4,6.5-1.7,9.2-1.3
	c0,0.5,0,1,0,1.6c0,7.9,0,15.8,0,23.7c0.1,13.6-9.7,25.2-23.2,27.3C260.2,290.2,258.9,290.3,257.2,290.4z"/>
</svg>
