<?xml version="1.0" encoding="utf-8"?>
<!-- Generator: Adobe Illustrator 18.1.1, SVG Export Plug-In . SVG Version: 6.00 Build 0)  -->
<svg version="1.0" id="Warstwa_1" xmlns="http://www.w3.org/2000/svg" xmlns:xlink="http://www.w3.org/1999/xlink" x="0px" y="0px"
	 width="500px" height="500px" viewBox="0 0 500 500" enable-background="new 0 0 500 500" xml:space="preserve">
<path id="path4042" sodipodi:nodetypes="ccccccscccccccccccccccccccccc" fill="#F84422" stroke="#F84422" stroke-width="0.5" stroke-linecap="round" stroke-linejoin="round" d="
	M311.7,187.4c-4.5,0.1-8.8,1.9-11.8,5.2c-0.4,5.6,0,10.4-0.4,15.9c2.2,2.9,4.4,5.8,6.5,8.7c3,0.6,4.6-0.2,3.4-3.4
	c-0.9-1.8-1.6-5,1.5-3.6l4.9,3.1c2.2,1.4,1,5.5,2,7.2l-3.8,9.6c4,4.6,5.4,7.4,8.8,12.6c4.5-2.9,2.6-3.2,1-5.5
	c-2.8-3.1-5.4-3.4-6.4-7.1l3.4-5.8c7.8,1.1,14.5,0.2,22.2,1.5c3,2.2,7.7,5.7,10.4,8.3c2.9,5.6,5.9,11.2,8.8,16.7
	c3.7,0.1,2.3-2.3,1.1-4.5c-2.2-5.3-5.1-10.4-7-15.9c-0.3-3.3-1.8-6.6-0.1-9.8c1-1.5,0.5-5.4,3-4.8c3.9,1.1,2.3-0.4-0.4-1.4
	c-5.7-2-11.1-5-17.2-5.4c-5.2-1-12.3,0.8-17.4-0.6c-6.1-2.9-8.5-5.5-14.2-9.1c-0.2-1.8,3.9-4.9-0.2-3.1c-2.6,1.3-4.9-1.1-7.3-1.9
	c-0.8-1.9,1.9-2.7,3.1-3.6c4.3-2.4,10.1-2.7,14.4-1.9C317.4,187.8,314.6,187.3,311.7,187.4z"/>
<path id="path4044" sodipodi:nodetypes="ccccccscccccccccccccccccccccc" fill="#F84422" stroke="#F84422" stroke-width="0.6937" stroke-linecap="round" stroke-linejoin="round" d="
	M444.4,147.7c4.5,0.1,8.8,1.9,11.8,5.2c0.4,5.6,0,10.4,0.4,15.9c-2.2,2.9-4.4,5.8-6.5,8.7c-3,0.6-4.6-0.2-3.4-3.4
	c0.9-1.8,1.6-5-1.5-3.6l-4.9,3.1c-2.2,1.4-1,5.5-2,7.2l3.8,9.6c-4,4.6-5.4,7.4-8.8,12.6c-4.5-2.9-2.6-3.2-1-5.5
	c2.8-3.1,5.4-3.4,6.4-7.1l-3.4-5.8c-7.8,1.1-14.5,0.2-22.2,1.5c-3,2.2-7.7,5.7-10.4,8.3c-2.9,5.6-5.9,11.2-8.8,16.7
	c-3.7,0.1-2.3-2.3-1.1-4.5c2.2-5.3,5.1-10.4,7-15.9c0.3-3.3,1.8-6.6,0.1-9.8c-1-1.5-0.5-5.4-3-4.8c-3.9,1.1-2.3-0.4,0.4-1.4
	c5.7-2,11.1-5,17.2-5.4c5.2-1,12.3,0.8,17.4-0.6c6.1-2.9,8.5-5.5,14.2-9.1c0.2-1.8-3.9-4.9,0.2-3.1c2.6,1.3,4.9-1.1,7.3-1.9
	c0.8-1.9-1.9-2.7-3.1-3.6c-4.3-2.4-10.1-2.7-14.4-1.9C438.7,148.1,441.5,147.6,444.4,147.7z"/>
<path id="path4046" sodipodi:nodetypes="csccc" fill="#F84422" d="M399.3,191.3c-1.5,21.8-6.7,23.7-17.1,33.8
	c-21.9,21.5-13.3,28.7-2.2,49.7c-10.5-5.5-26-22.5-16.2-41.1C368.1,226.3,387.4,214,399.3,191.3z"/>
<path id="path4048" sodipodi:nodetypes="czczc" fill="#F84422" d="M414.9,217.1c-27.8,12.6-34.3,19.1-33.9,32.6
	c0.5,13.5,16.2,9.3,6.8,28.7c21.7-20.7,2-21.3,2.3-33.2C390.4,233.5,396.7,231.6,414.9,217.1z"/>
<path id="path4050" sodipodi:nodetypes="ccc" fill="#3F6CB9" d="M419.5,275.4c24.8-12.1,36.8,26-3.8,30
	C442.4,293.8,438.9,275,419.5,275.4z"/>
<path id="path4052" sodipodi:nodetypes="ccc" fill="#3F6CB9" d="M358.5,275.1c-47.7,15.4,33.7,11.8,56.2,7.3
	C390.2,295.4,280.7,288.7,358.5,275.1z"/>
<path id="path4054" sodipodi:nodetypes="cccc" fill="#3F6CB9" d="M352.4,293.8c-7.1,8.5,28.8,9.8,50.7,3.8l4.2,5.8
	C382.1,311.3,326.7,305.9,352.4,293.8z"/>
<path id="path4056" sodipodi:nodetypes="cccc" fill="#3F6CB9" d="M355.5,312.7c-7.1,8.5,26.4,7.6,44.5,5.1l5.8,6.5
	C382.7,332.1,332.9,325,355.5,312.7z"/>
<path id="path4058" sodipodi:nodetypes="ccc" fill="#3F6CB9" d="M341.5,325.2c-44.7,14.9,90.5,21.8,94.2-0.7
	C445.2,354.5,258.8,340.9,341.5,325.2z"/>
<path id="path4060" sodipodi:nodetypes="ccc" fill="#3F6CB9" d="M346.5,346.2c19,3.9,68.3,4.1,95.3-10.6
	C423.8,355.4,358.6,354.3,346.5,346.2z"/>
<path id="text4088" fill="#3F6CB9" d="M55.2,313.7v18.2h-8.8v-49.3c5.9-0.2,9.3-0.4,10.3-0.4c7.8,0,13.5,1.2,17.1,3.6
	c3.6,2.4,5.4,6.1,5.4,11.2c0,11.3-6.7,17-20.1,17C58.2,313.9,56.9,313.9,55.2,313.7 M55.2,290.1v15.8c1.5,0.2,2.7,0.2,3.5,0.2
	c4,0,6.9-0.7,8.8-2c1.8-1.3,2.8-3.5,2.8-6.5c0-5.1-4.1-7.7-12.4-7.7C57,290,56.1,290,55.2,290.1 M80.9,313.7c0-5.5,1.6-10,4.8-13.4
	c3.2-3.5,7.4-5.2,12.6-5.2c5.5,0,9.8,1.7,12.8,5c3,3.3,4.6,7.9,4.6,13.6c0,5.7-1.6,10.3-4.7,13.7c-3.1,3.4-7.3,5.1-12.7,5.1
	c-5.5,0-9.8-1.7-12.8-5.1C82.4,324,80.9,319.4,80.9,313.7 M89.6,313.7c0,8,2.9,11.9,8.6,11.9c2.6,0,4.7-1,6.2-3.1
	c1.6-2.1,2.3-5,2.3-8.8c0-7.8-2.9-11.8-8.6-11.8c-2.6,0-4.7,1-6.3,3.1C90.4,307.2,89.6,310,89.6,313.7 M119.9,331.9V329l19.6-25.9
	h-19.3v-7.3h31.6v3l-18.9,25.8H152v7.3H119.9 M182,331.9V311c0-3.1-0.6-5.3-1.8-6.7c-1.2-1.4-3.1-2.1-5.8-2.1c-1.2,0-2.6,0.3-4,1
	c-1.4,0.7-2.5,1.6-3.3,2.6v26.1h-8.4v-36.1h6.1l1.6,3.4c2.3-2.7,5.7-4,10.2-4c4.3,0,7.7,1.3,10.2,3.9c2.5,2.6,3.7,6.1,3.7,10.7v22.1
	H182 M219.7,328.3c-0.8,1.3-2.1,2.3-4,3.1c-1.9,0.8-3.9,1.2-5.9,1.2c-3.9,0-7-1-9.2-2.9c-2.2-2-3.3-4.7-3.3-8.3
	c0-4.2,1.6-7.4,4.7-9.8c3.2-2.4,7.6-3.5,13.4-3.5c1,0,2.2,0.2,3.5,0.5c0-4.2-2.7-6.4-8.1-6.4c-3.2,0-5.8,0.5-8,1.6l-1.8-6.5
	c2.9-1.4,6.4-2.1,10.4-2.1c5.5,0,9.6,1.3,12.1,3.8c2.6,2.5,3.8,7.2,3.8,14.2v7.7c0,4.8,1,7.8,2.9,9.1c-0.7,1.2-1.5,2-2.3,2.2
	c-0.9,0.3-1.8,0.4-2.9,0.4c-1.2,0-2.3-0.4-3.3-1.3C220.7,330.3,220.1,329.3,219.7,328.3 M218.9,314.9c-1.4-0.3-2.5-0.4-3.2-0.4
	c-6.7,0-10,2.2-10,6.5c0,3.2,1.9,4.9,5.6,4.9c5.1,0,7.6-2.5,7.6-7.6V314.9 M259.7,331.9V311c0-3.1-0.6-5.3-1.8-6.7
	c-1.2-1.4-3.1-2.1-5.8-2.1c-1.2,0-2.6,0.3-4,1c-1.4,0.7-2.5,1.6-3.3,2.6v26.1h-8.4v-36.1h6.1l1.6,3.4c2.3-2.7,5.7-4,10.2-4
	c4.3,0,7.7,1.3,10.2,3.9c2.5,2.6,3.7,6.1,3.7,10.7v22.1H259.7 M262.2,281.1l-7.6,9.9h-6.4l5.7-9.9H262.2"/>
<path id="text4092" fill="#F84422" d="M43.4,248.9h13.7c1.3,5,5.5,7.5,12.6,7.5c5,0,8.6-1.6,10.6-4.9c2.1-3.3,3.1-8.2,3.1-14.8
	v-54.1h15.3v53.6c0,11.5-2.4,20-7.3,25.5c-4.9,5.5-12.7,8.3-23.5,8.3c-7.2,0-12.9-1.9-17.3-5.6C46.2,260.7,43.8,255.5,43.4,248.9
	 M115.6,182.6H131V241c0,4.6,1.4,8.4,4.2,11.3c2.8,2.9,6.7,4.4,11.7,4.4c5.5,0,9.9-1.4,12.9-4.2c3.1-2.9,4.7-6.8,4.7-11.7v-58.2
	h15.3v59.4c0,8.9-3,15.8-9,20.8c-5.9,5-13.9,7.5-23.8,7.5c-10,0-17.8-2.5-23.2-7.4c-5.4-4.9-8.1-11.9-8.1-21.1V182.6 M261.4,189.6
	l-6.4,12.3c-1.8-1.6-4.6-3.2-8.4-4.8c-3.8-1.6-7-2.4-9.7-2.4c-8.5,0-15.2,2.9-20.1,8.7c-4.9,5.7-7.4,13.4-7.4,23.1
	c0,9.2,2.4,16.5,7.2,22c4.8,5.5,11.4,8.2,19.7,8.2c5.5,0,10-1.5,13.5-4.5v-17h-12v-13.1h27.3v38.6c-3.7,3-8.4,5.3-14.2,7
	c-5.7,1.6-11.5,2.5-17.2,2.5c-12.4,0-22.2-4-29.5-12.1c-7.2-8.1-10.9-18.8-10.9-32.1c0-13.3,4-24.1,11.9-32.4
	c7.9-8.3,18.5-12.5,31.9-12.5C246.7,181.1,254.7,183.9,261.4,189.6"/>
</svg>
