<?xml version="1.0" encoding="UTF-8" standalone="no"?>
<!-- Created with Inkscape (http://www.inkscape.org/) -->

<svg
   xmlns:dc="http://purl.org/dc/elements/1.1/"
   xmlns:cc="http://creativecommons.org/ns#"
   xmlns:rdf="http://www.w3.org/1999/02/22-rdf-syntax-ns#"
   xmlns:svg="http://www.w3.org/2000/svg"
   xmlns="http://www.w3.org/2000/svg"
   version="1.1"
   width="389.76376"
   height="177.16534"
   id="svg3151">
  <defs
     id="defs3153" />
  <metadata
     id="metadata3156">
    <rdf:RDF>
      <cc:Work
         rdf:about="">
        <dc:format>image/svg+xml</dc:format>
        <dc:type
           rdf:resource="http://purl.org/dc/dcmitype/StillImage" />
        <dc:title></dc:title>
      </cc:Work>
    </rdf:RDF>
  </metadata>
  <g
     transform="translate(0,-875.19685)"
     id="layer1">
    <g
       id="text3132"
       style="font-size:60.72965622px;font-style:oblique;font-variant:normal;font-weight:bold;font-stretch:normal;line-height:125%;letter-spacing:0px;word-spacing:0px;fill:#000000;fill-opacity:1;stroke:none;font-family:Verdana;-inkscape-font-specification:Verdana Bold Oblique">
      <path
         d="m 193.04783,939.69905 -10.67514,46.14031 -10.73444,0 0.80064,-3.46942 c -1.028,0.65237 -1.93242,1.24049 -2.71327,1.76436 -0.78088,0.52387 -1.64577,1.00326 -2.59465,1.43818 -0.88961,0.39537 -1.76438,0.6919 -2.6243,0.88959 -0.85996,0.19769 -1.89288,0.29653 -3.09876,0.29653 -3.22232,0 -5.79719,-1.04774 -7.72464,-3.14323 -1.92746,-2.09549 -2.89119,-5.07068 -2.89119,-8.9256 0,-3.16299 0.50905,-6.13324 1.52714,-8.91077 1.01809,-2.77749 2.41673,-5.23376 4.19592,-7.36881 1.73965,-2.07569 3.7956,-3.72638 6.16786,-4.95208 2.37223,-1.22563 4.85321,-1.83846 7.44294,-1.83849 1.8187,3e-5 3.4002,0.18289 4.7445,0.54858 1.34425,0.36576 2.72807,0.93411 4.15145,1.70506 l 3.2915,-14.17421 z m -15.5086,20.60894 c -0.57332,-0.27674 -1.32454,-0.52879 -2.25364,-0.75615 -0.92916,-0.22732 -1.74956,-0.34099 -2.46121,-0.34102 -1.70014,3e-5 -3.23222,0.37564 -4.59624,1.12682 -1.36406,0.75124 -2.52054,1.77922 -3.46942,3.08393 -0.85007,1.16638 -1.52221,2.65398 -2.01641,4.4628 -0.49424,1.80886 -0.74135,3.55345 -0.74133,5.23378 -2e-5,1.99666 0.46455,3.44966 1.39369,4.35902 0.92912,0.90937 2.34259,1.36405 4.24041,1.36404 0.96865,10e-6 1.99168,-0.21745 3.0691,-0.65237 1.07737,-0.4349 2.1004,-0.94889 3.0691,-1.54196 z"
         id="path3175" />
      <path
         d="m 210.83972,952.53887 -7.70982,33.30049 -10.73444,0 7.70982,-33.30049 z m 3.26185,-12.83982 -1.86815,8.09531 -11.32751,0 1.86815,-8.09531 z"
         id="path3177" />
      <path
         d="m 248.262,985.83936 -34.66454,0 1.69023,-7.29468 c 3.28161,-2.09548 6.36553,-4.16131 9.25178,-6.19751 2.88623,-2.03617 5.32767,-3.86478 7.32433,-5.48583 3.08391,-2.49085 5.34743,-4.72966 6.79057,-6.71644 1.4431,-1.98673 2.16466,-3.88948 2.16468,-5.70823 -2e-5,-1.71985 -0.57332,-2.98999 -1.71988,-3.81043 -1.14661,-0.82037 -2.72811,-1.23057 -4.7445,-1.23061 -2.05597,4e-5 -4.15146,0.35093 -6.28647,1.05269 -2.13504,0.70182 -4.17122,1.68532 -6.10855,2.95049 l -0.9489,0 2.19433,-9.8152 c 1.46288,-0.59302 3.66709,-1.20091 6.61266,-1.82367 2.94552,-0.62267 5.73291,-0.93402 8.36218,-0.93407 4.76425,5e-5 8.41158,0.87975 10.94202,2.63913 2.53036,1.75946 3.79556,4.37882 3.7956,7.85809 -4e-5,3.59794 -0.94894,6.77577 -2.8467,9.53348 -1.89784,2.75777 -4.91257,5.76756 -9.04421,9.02939 -2.03621,1.60128 -3.97849,3.03452 -5.82685,4.29971 -1.8484,1.26521 -3.45461,2.33272 -4.81863,3.20254 l 19.83795,0 z"
         id="path3179" />
      <path
         d="m 294.43195,975.66832 -6.01959,0 -2.37225,10.28965 -10.88271,0 2.37226,-10.28965 -21.37993,0 1.92746,-8.36218 26.56922,-25.62033 11.59438,0 -5.96028,25.91686 6.01959,0 z m -15.03415,-8.06565 3.61769,-15.65687 -16.16097,15.65687 z"
         id="path3181" />
      <path
         d="m 311.03772,985.83936 -11.14959,0 2.66878,-11.65369 11.14959,0 z"
         id="path3183" />
      <path
         d="m 360.76606,963.18435 c -4e-5,3.06418 -0.4992,6.03443 -1.49748,8.91077 -0.99836,2.87637 -2.35746,5.3524 -4.07731,7.42811 -1.79899,2.19434 -3.83023,3.90434 -6.09372,5.13 -2.26355,1.22566 -4.79889,1.83849 -7.60604,1.83849 -1.7792,0 -3.41507,-0.20263 -4.90759,-0.60788 -1.49256,-0.40526 -2.84178,-0.97362 -4.04766,-1.70506 l -3.20254,13.87767 -10.73444,0 10.52687,-45.51758 10.73444,0 -0.80063,3.46941 c 2.01639,-1.38378 3.87959,-2.46118 5.58962,-3.23219 1.70997,-0.77095 3.60283,-1.15644 5.67857,-1.15647 3.36066,3e-5 5.94048,1.02306 7.73948,3.0691 1.79891,2.0461 2.69839,4.87797 2.69843,8.49563 z m -13.90733,11.68334 c 0.85003,-1.24542 1.5024,-2.70337 1.95711,-4.37384 0.45466,-1.67044 0.682,-3.48423 0.68203,-5.44135 -3e-5,-1.79894 -0.39541,-3.17781 -1.18613,-4.13662 -0.79078,-0.95876 -2.20424,-1.43815 -4.2404,-1.43818 -1.04777,3e-5 -2.07574,0.18289 -3.08393,0.54859 -1.00823,0.36574 -2.07574,0.84514 -3.20254,1.43817 l -3.85491,16.75404 c 0.63259,0.27677 1.36897,0.48928 2.20916,0.63754 0.84016,0.14827 1.70504,0.2224 2.59465,0.2224 1.79894,0 3.39032,-0.38549 4.77416,-1.15648 1.38379,-0.77097 2.50072,-1.78906 3.3508,-3.05427 z"
         id="path3185" />
      <path
         d="m 385.31886,939.69905 -10.67513,46.14031 -10.73444,0 10.67513,-46.14031 z"
         id="path3187" />
    </g>
    <path
       d="m 26.256973,1025.1998 c -12.227749,0 -22.147282,-9.911 -22.147282,-22.1472 l 0,-78.7337 c 0,-12.22816 9.911479,-22.14723 22.147282,-22.14723 l 89.049757,0 c 12.22775,0 22.14678,9.91098 22.14678,22.14723 l 0,78.7337 c 0,12.2282 -9.91097,22.1472 -22.14678,22.1472 l -89.049757,0 z"
       id="path2830"
       style="fill:#d40000;stroke:none" />
    <path
       d="m 116.4178,966.8888 c 0.20286,14.05821 -9.65107,26.25004 -21.28959,33.09673 -10.621288,6.25687 -22.975991,9.17277 -35.186719,10.08207 -4.459763,0.013 -9.360557,0.446 -13.424501,-1.6478 -5.039197,-3.2406 -6.355186,-10.16107 -4.23775,-15.51428 4.168232,-15.3941 14.49595,-27.93843 21.77041,-41.86843 1.307063,-2.79994 6.20356,-7.45486 -0.01269,-8.6169 -14.650186,-1.63981 -28.138828,-1.08493 -41.506754,3.24267 -2.043518,0.86106 -10.772475,2.43122 -5.525428,-1.17634 9.712943,-6.84772 21.333527,-10.80944 33.06337,-12.37041 18.247899,-2.1281 37.914778,0.98831 53.037322,11.93668 7.25201,5.36843 13.50611,13.38401 13.31232,22.83601 z m -12.79712,6.27718 c 0.01,-10.16539 -7.46268,-18.74023 -16.226101,-23.01849 -3.484254,-1.83836 -9.496879,-4.84371 -11.586224,-1.6787 -8.482888,12.57085 -13.89887,26.73683 -17.309379,41.4386 -1.666154,4.77237 -1.426885,12.97991 5.56038,12.32251 10.703152,0.5317 21.444734,-3.60738 29.730547,-10.25475 5.556477,-4.62667 10.043537,-11.32461 9.830777,-18.80911 z"
       id="path2832"
       style="fill:#ffffff;stroke:none" />
    <path
       d="m 100.1404,922.20927 c -0.0194,2.29962 -1.61004,4.2313 -3.34487,5.57557 -2.28939,1.72645 -5.097683,2.90494 -7.993261,2.92366 -1.418631,0.0273 -2.862331,-0.71117 -3.476644,-2.02854 -0.973992,-2.01904 -0.862699,-4.3329 -0.771678,-6.51446 0.04736,-1.63176 0.277723,-3.34754 1.291277,-4.68722 1.551505,-2.11822 4.277919,-2.98538 6.803438,-3.09508 2.274308,-0.0887 4.723248,0.7225 6.059878,2.66177 1.06474,1.49047 1.43193,3.36279 1.43186,5.1643 z"
       id="path2848"
       style="fill:#ffffff;fill-rule:evenodd;stroke:none" />
  </g>
</svg>
