<?xml version="1.0" encoding="utf-8"?>
<!-- Generator: Adobe Illustrator 18.1.1, SVG Export Plug-In . SVG Version: 6.00 Build 0)  -->
<svg version="1.1" id="Warstwa_1" xmlns="http://www.w3.org/2000/svg" xmlns:xlink="http://www.w3.org/1999/xlink" x="0px" y="0px"
	 width="500px" height="500px" viewBox="0 0 500 500" enable-background="new 0 0 500 500" xml:space="preserve">
<rect x="77.5" y="77.5" fill="#D83216" stroke="#000000" stroke-miterlimit="10" width="345" height="345"/>
<g id="j9F29r_2_">
	<g>
		<path fill-rule="evenodd" clip-rule="evenodd" fill="#E8E562" d="M170.2,191h32.2v32.2H170c0,0,0-21.2,0-31.8
			C170,191.2,170.2,191,170.2,191z"/>
		<rect x="202.3" y="223.1" fill-rule="evenodd" clip-rule="evenodd" fill="#6B9CD1" width="32.3" height="32.3"/>
		<g>
			<rect x="137.9" y="126.4" fill="#DA73A8" width="32.2" height="64.5"/>
			<rect x="170" y="94.3" fill="#6AB547" width="64.5" height="32.2"/>
		</g>
		<g>
			<polygon fill="#6B9CD1" points="331.3,94.3 266.8,94.3 266.8,126.4 331.2,126.4 			"/>
			<polygon fill="#FFFFFF" points="234.6,158.6 266.8,158.5 266.8,126.4 234.6,126.4 			"/>
		</g>
		<g>
			<polygon fill="#FFFFFF" points="234.7,255.7 234.7,287.9 266.9,287.9 266.9,255.7 			"/>
			<polygon fill="#E8E562" points="266.9,255.7 299,255.6 299,223.1 266.9,223.2 			"/>
			<polygon fill="#DA73A8" points="299,223.1 331.3,223.1 331.3,191 299.1,190.9 			"/>
			<polygon fill="#6AB547" points="331.2,126.4 331.3,191 363.5,191 363.5,126.4 			"/>
		</g>
	</g>
</g>
<g>
	<path fill="#FFFFFF" d="M163.9,340h-11.4l-5.2-13.9c-0.1-0.2-0.1-0.5-0.3-0.9c-0.1-0.4-0.3-0.9-0.5-1.4l0.1,2.6V340h-10.5v-39h10.8
		c4.8,0,8.3,0.9,10.7,2.8c3,2.4,4.5,5.8,4.5,10.2c0,4.7-2,8-6,9.8L163.9,340z M146.7,318.5h0.7c1.2,0,2.2-0.5,3-1.4
		c0.8-0.9,1.2-2.1,1.2-3.5c0-2.9-1.5-4.4-4.6-4.4h-0.4V318.5z"/>
	<path fill="#FFFFFF" d="M191,340h-10.1c0.1-0.9,0.2-1.8,0.2-2.6c0.1-0.8,0.1-1.5,0.2-2c-1.7,3.1-4.1,4.6-7,4.6
		c-2.6,0-4.6-1.2-6.1-3.7c-1.5-2.4-2.2-5.8-2.2-10.1c0-4.2,0.8-7.5,2.3-9.8c1.5-2.4,3.6-3.6,6.3-3.6c2.7,0,4.9,1.4,6.6,4.3
		c0-0.3-0.1-0.6-0.1-0.9c0-0.3,0-0.5-0.1-0.6l-0.1-1.6l-0.1-1.2H191V340z M180.9,326.1c0-0.9,0-1.7-0.1-2.4
		c-0.1-0.7-0.2-1.2-0.4-1.6c-0.2-0.4-0.4-0.7-0.7-0.9c-0.3-0.2-0.6-0.3-1-0.3c-1.7,0-2.6,2.1-2.6,6.3c0,3,0.8,4.5,2.3,4.5
		C180.1,331.8,180.9,329.9,180.9,326.1z"/>
	<path fill="#FFFFFF" d="M206.8,304.2c0,1.6-0.6,3-1.7,4.1c-1.2,1.1-2.6,1.7-4.2,1.7c-1.6,0-3-0.6-4.2-1.7c-1.1-1.2-1.7-2.6-1.7-4.2
		c0-1.6,0.6-3,1.7-4.2c1.2-1.1,2.6-1.7,4.2-1.7c1.7,0,3.1,0.6,4.2,1.7C206.2,301.2,206.8,302.6,206.8,304.2z M205.9,340h-10.2v-27.3
		h10.2V340z"/>
	<path fill="#FFFFFF" d="M220.8,340h-10.2v-42.6h10.2V340z"/>
	<path fill="#FFFFFF" d="M224.5,337.2l3.7-7.6c1.8,1.9,3.5,2.9,5.1,2.9c1.3,0,2-0.4,2-1.3c0-0.8-0.9-1.4-2.7-2
		c-4.8-1.6-7.2-4.1-7.2-7.6c0-2.5,1.1-4.6,3.2-6.3c2.2-1.7,4.8-2.5,8-2.5c2.6,0,5.3,0.8,8.1,2.3l-3.5,7.6c-1.7-1.6-3.1-2.4-4.2-2.4
		c-1.1,0-1.6,0.4-1.6,1.2c0,0.9,1,1.7,3.1,2.4c2.6,0.9,4.3,1.9,5.2,2.9c1,1,1.5,2.5,1.5,4.3c0,2.6-1,4.8-3.1,6.4
		c-2.1,1.7-4.8,2.5-8,2.5c-1.5,0-3.1-0.2-4.6-0.6c-0.7-0.2-1.5-0.5-2.3-0.9C226.5,338.2,225.5,337.7,224.5,337.2z"/>
	<path fill="#FFFFFF" d="M278.1,317.4h14.7v1.6c0,7.3-1.1,12.5-3.4,15.7c-2.4,3.5-6.1,5.2-10.8,5.2c-4.7,0-8.4-1.7-11.1-5.1
		c-2.7-3.4-4-8.2-4-14.2c0-6.1,1.3-10.9,4-14.4s6.3-5.3,11-5.3c6.2,0,10.6,3.2,13.4,9.6l-10.2,3.7c-0.2-1.2-0.5-2.2-1-2.9
		c-0.5-0.7-1.2-1.1-2.1-1.1c-2.9,0-4.3,3.7-4.3,11.2c0,3.2,0.3,5.5,1,6.9c0.6,1.4,1.7,2.2,3.1,2.2c0.6,0,1.1-0.1,1.5-0.4
		c0.5-0.2,0.8-0.6,1.1-1c0.3-0.4,0.6-1,0.7-1.6c0.2-0.6,0.3-1.3,0.3-2.1h-3.9V317.4z"/>
	<path fill="#FFFFFF" d="M307.9,304.2c0,1.6-0.6,3-1.7,4.1c-1.2,1.1-2.6,1.7-4.2,1.7c-1.6,0-3-0.6-4.2-1.7c-1.1-1.2-1.7-2.6-1.7-4.2
		c0-1.6,0.6-3,1.7-4.2c1.2-1.1,2.6-1.7,4.2-1.7c1.7,0,3.1,0.6,4.2,1.7C307.3,301.2,307.9,302.6,307.9,304.2z M307,340h-10.2v-27.3
		H307V340z"/>
	<path fill="#FFFFFF" d="M321.9,340h-10.2v-27.3h10.2l-0.5,5.3c1.5-4,4.1-6,7.6-6v11.4c-1.1-0.6-2.1-0.9-2.8-0.9
		c-1.4,0-2.4,0.5-3.1,1.5s-1.1,2.4-1.1,4.3V340z"/>
	<path fill="#FFFFFF" d="M342.6,340h-10.2v-42.6h10.2V340z"/>
	<path fill="#FFFFFF" d="M346.3,337.2l3.7-7.6c1.8,1.9,3.5,2.9,5.1,2.9c1.3,0,2-0.4,2-1.3c0-0.8-0.9-1.4-2.7-2
		c-4.8-1.6-7.2-4.1-7.2-7.6c0-2.5,1.1-4.6,3.2-6.3c2.1-1.7,4.8-2.5,8-2.5c2.6,0,5.3,0.8,8.1,2.3l-3.5,7.6c-1.7-1.6-3.1-2.4-4.2-2.4
		c-1.1,0-1.6,0.4-1.6,1.2c0,0.9,1,1.7,3.1,2.4c2.6,0.9,4.3,1.9,5.2,2.9c1,1,1.5,2.5,1.5,4.3c0,2.6-1,4.8-3.1,6.4
		c-2.1,1.7-4.8,2.5-8,2.5c-1.5,0-3.1-0.2-4.6-0.6c-0.7-0.2-1.5-0.5-2.3-0.9C348.3,338.2,347.4,337.7,346.3,337.2z"/>
	<path fill="#FFFFFF" d="M184.3,402.1v-39h12.3c4.6,0,8,1,10.2,3c2.2,2.1,3.4,4.8,3.4,8c0,4.9-2.4,7.5-7.3,7.9
		c2.8,0.4,4.8,1.3,6.1,2.7s1.9,3.5,1.9,6.1c0,3.4-1.1,6-3.3,8.1c-2.2,2.1-5,3.1-8.5,3.1H184.3z M194.8,378h0.7c1.3,0,2.3-0.3,3-0.9
		c0.7-0.6,1.1-1.4,1.1-2.5c0-2.3-1.2-3.4-3.7-3.4c-0.1,0-0.3,0-0.4,0c-0.2,0-0.4,0-0.6,0V378z M194.8,393.8c0.2,0,0.4,0,0.5,0
		s0.3,0,0.4,0c1.3,0,2.4-0.4,3.1-1.1c0.8-0.7,1.2-1.7,1.2-2.9c0-1.2-0.4-2.1-1.2-2.8c-0.8-0.7-1.9-1-3.2-1h-0.8V393.8z"/>
	<path fill="#FFFFFF" d="M228.9,392.9l9.9,0.2c-0.7,3-2.1,5.3-4.1,6.8c-2,1.5-4.7,2.3-8,2.3c-3.9,0-7-1.2-9.2-3.5
		c-2.2-2.4-3.3-5.6-3.3-9.7c0-4.2,1.2-7.6,3.6-10.2c2.4-2.6,5.5-4,9.2-4c3.7,0,6.7,1.3,8.9,3.8c2.2,2.6,3.3,6,3.3,10.2l-0.1,1.7
		h-14.9c0.1,2.6,0.9,3.9,2.4,3.9C227.8,394.5,228.6,394,228.9,392.9z M229.1,384.8c0-0.4-0.1-0.7-0.2-1c-0.1-0.3-0.3-0.6-0.5-0.8
		c-0.2-0.2-0.5-0.4-0.7-0.5c-0.3-0.1-0.6-0.2-0.9-0.2c-0.7,0-1.3,0.2-1.7,0.7c-0.4,0.5-0.7,1.1-0.7,1.8H229.1z"/>
	<path fill="#FFFFFF" d="M253.3,402.1h-10.2v-27.3h10.2l-0.5,5.3c1.5-4,4.1-6,7.6-6v11.4c-1.1-0.6-2.1-0.9-2.8-0.9
		c-1.4,0-2.4,0.5-3.1,1.5s-1.1,2.4-1.1,4.3V402.1z"/>
	<path fill="#FFFFFF" d="M274,402.1h-10.2v-42.6H274V402.1z"/>
	<path fill="#FFFFFF" d="M289.7,366.3c0,1.6-0.6,3-1.7,4.1c-1.2,1.1-2.6,1.7-4.2,1.7c-1.6,0-3-0.6-4.2-1.7c-1.1-1.2-1.7-2.6-1.7-4.2
		c0-1.6,0.6-3,1.7-4.2c1.2-1.1,2.6-1.7,4.2-1.7c1.7,0,3.1,0.6,4.2,1.7C289.1,363.3,289.7,364.7,289.7,366.3z M288.8,402.1h-10.2
		v-27.3h10.2V402.1z"/>
	<path fill="#FFFFFF" d="M318.6,402.1h-10.2v-14.5c0-1.2-0.2-2.1-0.5-2.6c-0.3-0.5-0.9-0.7-1.6-0.7c-1.8,0-2.7,1.3-2.7,4v13.8h-10.2
		v-27.3h10.2c0,0.7,0,1.3-0.1,1.9c0,0.6,0,1.1-0.1,1.6l-0.1,1.7c1.7-3.5,4.3-5.2,7.7-5.2c2.4,0,4.2,0.8,5.5,2.4c1.3,1.6,2,3.8,2,6.7
		V402.1z"/>
</g>
</svg>
