<?xml version="1.0" encoding="utf-8"?>
<!-- Generator: Adobe Illustrator 18.1.1, SVG Export Plug-In . SVG Version: 6.00 Build 0)  -->
<svg version="1.1" id="Warstwa_1" xmlns="http://www.w3.org/2000/svg" xmlns:xlink="http://www.w3.org/1999/xlink" x="0px" y="0px"
	 width="400px" height="400px" viewBox="0 0 400 400" enable-background="new 0 0 400 400" xml:space="preserve">
<path fill="#0E2D6D" d="M202.8,297.1L202.8,297.1h-0.3l-16.6,0.3l9.7-22c0,0,0.5-1.9,1.8,0L202.8,297.1L202.8,297.1L202.8,297.1
	L202.8,297.1z M297.3,145L297.3,145c-3.8-2.3-6.2-8.5-6.3-16.3c7,0.6,11.9-0.6,14.7-3.7c3.5-3.9,2.8-10,1.9-14.2l-0.2-0.9l-0.6,0.6
	c-2.9,2.9-5.4,3.9-7.5,3c-5.1-2.1-6.7-15-6.7-19.2c-0.5-10.7-4.4-18.7-10.9-22.4c-5.3-3.1-11.8-3.1-17.9,0.1
	c-3.7,1.9-6.2,4.8-7.3,8.5c-1.8,6,0.5,13.3,3.1,17.9c-13.1,10.6-35.3,8-38.6,7.5c-4.1-7.4-6.2-15.3-6.2-23.5v-0.2
	c0-1,0.3-1.6,0.8-1.9c1.5-0.8,5,1.1,6.3,1.9l0.6-0.8c0,0-3.1-3-7.6-15.4c-2.8-6.2-10.9-8.9-14.3-9.7c-6.5-2.2-10.6-0.5-13.3,5.5
	c-0.2,0.5-1.8,0.6-3.1,0.7c-1.9,0.1-4,0.3-5.1,1.4c-2.8,3-0.4,9.9-0.3,10.2l0.2,0.6l0.5-0.3c0.1,0,5.1-3.2,8.8-1.2
	c2.6,1.4,4,4.8,4.2,10.3c0,4.4-3.8,11.8-11.5,22.5c-3.3,0.5-25.4,3.1-38.5-7.5c2.5-4.6,4.8-11.9,3-17.9c-1.1-3.7-3.5-6.6-7.3-8.5
	c-5.7-2.9-12.4-2.7-18,0.7c-7.4,4.5-11.6,13.9-11.6,25.8c0,3.6-2,14-6.6,15.7c-2.2,0.8-4.7-0.5-7.5-3.9l-0.6-0.8l-0.2,1
	c-1,4.9-0.1,11.6,4.1,15.6c2.2,2.1,6.3,4.2,13.1,2.6c-0.1,7.7-2.5,13.9-6.3,16.2c-2.5,1.5-5.6,1.3-9.1-0.6l-0.8-0.5l0.1,1
	c1.1,7.1,3.8,11.6,7.9,13c5.5,1.9,13.4-1.7,23.5-10.7c-2.6,11.5-5.6,24.2-13.1,28.1c-3.5,1.8-7.6,1.6-12.6-0.5l-0.8-0.3l0.1,0.8
	c1.4,9.8,4.9,16.5,9.8,19c3.4,1.8,7.4,1.4,11.9-1c11.7-6.3,18-25.8,18.3-26.6c0.1-0.4,0.2-0.7,0.3-1.1l0.2,0.2
	c1.9,1.9,4.6,2.7,7.5,2.3c3.8-0.5,7.2-3,9.4-6.9c1.3-2.7,2.2-5,3.1-7c0.7-1.7,1.3-3.1,2-4.3c-0.4,3.3-1.6,6.5-3.4,9.2l0-0.1
	c-0.6,0.6-0.7,1.1-0.4,1.5c1.1,1.1,8.3-2.2,9.7-3.6c0.3-0.3,0.8-0.3,1.2-0.1c1.1,0.6,1.8,2.6,0.9,6.6c-1.5,6.3-3.3,8.3-5.2,10.3
	c-1.5-1.4-7.5-6.6-12.5-4.8c-3.1,1.1-5,4.9-5.6,11.2c-3.5,3.6-6.1,9.6-4.2,13.6c0.9,2,3.3,4.2,9.5,3.6c-0.1,0.6-0.2,1.2-0.3,1.8v0
	l0,0c0.4,4.5,1.8,7.5,4.2,9c2.6,1.6,6.3,1.5,10.9-0.4l0.5-0.2l-0.3-0.5c-1.2-2.1-3.9-6.6-2.7-9c0.4-0.8,1.2-1.3,2.4-1.6
	c0.2,0.2,0.5,0.5,0.7,0.8c1.6,1.9,4,4.7,7.7,3.9c5.9-1.4,8.9-4,8.9-7.6c0-4.1-1-8.4-8.2-12c0.1-3,1.9-4,4.6-5.5
	c2.7-1.5,5.9-3.3,8.6-7.6c0,0,0.3-0.4,0.3-0.4c0.1-0.2,0.4-0.5,0.6-0.5c0.2,0,0.5,0.2,0.8,0.6c0,0,0.4,0.6,0.4,0.6
	c4.1,6,5.2,16.1,4,17.1c-0.2,0.2-0.7,0.5-1.2,0.8c-2.3,1.4-6.6,4-6.4,7.1c0.2,2,2.2,3.8,6.2,5.4l0.1,0c0.5,0.5,0.7,4.1-1.2,8.7
	c-1.8,4.5-5.8,10.1-16.7,9.1l-0.7-0.1l0.2,0.7c2.1,7.3,4.6,10.8,12.4,11.2c-4,3.2-8.4,5.5-8.5,5.5l-0.3,0.1l0,0.3
	c0,0.1,1.2,7,12,7.2c0.3,5,5.8,9.6,9.4,12.7l0.3,0.3l0.3-0.3c3.7-3.1,9.1-7.7,9.4-12.7c10.9-0.2,12-7.1,12-7.2l0.1-0.3l-0.3-0.2
	c0,0-4.5-2.4-8.5-5.5c7.9-0.4,10.4-4,12.4-11.2l0.2-0.7l-0.7,0.1c-10.9,1.1-15.9-4.6-17.7-9.1c-1.8-4.6-0.6-8.2-0.1-8.6l0.1,0
	c4-1.6,6-3.4,6.2-5.4c0.2-3.1-4.1-5.7-6.4-7.2c-0.6-0.3-1-0.6-1.2-0.8c-1.2-1,0-11.1,4-17.1c0,0,0.4-0.6,0.6-0.9l1.4,0.1l0.1,0.2
	c2.6,4.4,5.9,6.1,8.6,7.5c2.8,1.5,4.6,2.5,4.7,5.8c-7.2,3.7-8.2,8-8.2,12c0,3.7,3,6.2,9,7.6c3.6,0.8,6-2,7.6-3.9
	c0.3-0.3,0.5-0.6,0.7-0.8c1.2,0.3,2,0.8,2.4,1.6c1.1,2.5-1.6,7-2.7,9l-0.3,0.5l0.5,0.2c4.7,1.9,8.4,2,11.1,0.3
	c2.6-1.7,4-5.2,4.2-10.4v-0.1l0,0c0-0.1-0.1-0.2-0.1-0.3c6,0.5,8.4-1.7,9.3-3.6c1.8-3.9-0.7-9.9-4.3-13.5c-0.6-6.2-2.4-10-5.6-11.2
	c-4.3-1.6-9.9,2.3-12.5,4.8c-2-2-3.7-4-5.2-10.3c-1-4-0.2-6,0.9-6.6c0.4-0.2,0.9-0.2,1.2,0.1c1.4,1.4,8.7,4.8,9.8,3.7
	c0.5-0.6-0.2-1.3-0.4-1.6c-1.8-2.6-3-5.9-3.4-9.1c0.6,1.3,1.2,2.6,1.9,4.2c0.8,2,1.8,4.3,3.1,7c2.2,3.9,5.6,6.4,9.4,6.9
	c2.9,0.4,5.6-0.5,7.5-2.4l0.1-0.1c0.1,0.3,0.2,0.7,0.3,1c0.3,0.8,6.5,20.3,18.3,26.6c4.4,2.4,8.4,2.7,11.8,1c5-2.5,8.4-9.3,9.8-19
	l0.1-0.8l-0.8,0.3c-5,2.1-9.2,2.3-12.6,0.5c-7.5-3.9-10.6-16.6-13.1-28.1c10.1,9,18,12.6,23.5,10.6c4.1-1.4,6.8-5.9,7.9-13l0.1-0.9
	l-0.8,0.4C302.9,146.3,299.8,146.5,297.3,145L297.3,145z M191.2,97.4L191.2,97.4c3.2-4.8,7.4-14.4-0.3-25.1l0,0l0,0
	c-1.6-1.6-2.7-2.1-3.2-2.2l-0.5-2.1l-0.1-0.4h-0.4c-0.8,0-4.1,0.9-5.9,1.7c-0.1-0.7-0.3-2,0.5-2.9c1-1.2,3.2-1.5,6.4-1h0h0
	c1.1,0,1.4-1,1.7-2c0.2-0.7,0.5-1.7,1.1-2.5c2-2.7,4.6-2.7,7.9-1.9c2.9,0.7,8.1,2.8,10.8,5.2c4,3.5,4.6,7.9,4.7,11.6
	c-1.5-0.7-2.8-0.9-3.6-0.5c-0.8,0.4-1.2,1.1-1.5,2.3c-1.5,7.1-0.3,14.6,3.3,21.1c3.5,6,4.5,10.3,4.8,12.7c-0.7-0.9-1.4-2-1.9-2.9
	c-1-1.8-1.7-3-2.7-3l-0.3,0l-0.1,0.3c-1.2,2.2-2.5,4.8-2.2,7.3c-2.6-1-4.9-2.7-5.1-7.9l-0.9-0.1l-0.7,2c-1.1,2.9-2.1,5.8-2.8,7
	c-2.7-5.4-4.2-6.9-5.1-7.9l-0.5-0.4c0,0-0.3,0.5-0.3,0.5c-0.7,1.3-1.4,2.4-2,3.3c-0.8,1.2-1.2,2.1-1.5,3c-1.6-2.5-2.1-3.3-2.2-3.4
	C188.5,109,186.3,104.6,191.2,97.4L191.2,97.4z M186,108.1L186,108.1v0.1c0,1.7,0,3-0.6,3.6c-0.2,0.2-0.6,0.2-0.9,0.3
	c0.1-2.2,0.6-3.3,1.1-3.7C185.7,108.2,185.9,108.2,186,108.1L186,108.1z M188.6,114.2L188.6,114.2c1.3,3,2.4,6.8,2.4,6.8l0.5,1.7
	l0.4-1.8c0-0.1,1.5-6.6,3.4-9c2.1,2.4,5.6,9,5.6,9.1l0.9-0.2c0,0-0.1-4.8,2.6-7.9c0.6,0.7,1.3,1.5,1.9,2.4c1.6,2.2,3.3,4.4,5.1,4.4
	l0.5,0v-0.5c0-4,0.8-5.9,1.2-6.7l4.9,4.8c0.6,1-0.9,10.2-3.2,13.4c-2.6-5.3-5-8.7-6-9.7l-0.3-0.3l-0.3,0.3c-0.4,0.5-0.7,1.5-1,2.9
	c-0.5,2-1.1,4.6-2.6,6c-1.4-1.6-2.3-3.2-3-4.7c-0.6-1.3-1.2-2.5-2-3.3l-0.5-0.4l-0.3,0.6c-0.9,1.7-1.3,3.3-1.7,4.7
	c-0.3,1.2-0.7,2.2-1.2,3l-5.2-5.2l-1.2-1.2l-0.8-0.8v1.2c0,3.9-0.3,5.6-0.6,6.3c-1.1-1.1-4-4.4-5.4-9.5
	C183.6,119.7,187,117.1,188.6,114.2L188.6,114.2z M164.8,154.5L164.8,154.5c1.6-3.8,3.6-11.4,3-15.2c-0.3-1.9-0.9-4.2-2.3-4.3
	c-1.1-0.1-2.1,1.3-3,4.1c-8.1,26.1-14.7,26.2-18.5,25.5c2.9-2.2,6.1-7.3,7.6-16.1c1.8-12.9,0.6-15.5-0.4-16.3c-0.4-0.3-1-0.6-2-0.2
	c-2.4,1-5.6,10.3-10.2,24.5c-2.1,6.6-4.1,12.8-5.6,16.1c-6.2,12.8-13.1,19.5-19.4,18.9c-4.7-0.5-8.6-5-10.6-12.1
	c6.3,1.1,11.8-0.2,16.3-3.9c13.1-10.8,14.1-38.5,14.1-46.7v-0.1c0-2.4-0.5-3.8-1.5-4c-0.8-0.1-1.5,0.6-2,1.9
	c-9.2,26.4-19.7,28.7-23.8,28.5c-4-0.2-7-2.9-8-5.5c3.7,1,7,0.6,9.7-1.4c9.1-6.5,9.5-26.8,9.5-27c0-2.3-0.3-3.4-1.1-3.7
	c-0.7-0.3-1.4,0.3-1.9,0.8c-4.5,5.3-8.6,7.5-11.9,6.4c-3.2-1-4.8-4.5-5.3-7c2.7,1.4,5.2,1.5,7.3,0.4c6.7-3.8,7.6-20.1,7.7-25
	c0-5.1,3.2-11.2,7.7-14.8c2.5-2,6.4-4,11.2-2.9c5,1.4,8.2,4,9.4,7.6c2.1,6.3-2.2,14-4.1,16.4l-0.2,0.3l0.2,0.3
	c7.8,11.1,36.5,13.2,41.9,13.5c-3.1,4.6-7.7,3.9-15,2.6l-2-0.3c-10.1-1.7-21-9-25.2-12.1c-6.2-4.5-6.9-8.5-6.9-11.4
	c0-0.5,0.1-0.7,0.1-0.7c0.5,0,2.3,2,3.3,6l0.2,0.8l0.6-0.6c1.8-1.7,1.6-3.3,1.5-5c0-0.5-0.1-1-0.1-1.6c0-0.8,0.1-1,0.1-1
	c0.2,0,0.7,0.2,1.1,0.4c0.5,0.2,1.2,0.5,1.9,0.7l0.6,0.2l0-0.6c0-2.1-2.6-5.3-4.9-6.2c-0.4-1.2,0-2.7,0.4-4.1
	c0.3-0.9,0.5-1.8,0.5-2.5v-0.5l-0.5,0c-1.6,0-2.1,1.1-3,3.4c-0.4,0.9-0.8,1.9-1.5,3.2c-2-1-2.5-2.1-3.1-3.3
	c-0.3-0.7-0.6-1.5-1.3-2.2l-0.3-0.3l-0.3,0.3c-0.7,0.7-0.8,2.2-0.8,3c0,1.7,0.4,3.9,1.3,4.8c1.2,1.2,1.8,1.8,1.8,3
	c-4.9,9.1,9.5,18.8,18.1,24.6c10.2,6.9,24.8,6.9,30.2,6.9l0.2,0c0.9,0,1.4,0,1.7,0.1c-0.2,0.1-0.4,0.3-0.6,0.4
	c-0.6,0.4-1.3,0.8-1.8,1.3l0,0l0,0.1c-1.1,1.8-2,2.7-3,2.9c-1.1,0.1-2.4-0.6-4.3-2.5l-0.4-0.5l-0.3,0.6c-1,1.9-2.2,2.9-3.5,3
	c-1.7,0.1-3.6-1.4-5.8-4.4l-0.3-0.4l-0.4,0.4c-1.8,1.8-3.1,2.6-4,2.4c-1-0.3-1.5-2.1-2.1-4c-0.1-0.4-0.3-0.9-0.4-1.3l-0.2-0.6
	l-0.5,0.3c-2.3,1.3-3.7,1.7-4.5,1.3c-0.9-0.4-1.1-1.9-1.4-3.8c-0.1-0.5-0.2-1-0.3-1.6l-0.1-0.6l-0.6,0.3c-2.5,1.3-4.1,1.8-5.2,1.3
	c-1.2-0.5-1.8-2.1-2.5-4.3l-0.1-0.3l-0.3,0c-4.9-0.6-5.9-1.2-5.9-6.4v-0.7l-0.6,0.2c-4.4,1.4-5.5,0.2-5.7-0.1l0-4.8
	c1.1-0.8,1.7-1.7,1.6-2.7c-0.1-1.4-1.5-2.4-2.8-2.9c-0.7-0.3-1.3-0.1-1.6,0.1c-1,0.6-1.2,2.3-1.2,2.5c0,0-0.3,11.8-0.3,11.8v0.4
	l0.4,0l5.9,0.6l0,4.9v0.5l0.5,0l7.2,0l0,8.3v0.7l0.7-0.3l7.3-3.2l1.5,6.8l0.1,0.6l0.6-0.3l6-3.1l1.5,4.5l0.2,0.5l0.5-0.2l6.9-2.7
	l2.3,5.3l0.2,0.5l0.5-0.3l6.9-3.7l4.9,3.7l0.3,0.2l0.3-0.3c0.1-0.1,1.4-1.5,3.7-5.5C180,137,170.3,149.7,164.8,154.5L164.8,154.5z
	 M139.9,165.3L139.9,165.3c2.3-7.6,4.8-15.2,5.7-16c0.2,0,0.5,0.2,0.8,0.7C146.9,151,147.4,154.7,139.9,165.3L139.9,165.3z
	 M152.5,195.2L152.5,195.2c0.2-0.9,0.5-1.9,1.2-2.7c0.5-0.5,1.1-0.8,1.8-0.9C154.2,192.5,153.2,193.7,152.5,195.2L152.5,195.2z
	 M186.3,163.7L186.3,163.7L186.3,163.7l-0.1,0.1c-2.2,5.4-4.1,8.3-5.7,8.6c-0.9,0.2-1.7-0.6-2.4-1.3l-0.2-0.2l-0.3-0.3l-0.3,0.3
	c-4.1,4-5.8,7.6-5.8,12v0.4l0.4,0.1c5.2,1.3,8.7,4.1,9.7,7.5c0.5,2,0.1,3.9-1,5.1c-1.8,1.8-3.8,2.7-5.7,2.4
	c-1.3-0.1-2.5-0.9-3.5-2.1c1.7,0,3.4-0.7,4.3-1.8c0.7-1,0.7-2.2,0-3.4c-0.9-1.2-1.9-1.9-3.1-2c-2.8-0.2-5.8,2.4-7.8,4.5
	c-2.2,2.1-4.3,5.8-2.8,11.3c-2.6,0.1-4.3-0.5-5.1-1.7c-2-3.2,1.8-10.2,3.6-13.6c0.3-0.6,0.6-1,0.8-1.4l0.3-0.6l-0.7-0.1
	c-5.8-0.5-8.6,1.2-9.9,2.7c-1.3,1.5-1.6,3.3-1.4,4.6c-1.4-0.2-3.7-1.3-3.7-6.2c0-5,6.6-5,8.7-5c0.5,0,1.1,0.1,1.6,0.1
	c1.3,0.2,2.5,0.3,3.3-0.4c0.4-0.4,0.6-0.9,0.6-1.6c0-2.9-5.6-3.6-8.4-3.7c1.2-3,2.7-4.8,4.5-5.2c3.3-0.8,7.3,3.2,10.5,6.3l0.3,0.3
	l0.3,0.3l0.3-0.3c0.8-0.8,7.5-9.3,6.5-14.4c-0.8-5,1.9-10.1,4.2-14.6c0.5-0.9,0.9-1.7,1.3-2.5c0.9-1.9,1.5-2,1.7-2
	c0.5,0,1,1.2,1.3,1.9l0,0.1l0.1,0.1C183.1,149.1,187,162.4,186.3,163.7L186.3,163.7z M210.4,217.9L210.4,217.9
	c2.9,2.5,6.5,3.6,10.8,3.3c-1.1,2.1-3.3,3.5-5.8,3.6c-4.2,0.1-8.2-2.9-10.5-8l-0.7-1.5l-0.2,1.6c-0.6,4.1,5.2,13.6,14.4,18.6
	c-0.9,0.9-2.2,1.5-3.9,1.6c-3.3,0.1-6.8-1.7-9.5-4.8l-0.5-0.5l-0.3,0.7c-0.5,1.1,0.2,2.4,0.9,3.8c0.6,1.1,1.2,2.2,1.2,3.2
	c0,0.7-0.2,6.8-5.5,10.2c-5.3-3.4-5.5-9.5-5.5-10.2c0-1,0.6-2.1,1.2-3.2c0.7-1.4,1.4-2.7,0.9-3.8l-0.3-0.7l-0.5,0.6
	c-2.7,3.1-6.2,4.9-9.5,4.8c-1.7-0.1-3-0.7-3.9-1.6c9.2-5,15-14.4,14.4-18.6l-0.2-1.6l-0.7,1.5c-2.3,5.1-6.3,8.1-10.5,8
	c-2.6-0.1-4.7-1.4-5.8-3.5c4.2,0.5,7.8-0.4,10.6-2.8c6.2-5.2,6.9-15.1,7-17.3l5.4,0C203.6,203.3,204.4,212.7,210.4,217.9
	L210.4,217.9z M206.5,192.6L206.5,192.6c0.3,1,0.3,1.8-0.2,2.5c-1.4,2-5.4,2.6-6.4,2.6c-1,0-8-0.9-8-4.4c0-3,5.8-3.9,8-3.9
	C203.4,189.4,206.3,192.4,206.5,192.6L206.5,192.6z M207.3,169.7L207.3,169.7c-0.8,0.8-1.9,0.3-2,0.2l-0.7-0.3c0,0,0,0.7,0,0.7
	c0,0-0.1,2.4-1.6,5.3c-1.5-0.6-2.1-1.8-3-3.7c-0.2-0.5-0.4-1-0.7-1.5l-0.6-1.1l-0.3,1.2c-1,3.4,1.1,7.3,4.9,9.1
	c0.6,0.3,0.9,0.7,0.8,1.2c0,1.2-1.9,3-3.3,3.6c-0.5,0.2-0.9,0.2-1,0.1c-10.9-25.8-10.6-31.2-9.9-34.3c2.5,1.3,4.5,4.4,4.5,4.4l0.6,1
	l0.3-1.1c0,0,0.7-2.9,1.8-5.5c1.4,1.7,4,5.6,4,5.6l0.2,0.4l-0.3,0.6l-3,6.7c-0.8-0.8-2.5-2.5-4.2-5l-0.9,0.4
	c1.4,6.4,3.2,8.6,5.3,10.5l0.8,0.7v-1.1c0-0.5,1.6-4,2.8-5.7c0.6,2.4,3.1,5,3.4,5.3c0.4,0.4,0.8,0.7,1.1,1c0.5,0.4,1,0.9,1,1.1
	C207.5,169.5,207.4,169.6,207.3,169.7L207.3,169.7z M211.9,156.9L211.9,156.9l-1.4-1.3l-0.3-0.3l-0.3,0.3c-0.1,0.1-1.6,1.8-3.4,8.2
	c-1.8-2.3-4.6-8.1-4.6-8.2l-0.3-0.6c0.1-0.2,0.2-0.4,0.2-0.4l3.7-6.7c1.2,2.8,2.4,6.1,2.4,6.1l0.3,0.8l0.5-0.7
	c1.5-1.9,3.9-4.5,5.2-5.1C213.8,153.3,212.5,156,211.9,156.9L211.9,156.9z M214.5,138.1L214.5,138.1l-0.6-0.4l-0.1,0.7
	c-0.5,2.1-1.9,7.6-3.3,9.7c-0.6-1.1-1.3-2.3-1.9-3.6c-1.2-2.4-2.4-4.7-3.6-5.8l-0.6-0.6l-0.2,0.8c-0.7,2.5-1.1,4.3-1.4,5.8
	c-0.4,2-0.7,3.2-1.2,4c-3-3.2-5.3-8.9-5.3-9l-0.5-1.3l-0.4,1.4l-2.3,8.1c-1-0.8-3.3-3-3.4-6.9l-0.1-1.8l-0.8,1.6l-3,5.7
	c-1.2-1.5-4.6-6.9-2.7-17.8c2.3,4.1,5.4,7.2,5.5,7.4l0.6,0.6l0.2-0.9l1.3-6.5c1.6,2.4,3.7,5.8,3.7,6.8v1.2l0.8-0.8
	c2.2-2.2,4.2-5.4,4.8-7.4c1.5,1.6,3.6,4.5,4,7.4l1-0.1l-0.1,0.2c0-0.1,0.3-0.5,0.5-0.9c1.9-3,3.6-6,4.3-7.8c1.7,3.9,3,8.8,3,8.9
	l0.2,0.6l0.5-0.3c0.2-0.1,3.9-2.4,6.2-6.4c-0.1,7.3-1,9.7-3.5,12.4C216,139.3,214.6,138.1,214.5,138.1L214.5,138.1z M246.4,191.6
	L246.4,191.6c0.7,0.2,1.2,0.5,1.7,0.9c0.7,0.7,1,1.6,1.2,2.4C248.6,193.6,247.6,192.4,246.4,191.6L246.4,191.6z M234.9,179.5
	L234.9,179.5l0.3,0.3l0.3-0.3l0.3-0.3c3.2-3.2,7.2-7.1,10.6-6.4c1.8,0.4,3.3,2.2,4.5,5.2c-2.9,0.1-8.4,0.9-8.4,3.7
	c0,0.7,0.2,1.2,0.6,1.6c0.8,0.7,2,0.6,3.3,0.4c0.5-0.1,1.1-0.1,1.6-0.1c2.2,0,8.7,0,8.7,5c0,4.9-2.3,6-3.7,6.2
	c0.1-1.4-0.1-3.1-1.4-4.6c-1.3-1.5-4.1-3.2-9.9-2.7l-0.7,0.1l0.3,0.6c0.2,0.4,0.5,0.9,0.8,1.5c0.1,0.3,0.3,0.6,0.5,0.9l-0.1,0l0.1,0
	c1.9,3.6,4.9,9.7,3.1,12.6c-0.8,1.2-2.6,1.8-5.1,1.7c1.6-5.4-0.6-9.1-2.8-11.3c-2.2-2.2-5.1-4.7-7.8-4.5c-1.2,0.1-2.2,0.8-3.1,2
	c-0.7,1.2-0.7,2.4,0,3.4c0.8,1.2,2.5,1.8,4.3,1.8c-1,1.1-2.2,1.9-3.5,2.1c-1.9,0.2-3.9-0.6-5.7-2.5c-1.2-1.2-1.6-3.1-1.1-5.1
	c1-3.5,4.5-6.2,9.7-7.5l0.4-0.1v-0.4c0-4.4-1.7-8-5.8-12l-0.3-0.3l-0.3,0.3l-0.2,0.2c-0.7,0.7-1.5,1.5-2.4,1.3
	c-1.6-0.3-3.5-3.2-5.7-8.6l0-0.1l-0.1,0c-0.7-1.3,3.1-14.6,3.8-15.5l0.1-0.1c0,0,0-0.1,0-0.1c0.2-0.7,0.7-1.9,1.3-1.9
	c0.2,0,0.8,0.1,1.7,2c0.4,0.8,0.8,1.6,1.3,2.5c2.4,4.5,5,9.6,4.2,14.6C227.4,170.3,234.2,178.9,234.9,179.5L234.9,179.5L234.9,179.5
	z M260.9,164.1L260.9,164.1c0,0-0.2-0.4-0.2-0.4c0,0-0.6-0.8-0.6-0.8c0,0-0.3-0.4-0.3-0.4c0,0-0.5-0.7-0.5-0.7l-0.3-0.4
	c0,0-0.4-0.6-0.4-0.6c0,0-0.2-0.4-0.2-0.4c0,0-0.4-0.6-0.4-0.6l-0.2-0.4c0,0-0.3-0.6-0.3-0.6c0,0-0.2-0.4-0.2-0.4
	c0,0-0.3-0.5-0.3-0.5c0,0-0.1-0.4-0.1-0.4c0,0-0.3-0.5-0.3-0.5c0,0-0.1-0.3-0.1-0.3l-0.2-0.5c0,0-0.1-0.3-0.1-0.3
	c0,0-0.2-0.4-0.2-0.4l-0.1-0.3v0l0,0l-0.2-0.4l-0.1-0.2v0l0,0l-0.1-0.4c0,0,0-0.1-0.1-0.2l-0.1-0.4v0l0,0l-0.1-0.2l-0.1-0.3
	c0,0,0-0.1,0-0.2l0-0.3v0l0,0l0-0.2c0,0-0.1-0.3-0.1-0.3v-0.1c0,0,0-0.3,0-0.3c0,0,0-0.1,0-0.1v-0.3V151c0,0,0-0.2,0-0.2
	c0,0,0,0,0,0l0.1-0.2c0,0,0-0.1,0-0.1c0,0,0-0.1,0-0.2v0l0.1-0.2l0.1-0.2l0.1-0.1c0,0,0-0.1,0.1-0.1v0l0.1,0l0,0l0,0l0,0l0.1-0.1
	l0.1-0.1v0c0,0,0.1,0,0.1,0l0.1,0c0,0,0,0,0,0l0,0c0.8,0.8,3.4,8.4,5.7,15.9L260.9,164.1L260.9,164.1z M295.3,154.9L295.3,154.9
	c-4.1,0.2-14.5-2.1-23.8-28.4c-0.5-1.4-1.2-2.1-2-1.9c-1,0.2-1.5,1.6-1.5,4v0.1c0,8.2,1,35.9,14.1,46.7c4.5,3.7,10,5,16.3,3.9
	c-2,7.1-6,11.7-10.6,12.1c-6.3,0.6-13.3-6.1-19.4-18.9c-1.5-3.2-3.5-9.5-5.7-16.1c-4.6-14.1-7.8-23.5-10.2-24.4
	c-1-0.4-1.6-0.1-2,0.2c-1.1,0.8-2.2,3.5-0.4,16.3c1.5,8.8,4.8,13.9,7.7,16.1c-3.8,0.8-10.3,0.6-18.5-25.4c-0.9-2.8-1.9-4.2-3-4.1
	c-1.4,0.1-2,2.4-2.3,4.3c-0.6,3.9,1.4,11.5,3,15.2c-5.5-4.7-15.2-17.4-11.6-28.4c2.3,4,3.6,5.4,3.7,5.5l0.3,0.3l0.3-0.2l4.9-3.7
	l6.9,3.7l0.4,0.3l0.2-0.5l2.3-5.3l6.9,2.7l0.4,0.2l0.2-0.5l1.5-4.6l6,3.1l0.6,0.3l0.1-0.6l1.5-6.8l7.3,3.2l0.7,0.3v-0.7l0-8.3l7.3,0
	h0.5v-0.5l0-4.9l5.9-0.6l0.4,0l0-0.4l-0.3-11.8c0-0.2-0.2-1.9-1.2-2.5c-0.3-0.2-0.8-0.4-1.6-0.1c-1.2,0.5-2.6,1.6-2.8,3
	c-0.1,1,0.5,1.9,1.6,2.7v4.8c-0.2,0.2-1.2,1.5-5.7,0.1l-0.6-0.2v0.7c0,5.2-1,5.7-5.9,6.4l-0.3,0l-0.1,0.3c-0.7,2.2-1.3,3.9-2.5,4.3
	c-1.1,0.4-2.7,0-5.2-1.3l-0.6-0.3l-0.1,0.6c-0.1,0.6-0.2,1.1-0.3,1.6c-0.3,1.9-0.5,3.4-1.4,3.8c-0.8,0.4-2.3,0-4.5-1.3l-0.5-0.3
	l-0.2,0.6c-0.1,0.4-0.2,0.9-0.4,1.3c-0.6,2-1.1,3.8-2.1,4.1c-0.8,0.2-2.2-0.6-4-2.4l-0.4-0.4l-0.3,0.4c-2.1,3-4.1,4.5-5.8,4.4
	c-1.3-0.1-2.4-1.1-3.5-3l-0.3-0.6L234,123c-1.9,1.9-3.2,2.7-4.3,2.5c-1-0.1-1.9-1-3-2.9l0-0.1l0,0c-0.5-0.5-1.2-0.9-1.8-1.3
	c-0.2-0.1-0.4-0.3-0.6-0.4c0.3,0,0.8-0.1,1.7-0.1l0.2,0c5.5,0,20,0,30.2-6.9c11.2-7.5,22.7-16.2,18.1-24.6c0-1.2,0.5-1.8,1.8-3
	c0.9-0.9,1.3-3.2,1.3-4.8c0-1-0.1-2.3-0.8-3l-0.4-0.3l-0.3,0.3c-0.7,0.7-1,1.4-1.3,2.2c-0.5,1.2-1.1,2.3-3.1,3.3
	c-0.6-1.3-1.1-2.3-1.5-3.2c-1-2.2-1.5-3.4-3-3.4l-0.5,0v0.5c0,0.7,0.3,1.6,0.5,2.5c0.4,1.4,0.8,2.9,0.4,4.1
	c-2.3,0.9-4.8,4.1-4.8,6.2v0.6l0.6-0.2c0.7-0.2,1.4-0.5,1.9-0.7c0.4-0.2,1-0.4,1.1-0.4c0,0,0.1,0.2,0.1,1c0,0.5,0,1.1-0.1,1.5
	c-0.1,1.8-0.2,3.3,1.5,5l0.6,0.6l0.2-0.8c1.1-4,2.9-6.1,3.4-6c0,0,0.1,0.2,0.1,0.7c0,2.9-0.8,6.9-7,11.4c-4.2,3.1-15,10.4-25.2,12.1
	c0,0-2,0.3-2,0.3c-7.3,1.3-11.9,2-15-2.6c5.4-0.3,34.1-2.5,41.9-13.6l0.2-0.3l-0.2-0.3c-1.9-2.4-6.2-10.1-4.1-16.4
	c1.2-3.6,4.4-6.2,9.4-7.6c4.8-1.1,8.8,0.9,11.2,2.9c4.5,3.6,7.7,9.7,7.7,14.8c0.1,4.9,0.9,21.2,7.7,25c2.1,1.2,4.6,1,7.3-0.4
	c-0.5,2.5-2.1,6-5.3,7c-3.3,1-7.4-1.2-11.9-6.4c-0.5-0.5-1.2-1.1-2-0.8c-0.7,0.3-1.1,1.4-1.1,3.7c0,0.2,0.4,20.5,9.5,27
	c2.8,2,6,2.4,9.7,1.4C302.3,152,299.3,154.7,295.3,154.9L295.3,154.9z M174.5,324.9L174.5,324.9l0.5-0.6l-0.3-1.1
	c0.3-6.1,8.9-20,8.9-20s18,0.5,20.9,0.1l5,18.3c-2.4,1.8-2.8,3-2.4,3.4c4-2,11.9-2.9,16.3-2c0.4,0.1,8.9,2.2,9.6,1.9
	c-0.7-0.8-2-1.8-2.1-2.8c-0.2-1-0.1-1.8-0.1-1.8c-1-15.1,6.1-69.9,6.1-70.6c0.8-6.1,2.5-0.6,2.5-0.6s14.4,69.7,15.4,74.4l0,0.2
	l0.4,1.1l3.1,0l0.4-1.3c3-10.6,20.6-71.8,20.6-72.1c1.5-4.6,2.9-0.9,2.9-0.9c2.3,2.6,4,70.5,3.9,70.6c-3.9,2.2-3.2,3.8-3.1,3.8
	c8.5-4.3,24.7-0.1,25-0.3l-6.9-6.4l0,0c-1.7-6.4-7.3-94.2-7.2-96.6c-0.4-1.8,3.9-4.5,4.2-4.5c-8.6,1.6-16.4,0.8-20.2,0.1
	c-2.2-0.5,2.3,1.8,1.9,3.6c-1,10.2-18.4,63-18.3,62.8c-3.9-3.6-12-60.2-12-61c-0.3-2.5,4.1-4.5,3.3-5.5c-9.2,4.2-22.3,0-22.3,0
	c-1.5,0.7,2.9,2.4,2.8,6.2c-0.1,3.8-7,82-8.2,88.8c-0.4,2.2-0.7,4.6-1.6,6.8l-0.8-1.1c-8-15.1-12.5-50.9-12.2-52.4
	c0.2-1.4,3.2-2.3,3.2-2.3l-18.2-0.1c-0.3,4.5-22.7,52-27.9,56.6l0,0c0,0,0.6-91.2,0.6-96c-0.1-3.8,4.7-6.4,4.7-6.4l-0.7,0.1
	c-2.7,0.8-6.1,1.2-9.7,1.2c-3.6,0-7-0.5-9.6-1.3c-1.1-0.2-1.4,0.1-1.4,0.2l1.3,1.7c6.3,5.8-0.6,41.8-1.1,42.6
	c-29.5,86.7-41.2,35.7-41.2,35.7c-3.2-14.1,4.2-71.6,4.4-71.8c2-3.9,8.1-7.6,8-8.1l-0.2-0.2c-11.5,5.3-29.6-0.2-29.7-0.1l0,0v0.1
	c-0.7,0.4,6.6,3.7,6.9,6.7c0,1.5-4.1,66.8-4.1,66.5c-1,33.9,19,34.3,19,34.3c26.5-0.4,38.2-50.4,38.5-51.7c0.3-1.3,1.7-0.7,1.7-0.7
	l0.3,46.3l-0.9,2.5l-2.1,3.7c6.9-2.3,13.9-1.8,20.8-0.3C173.7,324.8,174.3,324.9,174.5,324.9L174.5,324.9z M197.3,64.1l0.6,0.1
	l-0.2,0.6c0,0.1-0.6,1.4-2.1,1.8c-1.1,0.3-2.5,0-3.9-0.9l-0.7-0.5l0.8-0.4c0.1-0.1,2.7-1.1,4.1-0.9L197.3,64.1z"/>
</svg>
