<?xml version="1.0" encoding="utf-8"?>
<!-- Generator: Adobe Illustrator 16.0.5, SVG Export Plug-In . SVG Version: 6.00 Build 0)  -->
<!DOCTYPE svg PUBLIC "-//W3C//DTD SVG 1.1//EN" "http://www.w3.org/Graphics/SVG/1.1/DTD/svg11.dtd">
<svg version="1.1" id="Layer_1" xmlns="http://www.w3.org/2000/svg" xmlns:xlink="http://www.w3.org/1999/xlink" x="0px" y="0px"
	 width="3534px" height="795px" viewBox="0 0 3534 795" enable-background="new 0 0 3534 795" xml:space="preserve">
<path d="M265.548,514.908c39.141,0,62.321-15.58,82.081-37.62l-27.74-27.36c-14.44,14.82-30.4,24.7-52.061,24.7
	c-35.341,0-60.041-28.501-60.041-64.221v-0.761c0-34.96,24.7-63.84,58.141-63.84c22.8,0,37.621,10.26,51.68,25.081l28.881-30.781
	c-19-20.52-42.561-34.58-80.181-34.58c-60.421,0-104.501,47.88-104.501,104.881v0.76
	C161.807,468.168,205.887,514.908,265.548,514.908z"/>
<path d="M447.567,514.528c30.78,0,51.68-12.92,65.361-29.26v25.079h44.84V391.407c0-26.22-6.84-47.5-21.66-61.941
	c-14.061-14.44-36.48-22.42-66.5-22.42c-31.92,0-53.581,6.46-75.621,16.34l12.16,36.101c18.241-7.6,34.961-12.54,57.381-12.54
	c32.301,0,49.781,15.2,49.781,43.701v4.94c-15.581-4.94-31.541-8.36-53.961-8.36c-49.021,0-82.841,21.28-82.841,64.601v0.761
	C376.506,492.868,409.947,514.528,447.567,514.528z M460.487,481.088c-22.04,0-39.141-11.02-39.141-30.4v-0.76
	c0-20.9,17.48-33.44,47.121-33.44c18.241,0,33.821,3.42,45.601,7.98v13.68C514.068,463.607,490.888,481.088,460.487,481.088z"/>
<path d="M612.863,571.148h45.98v-91.961c14.06,18.621,34.961,35.341,68.401,35.341c47.501,0,93.102-37.62,93.102-104.121v-0.761
	c0-66.88-45.981-104.121-93.102-104.121c-32.68,0-53.581,16.72-68.401,37.62v-33.44h-45.98V571.148z M716.224,474.628
	c-31.161,0-58.521-25.841-58.521-64.221v-0.761c0-38.38,27.36-64.22,58.521-64.22c31.16,0,57.381,25.46,57.381,64.22v0.761
	C773.605,449.928,747.765,474.628,716.224,474.628z"/>
<path d="M868.599,278.925H918v-43.701h-49.401V278.925z M870.499,510.348h45.98V309.706h-45.98V510.348z"/>
<path d="M1043.778,513.769c17.48,0,30.02-3.8,41.42-10.261v-37.62c-9.12,4.561-18.24,6.84-28.5,6.84c-15.58,0-24.7-7.22-24.7-25.08
	v-98.421h53.96v-39.521h-53.96v-55.101h-45.981v55.101h-25.46v39.521h25.46v105.642
	C986.017,498.948,1009.958,513.769,1043.778,513.769z"/>
<path d="M1190.456,514.528c30.781,0,51.681-12.92,65.361-29.26v25.079h44.841V391.407c0-26.22-6.84-47.5-21.66-61.941
	c-14.06-14.44-36.48-22.42-66.501-22.42c-31.92,0-53.581,6.46-75.621,16.34l12.16,36.101c18.24-7.6,34.96-12.54,57.381-12.54
	c32.3,0,49.781,15.2,49.781,43.701v4.94c-15.581-4.94-31.541-8.36-53.961-8.36c-49.021,0-82.841,21.28-82.841,64.601v0.761
	C1119.396,492.868,1152.836,514.528,1190.456,514.528z M1203.376,481.088c-22.041,0-39.141-11.02-39.141-30.4v-0.76
	c0-20.9,17.48-33.44,47.121-33.44c18.24,0,33.82,3.42,45.601,7.98v13.68C1256.957,463.607,1233.777,481.088,1203.376,481.088z"/>
<path d="M1356.512,278.925h49.401v-43.701h-49.401V278.925z M1358.412,510.348h45.98V309.706h-45.98V510.348z"/>
<path d="M1464.43,510.348h45.98V397.107c0-31.161,18.62-49.781,45.22-49.781c27.361,0,42.941,17.86,42.941,49.021v114.001h45.98
	V382.287c0-46.36-26.22-76.761-71.441-76.761c-31.16,0-49.78,16.34-62.701,34.96v-30.781h-45.98V510.348z"/>
<path d="M1791.989,514.908c36.86,0,63.081-14.819,82.081-37.62l-26.98-23.94c-15.96,15.58-31.921,23.94-54.34,23.94
	c-29.641,0-52.821-18.24-57.761-50.921h147.442c0.38-4.561,0.76-8.74,0.76-12.92c0-57.761-32.301-107.921-96.142-107.921
	c-57.38,0-98.041,47.121-98.041,104.501v0.76C1689.008,472.728,1733.849,514.908,1791.989,514.908z M1734.609,395.967
	c4.18-31.16,23.94-52.821,52.06-52.821c30.4,0,47.881,23.181,50.921,52.821H1734.609z"/>
<path d="M2110.8,513.769c17.48,0,30.021-3.8,41.421-10.261v-37.62c-9.12,4.561-18.24,6.84-28.5,6.84
	c-15.581,0-24.701-7.22-24.701-25.08v-98.421h53.961v-39.521h-53.961v-55.101h-45.98v55.101h-25.46v39.521h25.46v105.642
	C2053.039,498.948,2076.979,513.769,2110.8,513.769z"/>
<path d="M2199.717,510.348h45.981v-76.38c0-53.201,28.12-79.421,68.4-79.421h2.66v-48.641c-35.341-1.52-58.521,19-71.061,49.021
	v-45.221h-45.981V510.348z"/>
<path d="M2404.918,514.528c30.781,0,51.682-12.92,65.361-29.26v25.079h44.841V391.407c0-26.22-6.84-47.5-21.661-61.941
	c-14.06-14.44-36.479-22.42-66.5-22.42c-31.921,0-53.581,6.46-75.621,16.34l12.16,36.101c18.24-7.6,34.96-12.54,57.381-12.54
	c32.301,0,49.78,15.2,49.78,43.701v4.94c-15.58-4.94-31.54-8.36-53.96-8.36c-49.021,0-82.842,21.28-82.842,64.601v0.761
	C2333.857,492.868,2367.298,514.528,2404.918,514.528z M2417.839,481.088c-22.04,0-39.141-11.02-39.141-30.4v-0.76
	c0-20.9,17.479-33.44,47.12-33.44c18.24,0,33.82,3.42,45.602,7.98v13.68C2471.42,463.607,2448.239,481.088,2417.839,481.088z"/>
<path d="M2570.974,278.925h49.401v-43.701h-49.401V278.925z M2572.874,510.348h45.98V309.706h-45.98V510.348z"/>
<path d="M2678.892,510.348h45.981V397.107c0-31.161,18.62-49.781,45.22-49.781c27.36,0,42.941,17.86,42.941,49.021v114.001h45.98
	V382.287c0-46.36-26.221-76.761-71.441-76.761c-31.16,0-49.78,16.34-62.7,34.96v-30.781h-45.981V510.348z"/>
<path fill-rule="evenodd" clip-rule="evenodd" d="M3330.427,508.949h-21.787v28.662h-15.92v-28.662h-179.581v28.662h-15.92v-28.662
	h-23.71c-7.034,0-12.736-5.789-12.736-12.931v-32c95.399,6.652,187.091,6.285,282.392,0.215v31.785
	C3343.164,503.16,3337.461,508.949,3330.427,508.949z M3060.772,452.543V239.047c0-7.142,5.702-12.931,12.736-12.931h256.918
	c7.034,0,12.737,5.79,12.737,12.931v213.675C3247.804,456.4,3155.066,455.902,3060.772,452.543z M3185.735,265.693
	c0-3.517-2.851-6.368-6.368-6.368h-82.148c-3.518,0-6.368,2.851-6.368,6.368v56.676c0,3.517,2.851,6.368,6.368,6.368h82.148
	c3.518,0,6.368-2.851,6.368-6.368V265.693z M3220.76,322.37c0,3.517,2.852,6.368,6.368,6.368h82.148
	c3.517,0,6.368-2.851,6.368-6.368v-56.676c0-3.517-2.852-6.368-6.368-6.368h-82.148c-3.517,0-6.368,2.851-6.368,6.368V322.37z"/>
</svg>
