<?xml version="1.0" encoding="UTF-8"?>
<svg xmlns="http://www.w3.org/2000/svg" xmlns:xlink="http://www.w3.org/1999/xlink" width="841.89pt" height="595.28pt" viewBox="0 0 841.89 595.28" version="1.1">
<g id="surface1">
<path style=" stroke:none;fill-rule:nonzero;fill:rgb(0%,0%,0%);fill-opacity:1;" d="M 130.230469 206.585938 C 228.152344 82.96875 396.546875 90.230469 448.609375 154.730469 C 417.519531 134.121094 371.761719 118.402344 335.964844 123.558594 C 392.429688 130.613281 410.402344 156.691406 419.066406 168.933594 C 399.441406 155.054688 349.640625 124.648438 299 133.898438 C 334.570312 138.277344 375.433594 155.074219 392.199219 184.875 C 363.554688 163.683594 315.625 136.625 270.113281 147.089844 C 309.332031 152.410156 348.75 169.21875 366.375 201.695312 C 334.667969 179.476562 220.214844 133.421875 130.230469 206.585938 "/>
<path style=" stroke:none;fill-rule:nonzero;fill:rgb(0%,0%,0%);fill-opacity:1;" d="M 702.355469 174.886719 C 604.527344 298.769531 432.160156 290.363281 380.09375 225.824219 C 411.195312 246.476562 469.753906 269.789062 505.003906 262.152344 C 449.402344 252.605469 418.019531 223.964844 409.628906 211.648438 C 428.96875 225.609375 479.628906 257.28125 530.273438 248.03125 C 494.695312 243.648438 453.28125 225.507812 436.222656 195.800781 C 464.855469 216.949219 513.929688 245.210938 559.480469 235.03125 C 520.226562 229.4375 479.945312 211.34375 462.042969 178.945312 C 494.042969 201.101562 612.449219 248.324219 702.355469 174.886719 "/>
<path style=" stroke:none;fill-rule:evenodd;fill:rgb(83.099365%,20.399475%,15.299988%);fill-opacity:1;" d="M 604.570312 108.777344 L 606.230469 120.308594 C 567.492188 120.535156 530.316406 126.695312 494.78125 138.476562 C 465.097656 148.4375 431.835938 164.332031 394.984375 186.367188 C 348.863281 214.53125 316.855469 232.550781 299.347656 240.804688 C 261.667969 258.625 223.535156 268.769531 184.828125 271.125 C 229.441406 272.816406 271.800781 267.089844 312.417969 253.75 C 342.324219 243.796875 376.015625 227.664062 413.28125 205.210938 C 454.148438 181.066406 485.730469 164.105469 508.074219 154.132812 C 540.164062 140.265625 572.894531 129.855469 606.601562 122.964844 L 608.269531 134.40625 L 644.789062 115.984375 Z "/>
<path style=" stroke:none;fill-rule:nonzero;fill:rgb(0%,0%,0%);fill-opacity:1;" d="M 190.335938 301.847656 L 200.304688 301.847656 L 211.625 358.402344 L 222.820312 301.847656 L 232.292969 301.847656 L 239.386719 383.425781 L 229.167969 383.425781 L 225.953125 326.097656 L 214.984375 383.425781 L 207.515625 383.425781 L 196.804688 326.097656 L 193.441406 383.425781 L 183.464844 383.425781 Z "/>
<path style=" stroke:none;fill-rule:nonzero;fill:rgb(0%,0%,0%);fill-opacity:1;" d="M 266.171875 301.847656 L 277.386719 301.847656 L 277.386719 383.425781 L 266.171875 383.425781 Z "/>
<path style=" stroke:none;fill-rule:nonzero;fill:rgb(0%,0%,0%);fill-opacity:1;" d="M 315.597656 337.386719 C 320.179688 337.386719 323.886719 336.78125 326.765625 335.453125 C 329.605469 334.167969 331.070312 330.742188 331.175781 325.15625 L 331.175781 323.652344 C 331.175781 317.902344 329.945312 314.449219 327.421875 313.289062 C 324.941406 312.105469 321.011719 311.523438 315.597656 311.523438 Z M 315.597656 383.425781 L 304.507812 383.425781 L 304.507812 301.800781 L 317.851562 301.800781 C 325.328125 301.800781 331.25 303.164062 335.660156 305.964844 C 340.070312 308.773438 342.25 314.351562 342.25 322.65625 C 342.25 328.308594 341.132812 332.929688 338.953125 336.492188 C 336.742188 340.066406 332.742188 342.277344 326.953125 343.222656 L 346.371094 383.425781 L 334.40625 383.425781 L 315.867188 343.75 L 315.597656 343.75 Z "/>
<path style=" stroke:none;fill-rule:nonzero;fill:rgb(0%,0%,0%);fill-opacity:1;" d="M 390.078125 322.886719 L 382.597656 358.113281 L 397.40625 358.113281 Z M 384.84375 301.800781 L 395.175781 301.800781 L 414.09375 383.425781 L 403.273438 383.425781 L 399.164062 367.199219 L 380.601562 367.199219 L 376.746094 383.425781 L 365.648438 383.425781 Z "/>
<path style=" stroke:none;fill-rule:nonzero;fill:rgb(0%,0%,0%);fill-opacity:1;" d="M 441.992188 301.847656 L 452.335938 301.847656 L 474.019531 358.402344 L 474.019531 301.847656 L 484.222656 301.847656 L 484.222656 383.425781 L 474.019531 383.425781 L 452.601562 326.265625 L 452.601562 383.425781 L 441.992188 383.425781 Z "/>
<path style=" stroke:none;fill-rule:nonzero;fill:rgb(0%,0%,0%);fill-opacity:1;" d="M 524.6875 311.945312 L 509.757812 311.945312 L 509.757812 301.800781 L 550.859375 301.800781 L 550.859375 311.945312 L 535.78125 311.945312 L 535.78125 383.425781 L 524.6875 383.425781 Z "/>
<path style=" stroke:none;fill-rule:nonzero;fill:rgb(0%,0%,0%);fill-opacity:1;" d="M 573.183594 301.847656 L 584.378906 301.847656 L 584.378906 383.425781 L 573.183594 383.425781 Z "/>
<path style=" stroke:none;fill-rule:nonzero;fill:rgb(0%,0%,0%);fill-opacity:1;" d="M 610.367188 369.640625 C 610.722656 369.78125 611.039062 369.964844 611.371094 370.117188 C 612.542969 370.796875 613.804688 371.410156 615.109375 371.996094 C 616.445312 372.585938 617.804688 373.082031 619.230469 373.519531 C 619.964844 373.648438 620.726562 373.796875 621.53125 373.941406 C 622.320312 374.042969 623.089844 374.121094 623.820312 374.121094 L 624.972656 374.121094 C 626.609375 373.941406 628.195312 373.394531 629.691406 372.445312 C 631.1875 371.472656 632.289062 370.035156 633.054688 368.144531 C 633.3125 367.714844 633.480469 367.3125 633.605469 366.875 C 633.71875 366.449219 633.832031 366.011719 633.933594 365.511719 C 633.933594 365.097656 633.953125 364.671875 633.972656 364.261719 C 634.03125 363.871094 634.050781 363.429688 634.050781 363.035156 C 634.050781 360.128906 633.054688 357.421875 631.125 354.964844 C 629.171875 352.535156 626.988281 350.269531 624.546875 348.179688 C 623.746094 347.515625 622.941406 346.867188 622.222656 346.253906 C 621.480469 345.628906 620.710938 345.023438 619.964844 344.414062 C 617.210938 342.097656 614.738281 339.546875 612.480469 336.722656 C 610.242188 333.886719 608.761719 330.59375 608.027344 326.847656 C 608.027344 326.539062 607.972656 326.210938 607.914062 325.84375 C 607.789062 325.542969 607.789062 325.199219 607.789062 324.859375 C 607.6875 324.859375 607.640625 324.816406 607.640625 324.746094 L 607.640625 324.519531 C 607.589844 324.179688 607.492188 323.796875 607.441406 323.363281 C 607.421875 322.988281 607.394531 322.597656 607.394531 322.261719 C 607.394531 319.230469 608.046875 316.246094 609.324219 313.402344 C 610.617188 310.558594 612.429688 308.082031 614.738281 306.015625 C 616.40625 304.441406 618.230469 303.265625 620.203125 302.523438 C 622.222656 301.773438 624.238281 301.324219 626.3125 301.164062 L 627.824219 301.164062 C 628.878906 301.164062 629.960938 301.199219 631.039062 301.339844 C 632.140625 301.464844 633.269531 301.660156 634.414062 301.902344 C 635.765625 302.226562 637.050781 302.597656 638.320312 303.015625 C 639.605469 303.441406 640.886719 303.960938 642.128906 304.527344 L 642.128906 315.445312 C 641.988281 315.363281 641.789062 315.28125 641.566406 315.148438 C 641.367188 314.996094 641.167969 314.894531 641.023438 314.8125 C 639.929688 314.257812 638.769531 313.675781 637.457031 313.160156 C 636.191406 312.597656 634.882812 312.1875 633.550781 311.847656 C 632.800781 311.660156 632.042969 311.523438 631.300781 311.398438 C 630.558594 311.261719 629.796875 311.199219 629.0625 311.199219 L 628.324219 311.199219 C 626.664062 311.300781 625.027344 311.75 623.441406 312.582031 C 621.898438 313.402344 620.640625 314.769531 619.710938 316.675781 C 619.46875 317.183594 619.246094 317.734375 619.046875 318.367188 C 618.820312 318.976562 618.671875 319.609375 618.601562 320.289062 C 618.601562 320.597656 618.582031 320.921875 618.550781 321.273438 C 618.503906 321.597656 618.480469 321.9375 618.480469 322.261719 C 618.480469 322.597656 618.503906 322.9375 618.550781 323.25 C 618.582031 323.585938 618.601562 323.871094 618.601562 324.128906 C 618.671875 324.792969 618.820312 325.4375 619.046875 326.085938 C 619.246094 326.699219 619.46875 327.273438 619.710938 327.84375 C 621.058594 330.414062 622.730469 332.636719 624.824219 334.515625 C 626.90625 336.394531 629.0625 338.230469 631.300781 340.066406 C 633.78125 342.054688 636.191406 344.164062 638.460938 346.300781 C 640.730469 348.476562 642.511719 351.09375 643.75 354.164062 C 644.089844 354.902344 644.316406 355.75 644.515625 356.714844 C 644.667969 357.675781 644.796875 358.605469 644.867188 359.53125 C 644.867188 360.03125 644.90625 360.503906 644.9375 360.957031 C 644.992188 361.402344 645.015625 361.894531 645.015625 362.394531 C 645.015625 362.882812 644.992188 363.402344 644.9375 363.953125 C 644.90625 364.503906 644.835938 365.054688 644.738281 365.644531 C 644.585938 367.039062 644.308594 368.453125 643.949219 369.878906 C 643.582031 371.292969 643.101562 372.585938 642.511719 373.722656 C 640.667969 377.46875 638.09375 380.109375 634.769531 381.664062 C 631.460938 383.21875 627.976562 383.960938 624.324219 383.960938 C 623.589844 383.960938 622.792969 383.917969 622.023438 383.832031 C 621.261719 383.753906 620.429688 383.667969 619.601562 383.59375 C 617.863281 383.425781 616.097656 383.042969 614.375 382.464844 C 612.625 381.886719 611.019531 381.210938 609.515625 380.46875 L 609.515625 369.132812 C 609.761719 369.300781 610.074219 369.457031 610.367188 369.640625 "/>
<path style=" stroke:none;fill-rule:nonzero;fill:rgb(0%,0%,0%);fill-opacity:1;" d="M 193.085938 424.589844 C 192.203125 424.589844 191.351562 424.621094 190.53125 424.691406 C 189.714844 424.753906 189.0625 424.855469 188.578125 424.988281 L 188.578125 444.75 C 188.753906 444.839844 189.027344 444.898438 189.40625 444.917969 C 189.78125 444.941406 190.167969 444.960938 190.566406 444.984375 C 190.964844 445.007812 191.351562 445.019531 191.726562 445.019531 L 192.558594 445.019531 C 193.792969 445.019531 194.988281 444.863281 196.136719 444.550781 C 197.285156 444.242188 198.304688 443.679688 199.1875 442.863281 C 200.070312 442.042969 200.789062 440.9375 201.34375 439.546875 C 201.898438 438.152344 202.171875 436.394531 202.171875 434.273438 C 202.171875 432.414062 201.917969 430.867188 201.410156 429.628906 C 200.902344 428.394531 200.238281 427.398438 199.417969 426.648438 C 198.601562 425.894531 197.640625 425.363281 196.535156 425.054688 C 195.429688 424.746094 194.28125 424.589844 193.085938 424.589844 M 183.605469 421.007812 C 185.019531 420.609375 186.523438 420.34375 188.113281 420.210938 C 189.703125 420.078125 191.273438 420.011719 192.820312 420.011719 C 194.589844 420.011719 196.335938 420.210938 198.0625 420.609375 C 199.785156 421.007812 201.34375 421.738281 202.734375 422.800781 C 204.128906 423.859375 205.257812 425.320312 206.117188 427.175781 C 206.980469 429.035156 207.410156 431.398438 207.410156 434.273438 C 207.410156 437.058594 207.003906 439.425781 206.1875 441.371094 C 205.367188 443.316406 204.28125 444.898438 202.9375 446.109375 C 201.585938 447.328125 200.039062 448.210938 198.292969 448.765625 C 196.546875 449.316406 194.746094 449.59375 192.890625 449.59375 L 192.023438 449.59375 C 191.628906 449.59375 191.207031 449.582031 190.765625 449.5625 C 190.324219 449.539062 189.894531 449.503906 189.472656 449.460938 C 189.050781 449.417969 188.753906 449.371094 188.578125 449.328125 L 188.578125 466.96875 L 183.605469 466.96875 Z "/>
<path style=" stroke:none;fill-rule:nonzero;fill:rgb(0%,0%,0%);fill-opacity:1;" d="M 217.054688 433.808594 L 217.054688 454.101562 C 217.054688 457.464844 217.398438 459.863281 218.082031 461.296875 C 218.769531 462.734375 220.015625 463.453125 221.828125 463.453125 C 222.757812 463.453125 223.585938 463.265625 224.316406 462.890625 C 225.046875 462.515625 225.699219 462.019531 226.273438 461.398438 C 226.847656 460.78125 227.355469 460.074219 227.796875 459.277344 C 228.242188 458.480469 228.59375 457.664062 228.859375 456.824219 L 228.859375 433.808594 L 233.632812 433.808594 L 233.632812 457.550781 C 233.632812 459.144531 233.691406 460.789062 233.800781 462.492188 C 233.910156 464.195312 234.074219 465.6875 234.296875 466.96875 L 230.914062 466.96875 L 229.722656 462.328125 L 229.523438 462.328125 C 228.773438 463.785156 227.6875 465.058594 226.273438 466.140625 C 224.859375 467.222656 223.089844 467.765625 220.96875 467.765625 C 219.550781 467.765625 218.316406 467.589844 217.253906 467.234375 C 216.195312 466.882812 215.285156 466.242188 214.535156 465.3125 C 213.78125 464.382812 213.21875 463.113281 212.84375 461.496094 C 212.464844 459.882812 212.28125 457.816406 212.28125 455.296875 L 212.28125 433.808594 Z "/>
<path style=" stroke:none;fill-rule:nonzero;fill:rgb(0%,0%,0%);fill-opacity:1;" d="M 240.625 433.808594 L 244.007812 433.808594 L 244.867188 437.324219 L 245.066406 437.324219 C 245.6875 436.042969 246.492188 435.035156 247.488281 434.304688 C 248.484375 433.578125 249.6875 433.210938 251.105469 433.210938 C 252.121094 433.210938 253.269531 433.410156 254.554688 433.808594 L 253.625 438.648438 C 252.472656 438.253906 251.457031 438.054688 250.574219 438.054688 C 249.15625 438.054688 248.007812 438.460938 247.125 439.28125 C 246.238281 440.097656 245.664062 441.191406 245.398438 442.5625 L 245.398438 466.96875 L 240.625 466.96875 Z "/>
<path style=" stroke:none;fill-rule:nonzero;fill:rgb(0%,0%,0%);fill-opacity:1;" d="M 274.234375 446.941406 C 274.324219 443.625 273.859375 441.191406 272.84375 439.644531 C 271.824219 438.097656 270.433594 437.324219 268.664062 437.324219 C 266.632812 437.324219 265.015625 438.097656 263.824219 439.644531 C 262.628906 441.191406 261.921875 443.625 261.703125 446.941406 Z M 277.949219 464.714844 C 276.886719 465.6875 275.539062 466.4375 273.90625 466.96875 C 272.265625 467.5 270.542969 467.765625 268.730469 467.765625 C 266.652344 467.765625 264.851562 467.355469 263.328125 466.539062 C 261.800781 465.71875 260.539062 464.546875 259.546875 463.023438 C 258.550781 461.5 257.820312 459.675781 257.355469 457.550781 C 256.890625 455.429688 256.660156 453.042969 256.660156 450.390625 C 256.660156 444.730469 257.699219 440.417969 259.777344 437.457031 C 261.855469 434.496094 264.796875 433.011719 268.597656 433.011719 C 269.835938 433.011719 271.0625 433.167969 272.28125 433.476562 C 273.496094 433.789062 274.589844 434.40625 275.5625 435.335938 C 276.535156 436.261719 277.320312 437.566406 277.917969 439.246094 C 278.511719 440.925781 278.8125 443.117188 278.8125 445.8125 C 278.8125 446.566406 278.78125 447.371094 278.714844 448.234375 C 278.644531 449.09375 278.566406 449.992188 278.480469 450.917969 L 261.632812 450.917969 C 261.632812 452.820312 261.789062 454.546875 262.097656 456.09375 C 262.410156 457.640625 262.894531 458.957031 263.558594 460.039062 C 264.21875 461.125 265.074219 461.960938 266.109375 462.558594 C 267.148438 463.15625 268.441406 463.457031 269.992188 463.457031 C 271.183594 463.457031 272.367188 463.234375 273.539062 462.792969 C 274.710938 462.347656 275.605469 461.820312 276.222656 461.199219 Z "/>
<path style=" stroke:none;fill-rule:nonzero;fill:rgb(0%,0%,0%);fill-opacity:1;" d="M 310.710938 424.589844 C 309.824219 424.589844 308.976562 424.621094 308.15625 424.691406 C 307.339844 424.753906 306.6875 424.855469 306.199219 424.988281 L 306.199219 444.75 C 306.378906 444.839844 306.652344 444.898438 307.03125 444.917969 C 307.40625 444.941406 307.792969 444.960938 308.191406 444.984375 C 308.589844 445.007812 308.976562 445.019531 309.351562 445.019531 L 310.179688 445.019531 C 311.417969 445.019531 312.609375 444.863281 313.761719 444.550781 C 314.910156 444.242188 315.929688 443.679688 316.8125 442.863281 C 317.695312 442.042969 318.414062 440.9375 318.96875 439.546875 C 319.523438 438.152344 319.796875 436.394531 319.796875 434.273438 C 319.796875 432.414062 319.542969 430.867188 319.035156 429.628906 C 318.523438 428.394531 317.863281 427.398438 317.042969 426.648438 C 316.226562 425.894531 315.265625 425.363281 314.160156 425.054688 C 313.054688 424.746094 311.90625 424.589844 310.710938 424.589844 M 301.226562 421.007812 C 302.644531 420.609375 304.144531 420.34375 305.738281 420.210938 C 307.328125 420.078125 308.898438 420.011719 310.445312 420.011719 C 312.214844 420.011719 313.960938 420.210938 315.6875 420.609375 C 317.410156 421.007812 318.96875 421.738281 320.359375 422.800781 C 321.753906 423.859375 322.882812 425.320312 323.742188 427.175781 C 324.605469 429.035156 325.035156 431.398438 325.035156 434.273438 C 325.035156 437.058594 324.625 439.425781 323.8125 441.371094 C 322.992188 443.316406 321.90625 444.898438 320.5625 446.109375 C 319.210938 447.328125 317.664062 448.210938 315.917969 448.765625 C 314.167969 449.316406 312.367188 449.59375 310.511719 449.59375 L 309.648438 449.59375 C 309.25 449.59375 308.832031 449.582031 308.390625 449.5625 C 307.945312 449.539062 307.515625 449.503906 307.097656 449.460938 C 306.675781 449.417969 306.378906 449.371094 306.199219 449.328125 L 306.199219 466.96875 L 301.226562 466.96875 Z "/>
<path style=" stroke:none;fill-rule:nonzero;fill:rgb(0%,0%,0%);fill-opacity:1;" d="M 335.042969 459.078125 C 335.042969 460.625 335.253906 461.730469 335.675781 462.394531 C 336.09375 463.054688 336.679688 463.390625 337.433594 463.390625 C 338.359375 463.390625 339.441406 463.144531 340.683594 462.660156 L 341.144531 466.507812 C 340.570312 466.859375 339.765625 467.144531 338.726562 467.367188 C 337.6875 467.589844 336.746094 467.699219 335.90625 467.699219 C 334.226562 467.699219 332.863281 467.179688 331.828125 466.140625 C 330.789062 465.101562 330.269531 463.277344 330.269531 460.667969 L 330.269531 420.542969 L 335.042969 420.542969 Z "/>
<path style=" stroke:none;fill-rule:nonzero;fill:rgb(0%,0%,0%);fill-opacity:1;" d="M 359.914062 451.847656 C 359.476562 451.804688 359.039062 451.769531 358.601562 451.75 C 358.167969 451.726562 357.730469 451.714844 357.292969 451.714844 C 356.242188 451.714844 355.21875 451.804688 354.210938 451.980469 C 353.207031 452.160156 352.3125 452.46875 351.527344 452.910156 C 350.738281 453.351562 350.117188 453.949219 349.65625 454.699219 C 349.199219 455.453125 348.972656 456.402344 348.972656 457.550781 C 348.972656 459.320312 349.394531 460.691406 350.25 461.664062 C 351.101562 462.636719 352.203125 463.121094 353.558594 463.121094 C 355.390625 463.121094 356.808594 462.679688 357.816406 461.796875 C 358.820312 460.914062 359.519531 459.9375 359.914062 458.878906 Z M 345.652344 435.796875 C 346.9375 435.003906 348.496094 434.382812 350.332031 433.941406 C 352.164062 433.5 354.101562 433.277344 356.132812 433.277344 C 357.988281 433.277344 359.480469 433.554688 360.609375 434.105469 C 361.738281 434.660156 362.621094 435.410156 363.265625 436.363281 C 363.902344 437.3125 364.324219 438.394531 364.523438 439.613281 C 364.722656 440.828125 364.820312 442.097656 364.820312 443.425781 C 364.820312 446.078125 364.765625 448.664062 364.648438 451.183594 C 364.535156 453.703125 364.480469 456.09375 364.480469 458.347656 C 364.480469 460.027344 364.535156 461.585938 364.648438 463.023438 C 364.765625 464.460938 364.976562 465.820312 365.285156 467.101562 L 361.546875 467.101562 L 360.386719 463.1875 L 360.125 463.1875 C 359.464844 464.339844 358.5 465.335938 357.226562 466.171875 C 355.957031 467.011719 354.242188 467.433594 352.09375 467.433594 C 349.722656 467.433594 347.78125 466.605469 346.269531 464.949219 C 344.753906 463.289062 343.996094 461 343.996094 458.082031 C 343.996094 456.179688 344.3125 454.589844 344.949219 453.308594 C 345.585938 452.027344 346.484375 450.988281 347.648438 450.191406 C 348.808594 449.394531 350.191406 448.832031 351.792969 448.5 C 353.390625 448.167969 355.179688 448 357.152344 448 L 358.46875 448 C 358.90625 448 359.367188 448.023438 359.851562 448.070312 C 359.980469 446.699219 360.046875 445.480469 360.046875 444.421875 C 360.046875 441.902344 359.675781 440.132812 358.929688 439.113281 C 358.183594 438.097656 356.824219 437.589844 354.855469 437.589844 C 353.628906 437.589844 352.292969 437.777344 350.847656 438.152344 C 349.398438 438.53125 348.195312 439.003906 347.230469 439.578125 Z "/>
<path style=" stroke:none;fill-rule:nonzero;fill:rgb(0%,0%,0%);fill-opacity:1;" d="M 379.847656 455.230469 L 381.242188 461.664062 L 381.574219 461.664062 L 382.570312 455.230469 L 387.609375 433.808594 L 392.453125 433.808594 L 384.558594 463.585938 C 383.941406 465.972656 383.320312 468.207031 382.703125 470.285156 C 382.082031 472.363281 381.410156 474.167969 380.679688 475.691406 C 379.949219 477.214844 379.128906 478.410156 378.222656 479.273438 C 377.320312 480.132812 376.246094 480.566406 375.007812 480.566406 C 373.769531 480.566406 372.6875 480.367188 371.757812 479.96875 L 372.554688 475.460938 C 373.171875 475.679688 373.789062 475.722656 374.410156 475.589844 C 375.03125 475.460938 375.617188 475.082031 376.167969 474.464844 C 376.71875 473.84375 377.230469 472.925781 377.695312 471.710938 C 378.160156 470.496094 378.566406 468.914062 378.921875 466.96875 L 368.175781 433.808594 L 373.617188 433.808594 Z "/>
<path style=" stroke:none;fill-rule:nonzero;fill:rgb(83.099365%,20.399475%,15.299988%);fill-opacity:1;" d="M 416.125 443.757812 C 416.125 446.367188 416.3125 448.839844 416.691406 451.1875 C 417.066406 453.527344 417.652344 455.585938 418.445312 457.355469 C 419.242188 459.121094 420.28125 460.535156 421.5625 461.597656 C 422.847656 462.660156 424.394531 463.191406 426.207031 463.191406 C 429.523438 463.191406 432.042969 461.597656 433.769531 458.414062 C 435.492188 455.230469 436.355469 450.34375 436.355469 443.757812 C 436.355469 441.195312 436.164062 438.738281 435.789062 436.394531 C 435.414062 434.050781 434.828125 431.984375 434.03125 430.195312 C 433.238281 428.402344 432.199219 426.976562 430.914062 425.917969 C 429.632812 424.855469 428.0625 424.324219 426.207031 424.324219 C 422.933594 424.324219 420.4375 425.917969 418.714844 429.101562 C 416.988281 432.28125 416.125 437.167969 416.125 443.757812 M 410.886719 443.757812 C 410.886719 435.886719 412.148438 429.917969 414.667969 425.851562 C 417.1875 421.78125 421.035156 419.75 426.207031 419.75 C 428.992188 419.75 431.355469 420.3125 433.304688 421.441406 C 435.25 422.566406 436.828125 424.171875 438.046875 426.246094 C 439.261719 428.328125 440.15625 430.847656 440.730469 433.808594 C 441.304688 436.773438 441.59375 440.085938 441.59375 443.757812 C 441.59375 451.628906 440.320312 457.597656 437.78125 461.664062 C 435.238281 465.734375 431.378906 467.765625 426.207031 467.765625 C 423.464844 467.765625 421.121094 467.203125 419.175781 466.074219 C 417.230469 464.945312 415.640625 463.34375 414.402344 461.265625 C 413.164062 459.1875 412.269531 456.667969 411.714844 453.703125 C 411.164062 450.742188 410.886719 447.425781 410.886719 443.757812 "/>
<path style=" stroke:none;fill-rule:nonzero;fill:rgb(83.099365%,20.399475%,15.299988%);fill-opacity:1;" d="M 452.742188 461.730469 C 453.359375 462.261719 454.054688 462.679688 454.832031 462.988281 C 455.605469 463.300781 456.632812 463.457031 457.914062 463.457031 C 460.257812 463.457031 462.113281 462.261719 463.484375 459.875 C 464.855469 457.484375 465.542969 454.082031 465.542969 449.660156 C 465.542969 447.800781 465.421875 446.125 465.175781 444.621094 C 464.933594 443.117188 464.546875 441.824219 464.015625 440.738281 C 463.484375 439.65625 462.8125 438.816406 461.996094 438.21875 C 461.175781 437.621094 460.171875 437.324219 458.976562 437.324219 C 455.75 437.324219 453.671875 439.292969 452.742188 443.226562 Z M 447.96875 433.808594 L 451.347656 433.808594 L 452.078125 437.390625 L 452.34375 437.390625 C 453.980469 434.472656 456.542969 433.011719 460.039062 433.011719 C 463.527344 433.011719 466.148438 434.316406 467.894531 436.925781 C 469.640625 439.535156 470.515625 443.800781 470.515625 449.726562 C 470.515625 452.511719 470.226562 455.019531 469.652344 457.253906 C 469.078125 459.484375 468.261719 461.386719 467.199219 462.957031 C 466.136719 464.527344 464.847656 465.71875 463.320312 466.539062 C 461.796875 467.355469 460.101562 467.765625 458.246094 467.765625 C 456.964844 467.765625 455.945312 467.6875 455.195312 467.53125 C 454.441406 467.378906 453.625 467.058594 452.742188 466.570312 L 452.742188 480.234375 L 447.96875 480.234375 Z "/>
<path style=" stroke:none;fill-rule:nonzero;fill:rgb(83.099365%,20.399475%,15.299988%);fill-opacity:1;" d="M 492.621094 446.941406 C 492.710938 443.625 492.246094 441.191406 491.226562 439.644531 C 490.210938 438.097656 488.816406 437.324219 487.050781 437.324219 C 485.015625 437.324219 483.402344 438.097656 482.207031 439.644531 C 481.015625 441.191406 480.308594 443.625 480.085938 446.941406 Z M 496.335938 464.714844 C 495.273438 465.6875 493.925781 466.4375 492.289062 466.96875 C 490.652344 467.5 488.929688 467.765625 487.117188 467.765625 C 485.035156 467.765625 483.234375 467.355469 481.710938 466.539062 C 480.183594 465.71875 478.925781 464.546875 477.929688 463.023438 C 476.933594 461.5 476.207031 459.675781 475.742188 457.550781 C 475.277344 455.429688 475.046875 453.042969 475.046875 450.390625 C 475.046875 444.730469 476.085938 440.417969 478.164062 437.457031 C 480.238281 434.496094 483.179688 433.011719 486.984375 433.011719 C 488.222656 433.011719 489.449219 433.167969 490.664062 433.476562 C 491.878906 433.789062 492.976562 434.40625 493.945312 435.335938 C 494.917969 436.261719 495.707031 437.566406 496.300781 439.246094 C 496.898438 440.925781 497.195312 443.117188 497.195312 445.8125 C 497.195312 446.566406 497.164062 447.371094 497.097656 448.234375 C 497.03125 449.09375 496.953125 449.992188 496.863281 450.917969 L 480.019531 450.917969 C 480.019531 452.820312 480.175781 454.546875 480.484375 456.09375 C 480.792969 457.640625 481.28125 458.957031 481.941406 460.039062 C 482.605469 461.125 483.457031 461.960938 484.496094 462.558594 C 485.535156 463.15625 486.828125 463.457031 488.375 463.457031 C 489.570312 463.457031 490.753906 463.234375 491.925781 462.792969 C 493.097656 462.347656 493.992188 461.820312 494.609375 461.199219 Z "/>
<path style=" stroke:none;fill-rule:nonzero;fill:rgb(83.099365%,20.399475%,15.299988%);fill-opacity:1;" d="M 519.78125 466.96875 L 519.78125 446.742188 C 519.78125 443.425781 519.390625 441.027344 518.617188 439.546875 C 517.84375 438.066406 516.464844 437.324219 514.472656 437.324219 C 512.703125 437.324219 511.246094 437.855469 510.09375 438.914062 C 508.945312 439.976562 508.105469 441.28125 507.578125 442.828125 L 507.578125 466.96875 L 502.800781 466.96875 L 502.800781 433.808594 L 506.25 433.808594 L 507.109375 437.324219 L 507.308594 437.324219 C 508.148438 436.128906 509.289062 435.113281 510.726562 434.273438 C 512.164062 433.433594 513.875 433.011719 515.867188 433.011719 C 517.28125 433.011719 518.53125 433.210938 519.613281 433.609375 C 520.695312 434.007812 521.601562 434.683594 522.332031 435.632812 C 523.0625 436.582031 523.613281 437.855469 523.992188 439.445312 C 524.367188 441.039062 524.554688 443.050781 524.554688 445.480469 L 524.554688 466.96875 Z "/>
<path style=" stroke:none;fill-rule:nonzero;fill:rgb(83.099365%,20.399475%,15.299988%);fill-opacity:1;" d="M 531.332031 460.800781 C 532.171875 461.375 533.355469 461.917969 534.878906 462.425781 C 536.40625 462.933594 538.140625 463.191406 540.085938 463.191406 C 542.5625 463.191406 544.574219 462.582031 546.121094 461.363281 C 547.667969 460.152344 548.441406 458.238281 548.441406 455.628906 C 548.441406 453.90625 548 452.402344 547.117188 451.117188 C 546.230469 449.835938 545.128906 448.65625 543.800781 447.570312 C 542.472656 446.488281 541.046875 445.425781 539.523438 444.386719 C 537.996094 443.347656 536.570312 442.199219 535.246094 440.9375 C 533.917969 439.679688 532.8125 438.230469 531.929688 436.59375 C 531.042969 434.957031 530.601562 432.992188 530.601562 430.691406 C 530.601562 426.976562 531.71875 424.226562 533.949219 422.433594 C 536.183594 420.644531 539.09375 419.75 542.671875 419.75 C 544.882812 419.75 546.851562 419.949219 548.574219 420.34375 C 550.300781 420.742188 551.691406 421.253906 552.753906 421.871094 L 551.160156 426.246094 C 550.367188 425.761719 549.226562 425.320312 547.746094 424.921875 C 546.265625 424.523438 544.550781 424.324219 542.605469 424.324219 C 540.21875 424.324219 538.449219 424.910156 537.300781 426.082031 C 536.148438 427.253906 535.574219 428.722656 535.574219 430.492188 C 535.574219 432.039062 536.019531 433.410156 536.902344 434.605469 C 537.785156 435.796875 538.894531 436.925781 540.21875 437.988281 C 541.546875 439.046875 542.972656 440.121094 544.496094 441.203125 C 546.023438 442.289062 547.449219 443.492188 548.773438 444.820312 C 550.101562 446.144531 551.203125 447.648438 552.089844 449.328125 C 552.976562 451.007812 553.417969 453 553.417969 455.296875 C 553.417969 459.1875 552.265625 462.238281 549.96875 464.449219 C 547.667969 466.660156 544.417969 467.765625 540.21875 467.765625 C 537.566406 467.765625 535.386719 467.523438 533.6875 467.035156 C 531.984375 466.550781 530.625 465.996094 529.605469 465.378906 Z "/>
<path style=" stroke:none;fill-rule:nonzero;fill:rgb(83.099365%,20.399475%,15.299988%);fill-opacity:1;" d="M 555.0625 433.808594 L 559.109375 433.808594 L 559.109375 427.242188 L 563.882812 425.71875 L 563.882812 433.808594 L 571.042969 433.808594 L 571.042969 438.121094 L 563.882812 438.121094 L 563.882812 457.882812 C 563.882812 459.828125 564.113281 461.234375 564.578125 462.09375 C 565.042969 462.957031 565.804688 463.386719 566.867188 463.386719 C 567.75 463.386719 568.511719 463.289062 569.15625 463.089844 C 569.796875 462.890625 570.492188 462.636719 571.246094 462.328125 L 572.171875 466.105469 C 571.199219 466.59375 570.125 466.980469 568.957031 467.269531 C 567.785156 467.554688 566.554688 467.699219 565.277344 467.699219 C 563.0625 467.699219 561.484375 466.980469 560.535156 465.542969 C 559.582031 464.105469 559.109375 461.773438 559.109375 458.546875 L 559.109375 438.121094 L 555.0625 438.121094 Z "/>
<path style=" stroke:none;fill-rule:nonzero;fill:rgb(83.099365%,20.399475%,15.299988%);fill-opacity:1;" d="M 590.84375 451.847656 C 590.402344 451.804688 589.96875 451.769531 589.53125 451.75 C 589.09375 451.726562 588.65625 451.714844 588.222656 451.714844 C 587.171875 451.714844 586.144531 451.804688 585.140625 451.980469 C 584.136719 452.160156 583.238281 452.46875 582.453125 452.910156 C 581.667969 453.351562 581.042969 453.949219 580.585938 454.699219 C 580.125 455.453125 579.898438 456.402344 579.898438 457.550781 C 579.898438 459.320312 580.324219 460.691406 581.175781 461.664062 C 582.027344 462.636719 583.128906 463.121094 584.484375 463.121094 C 586.320312 463.121094 587.738281 462.679688 588.742188 461.796875 C 589.75 460.914062 590.445312 459.9375 590.84375 458.878906 Z M 576.582031 435.796875 C 577.863281 435.003906 579.421875 434.382812 581.257812 433.941406 C 583.09375 433.5 585.027344 433.277344 587.0625 433.277344 C 588.917969 433.277344 590.410156 433.554688 591.539062 434.105469 C 592.664062 434.660156 593.546875 435.410156 594.191406 436.363281 C 594.832031 437.3125 595.25 438.394531 595.449219 439.613281 C 595.648438 440.828125 595.75 442.097656 595.75 443.425781 C 595.75 446.078125 595.691406 448.664062 595.578125 451.183594 C 595.464844 453.703125 595.40625 456.09375 595.40625 458.347656 C 595.40625 460.027344 595.464844 461.585938 595.578125 463.023438 C 595.691406 464.460938 595.902344 465.820312 596.214844 467.101562 L 592.476562 467.101562 L 591.316406 463.1875 L 591.050781 463.1875 C 590.394531 464.339844 589.429688 465.335938 588.15625 466.171875 C 586.882812 467.011719 585.171875 467.433594 583.019531 467.433594 C 580.652344 467.433594 578.707031 466.605469 577.195312 464.949219 C 575.679688 463.289062 574.921875 461 574.921875 458.082031 C 574.921875 456.179688 575.242188 454.589844 575.878906 453.308594 C 576.515625 452.027344 577.410156 450.988281 578.574219 450.191406 C 579.738281 449.394531 581.117188 448.832031 582.71875 448.5 C 584.320312 448.167969 586.105469 448 588.078125 448 L 589.394531 448 C 589.832031 448 590.292969 448.023438 590.777344 448.070312 C 590.90625 446.699219 590.972656 445.480469 590.972656 444.421875 C 590.972656 441.902344 590.601562 440.132812 589.859375 439.113281 C 589.113281 438.097656 587.753906 437.589844 585.78125 437.589844 C 584.554688 437.589844 583.21875 437.777344 581.773438 438.152344 C 580.328125 438.53125 579.121094 439.003906 578.160156 439.578125 Z "/>
<path style=" stroke:none;fill-rule:nonzero;fill:rgb(83.099365%,20.399475%,15.299988%);fill-opacity:1;" d="M 620.929688 465.3125 C 619.828125 466.152344 618.566406 466.769531 617.152344 467.167969 C 615.734375 467.566406 614.253906 467.765625 612.707031 467.765625 C 610.585938 467.765625 608.792969 467.355469 607.335938 466.539062 C 605.875 465.71875 604.695312 464.546875 603.785156 463.023438 C 602.878906 461.5 602.21875 459.664062 601.796875 457.519531 C 601.375 455.375 601.167969 453 601.167969 450.390625 C 601.167969 444.730469 602.171875 440.417969 604.1875 437.457031 C 606.199219 434.496094 609.082031 433.011719 612.839844 433.011719 C 614.566406 433.011719 616.046875 433.167969 617.285156 433.476562 C 618.523438 433.789062 619.582031 434.183594 620.46875 434.671875 L 619.140625 438.847656 C 617.371094 437.832031 615.449219 437.324219 613.371094 437.324219 C 610.984375 437.324219 609.179688 438.375 607.964844 440.472656 C 606.75 442.574219 606.140625 445.878906 606.140625 450.390625 C 606.140625 452.203125 606.273438 453.902344 606.539062 455.496094 C 606.804688 457.085938 607.246094 458.46875 607.867188 459.640625 C 608.484375 460.8125 609.28125 461.742188 610.253906 462.425781 C 611.226562 463.113281 612.441406 463.457031 613.902344 463.457031 C 615.050781 463.457031 616.121094 463.253906 617.117188 462.855469 C 618.113281 462.460938 618.917969 461.996094 619.539062 461.464844 Z "/>
<path style=" stroke:none;fill-rule:nonzero;fill:rgb(83.099365%,20.399475%,15.299988%);fill-opacity:1;" d="M 632.925781 452.046875 L 630.40625 452.046875 L 630.40625 466.96875 L 625.632812 466.96875 L 625.632812 420.542969 L 630.40625 420.542969 L 630.40625 448.796875 L 632.597656 447.867188 L 640.355469 433.808594 L 645.859375 433.808594 L 638.035156 447.207031 L 635.714844 449.328125 L 638.433594 451.914062 L 646.988281 466.96875 L 641.285156 466.96875 Z "/>
<path style=" stroke:none;fill-rule:nonzero;fill:rgb(83.099365%,20.399475%,15.299988%);fill-opacity:1;" d="M 651.472656 424.015625 C 651.34375 424.015625 651.207031 424.023438 651.0625 424.03125 C 650.914062 424.039062 650.800781 424.066406 650.71875 424.113281 L 650.71875 425.574219 L 651.425781 425.574219 C 652.25 425.574219 652.664062 425.296875 652.664062 424.746094 C 652.664062 424.261719 652.269531 424.015625 651.472656 424.015625 M 649.652344 423.3125 C 649.878906 423.25 650.191406 423.195312 650.589844 423.15625 C 650.984375 423.117188 651.359375 423.09375 651.71875 423.09375 C 652.285156 423.09375 652.773438 423.214844 653.1875 423.457031 C 653.597656 423.703125 653.804688 424.113281 653.804688 424.699219 C 653.804688 425.132812 653.667969 425.46875 653.394531 425.707031 C 653.117188 425.941406 652.769531 426.074219 652.347656 426.105469 L 652.929688 426.375 L 654.4375 428.632812 L 653.171875 428.632812 L 651.71875 426.496094 L 650.71875 426.175781 L 650.71875 428.632812 L 649.652344 428.632812 Z M 647.660156 425.960938 C 647.660156 426.671875 647.769531 427.292969 647.988281 427.820312 C 648.207031 428.34375 648.503906 428.789062 648.875 429.140625 C 649.246094 429.5 649.679688 429.761719 650.175781 429.929688 C 650.667969 430.101562 651.199219 430.1875 651.765625 430.1875 C 652.363281 430.1875 652.914062 430.101562 653.417969 429.929688 C 653.917969 429.761719 654.351562 429.503906 654.714844 429.15625 C 655.082031 428.808594 655.367188 428.371094 655.578125 427.84375 C 655.789062 427.316406 655.894531 426.691406 655.894531 425.960938 C 655.894531 425.265625 655.785156 424.652344 655.566406 424.125 C 655.347656 423.601562 655.050781 423.160156 654.679688 422.800781 C 654.308594 422.445312 653.871094 422.183594 653.371094 422.011719 C 652.867188 421.84375 652.332031 421.757812 651.765625 421.757812 C 651.167969 421.757812 650.617188 421.84375 650.113281 422.011719 C 649.613281 422.183594 649.179688 422.445312 648.816406 422.800781 C 648.449219 423.160156 648.164062 423.601562 647.964844 424.125 C 647.761719 424.652344 647.660156 425.265625 647.660156 425.960938 M 646.347656 425.960938 C 646.347656 425.085938 646.496094 424.3125 646.785156 423.640625 C 647.078125 422.96875 647.46875 422.402344 647.964844 421.941406 C 648.457031 421.480469 649.03125 421.132812 649.691406 420.898438 C 650.34375 420.660156 651.035156 420.542969 651.765625 420.542969 C 652.527344 420.542969 653.242188 420.660156 653.902344 420.898438 C 654.566406 421.132812 655.144531 421.480469 655.628906 421.941406 C 656.113281 422.402344 656.496094 422.96875 656.78125 423.640625 C 657.066406 424.3125 657.207031 425.085938 657.207031 425.960938 C 657.207031 426.835938 657.058594 427.609375 656.769531 428.292969 C 656.480469 428.972656 656.082031 429.542969 655.589844 430.003906 C 655.097656 430.464844 654.523438 430.816406 653.867188 431.046875 C 653.210938 431.285156 652.507812 431.398438 651.765625 431.398438 C 651.003906 431.398438 650.296875 431.285156 649.640625 431.046875 C 648.984375 430.816406 648.414062 430.464844 647.925781 430.003906 C 647.441406 429.542969 647.058594 428.972656 646.777344 428.292969 C 646.492188 427.609375 646.347656 426.835938 646.347656 425.960938 "/>
</g>
</svg>
