<?xml version="1.0" encoding="utf-8"?>
<!-- Generator: Adobe Illustrator 18.1.1, SVG Export Plug-In . SVG Version: 6.00 Build 0)  -->
<svg version="1.1" id="Warstwa_1" xmlns="http://www.w3.org/2000/svg" xmlns:xlink="http://www.w3.org/1999/xlink" x="0px" y="0px"
	 width="500px" height="500px" viewBox="0 0 500 500" enable-background="new 0 0 500 500" xml:space="preserve">
<path fill="none" stroke="#FFFFFF" stroke-width="20" stroke-miterlimit="10" d="M253.1,117.1l33,94.9c0.5,1.3,1.7,2.2,3.1,2.2
	l100.5,2c3.2,0.1,4.5,4.1,1.9,6l-80.1,60.7c-1.1,0.8-1.6,2.3-1.2,3.6l29.1,96.2c0.9,3-2.5,5.5-5.1,3.7L251.9,329
	c-1.1-0.8-2.7-0.8-3.8,0l-82.5,57.4c-2.6,1.8-6-0.7-5.1-3.7l29.1-96.2c0.4-1.3-0.1-2.8-1.2-3.6l-80.1-60.7c-2.5-1.9-1.2-5.9,1.9-6
	l100.5-2c1.4,0,2.6-0.9,3.1-2.2l33-94.9C247.9,114.1,252.1,114.1,253.1,117.1z"/>
</svg>
